# Exported from tank-game Tank_002.fbx mesh Gun_GEO
v 0.282323 0.167620 -0.008591
v 0.156112 0.293642 -0.015503
v 0.118056 0.290720 1.139129
v 0.216408 0.192515 1.144515
v -0.016296 0.339770 -0.018033
v -0.016296 0.326666 1.137158
v -0.188704 0.293642 -0.015503
v -0.150648 0.290720 1.139129
v -0.314915 0.167620 -0.008591
v -0.249001 0.192515 1.144515
v -0.361112 -0.004529 0.000850
v -0.285000 0.058365 1.151873
v -0.314915 -0.176677 0.010292
v -0.249001 -0.075785 1.159230
v -0.188704 -0.302700 0.017204
v -0.150648 -0.173990 1.164616
v -0.016296 -0.348827 0.019734
v -0.016296 -0.209936 1.166588
v -0.016296 -0.348827 0.019734
v 0.156112 -0.302700 0.017204
v 0.118056 -0.173990 1.164616
v -0.016296 -0.209936 1.166588
v 0.282323 -0.176677 0.010292
v 0.216408 -0.075785 1.159230
v 0.328520 -0.004529 0.000850
v 0.252408 0.058365 1.151873
v 0.216408 0.192515 1.144515
v 0.118056 0.290720 1.139129
v 0.069852 0.209961 1.195322
v 0.132916 0.146990 1.199452
v -0.016296 0.326666 1.137158
v -0.016296 0.233011 1.193810
v -0.150648 0.290720 1.139129
v -0.102444 0.209961 1.195322
v -0.249001 0.192515 1.144515
v -0.165508 0.146990 1.199452
v -0.285000 0.058365 1.151873
v -0.188592 0.060969 1.205092
v -0.249001 -0.075785 1.159230
v -0.165508 -0.025051 1.210734
v -0.150648 -0.173990 1.164616
v -0.102444 -0.088023 1.214863
v -0.016296 -0.209936 1.166588
v -0.016296 -0.111071 1.216374
v -0.016296 -0.209936 1.166588
v 0.118056 -0.173990 1.164616
v 0.069852 -0.088023 1.214863
v -0.016296 -0.111071 1.216374
v 0.216408 -0.075785 1.159230
v 0.132916 -0.025051 1.210734
v 0.252408 0.058365 1.151873
v 0.155999 0.060969 1.205092
v 0.132916 0.146990 1.199452
v 0.069852 0.209961 1.195322
v 0.064288 0.258844 2.595590
v 0.123279 0.199939 2.599453
v -0.016296 0.233011 1.193810
v -0.016296 0.280404 2.594176
v -0.102444 0.209961 1.195322
v -0.096880 0.258844 2.595590
v -0.165508 0.146990 1.199452
v -0.155872 0.199939 2.599453
v -0.188592 0.060969 1.205092
v -0.177464 0.119475 2.604730
v -0.165508 -0.025051 1.210734
v -0.155872 0.039010 2.610006
v -0.102444 -0.088023 1.214863
v -0.096880 -0.019895 2.613870
v -0.016296 -0.111071 1.216374
v -0.016296 -0.041455 2.615282
v -0.016296 -0.111071 1.216374
v 0.069852 -0.088023 1.214863
v 0.064288 -0.019895 2.613870
v -0.016296 -0.041455 2.615282
v 0.132916 -0.025051 1.210734
v 0.123279 0.039010 2.610006
v 0.155999 0.060969 1.205092
v 0.144871 0.119475 2.604730
v -0.352015 -0.127873 3.291237
v -0.334288 -0.136600 2.582250
v 0.283724 -0.136607 2.582255
v 0.301451 -0.127881 3.291242
v -0.334288 0.376206 2.565245
v -0.352015 0.414351 3.273257
v 0.301451 0.414344 3.273260
v 0.283724 0.376199 2.565249
v 0.361138 -0.058939 3.288956
v 0.340172 -0.071406 2.580093
v 0.340172 0.310996 2.567412
v 0.361138 0.345400 3.275547
v -0.411702 0.345410 3.275541
v -0.390736 0.311004 2.567407
v -0.390736 -0.071397 2.580087
v -0.411702 -0.058930 3.288951
v -0.390736 -0.071397 2.580087
v -0.383173 -0.103998 2.581169
v -0.403706 -0.093400 3.290094
v -0.411702 -0.058930 3.288951
v -0.383173 -0.103998 2.581169
v -0.362512 -0.127864 2.581961
v -0.381859 -0.118636 3.290931
v -0.403706 -0.093400 3.290094
v -0.362512 -0.127864 2.581961
v -0.334288 -0.136600 2.582250
v -0.352015 -0.127873 3.291237
v -0.381859 -0.118636 3.290931
v 0.283724 -0.136607 2.582255
v 0.311948 -0.127872 2.581965
v 0.331294 -0.118645 3.290935
v 0.301451 -0.127881 3.291242
v 0.311948 -0.127872 2.581965
v 0.332609 -0.104007 2.581174
v 0.353141 -0.093410 3.290099
v 0.331294 -0.118645 3.290935
v 0.332609 -0.104007 2.581174
v 0.340172 -0.071406 2.580093
v 0.361138 -0.058939 3.288956
v 0.353141 -0.093410 3.290099
v -0.411702 0.345410 3.275541
v -0.403706 0.379881 3.274397
v -0.383173 0.343606 2.566326
v -0.390736 0.311004 2.567407
v -0.403706 0.379881 3.274397
v -0.381859 0.405114 3.273561
v -0.362512 0.367470 2.565534
v -0.383173 0.343606 2.566326
v -0.381859 0.405114 3.273561
v -0.352015 0.414351 3.273257
v -0.334288 0.376206 2.565245
v -0.362512 0.367470 2.565534
v 0.301451 0.414344 3.273260
v 0.331294 0.405106 3.273566
v 0.311948 0.367462 2.565539
v 0.283724 0.376199 2.565249
v 0.331294 0.405106 3.273566
v 0.353141 0.379872 3.274402
v 0.332609 0.343597 2.566330
v 0.311948 0.367462 2.565539
v 0.353141 0.379872 3.274402
v 0.361138 0.345400 3.275547
v 0.340172 0.310996 2.567412
v 0.332609 0.343597 2.566330
v 0.294925 0.353438 3.165371
v -0.345488 0.353446 3.165365
v -0.356195 0.350132 3.165475
v -0.359255 0.346597 3.165592
v -0.362124 0.334229 3.166001
v -0.362124 -0.055031 3.178912
v -0.359255 -0.067398 3.179322
v -0.356194 -0.070935 3.179439
v -0.345486 -0.074249 3.179549
v 0.294926 -0.074256 3.179553
v 0.305633 -0.070942 3.179443
v 0.308693 -0.067409 3.179326
v 0.311562 -0.055041 3.178917
v 0.311562 0.334221 3.166008
v 0.308693 0.346589 3.165597
v 0.305633 0.350123 3.165480
v 0.317772 0.307152 2.528811
v 0.317772 -0.070127 2.541322
v 0.312041 -0.094833 2.542141
v 0.299201 -0.109663 2.542633
v 0.280335 -0.115502 2.542827
v -0.330898 -0.115495 2.542822
v -0.349765 -0.109656 2.542629
v -0.362605 -0.094824 2.542136
v -0.368336 -0.070119 2.541316
v -0.368336 0.307160 2.528806
v -0.362605 0.331866 2.527986
v -0.349765 0.346695 2.527495
v -0.330899 0.352535 2.527301
v 0.280334 0.352529 2.527305
v 0.299201 0.346689 2.527499
v 0.312041 0.331857 2.527991
v 0.301451 0.414344 3.273260
v -0.352015 0.414351 3.273257
v -0.348677 0.386097 3.305450
v 0.298112 0.386090 3.305455
v -0.352015 0.414351 3.273257
v -0.381859 0.405114 3.273561
v -0.368733 0.379890 3.305656
v -0.348677 0.386097 3.305450
v -0.381859 0.405114 3.273561
v -0.403706 0.379881 3.274397
v -0.380971 0.365754 3.306125
v -0.368733 0.379890 3.305656
v -0.403706 0.379881 3.274397
v -0.411702 0.345410 3.275541
v -0.386345 0.342589 3.306893
v -0.380971 0.365754 3.306125
v -0.411702 0.345410 3.275541
v -0.411702 -0.058930 3.288951
v -0.386345 -0.054038 3.320047
v -0.386345 0.342589 3.306893
v -0.411702 -0.058930 3.288951
v -0.403706 -0.093400 3.290094
v -0.380971 -0.077204 3.320816
v -0.386345 -0.054038 3.320047
v -0.403706 -0.093400 3.290094
v -0.381859 -0.118636 3.290931
v -0.368733 -0.091340 3.321285
v -0.380971 -0.077204 3.320816
v -0.381859 -0.118636 3.290931
v -0.352015 -0.127873 3.291237
v -0.348677 -0.097548 3.321490
v -0.368733 -0.091340 3.321285
v -0.352015 -0.127873 3.291237
v 0.301451 -0.127881 3.291242
v 0.298113 -0.097555 3.321495
v -0.348677 -0.097548 3.321490
v 0.301451 -0.127881 3.291242
v 0.331294 -0.118645 3.290935
v 0.318168 -0.091348 3.321288
v 0.298113 -0.097555 3.321495
v 0.331294 -0.118645 3.290935
v 0.353141 -0.093410 3.290099
v 0.330406 -0.077213 3.320820
v 0.318168 -0.091348 3.321288
v 0.353141 -0.093410 3.290099
v 0.361138 -0.058939 3.288956
v 0.335780 -0.054048 3.320051
v 0.330406 -0.077213 3.320820
v 0.361138 -0.058939 3.288956
v 0.361138 0.345400 3.275547
v 0.335780 0.342579 3.306898
v 0.335780 -0.054048 3.320051
v 0.361138 0.345400 3.275547
v 0.353141 0.379872 3.274402
v 0.330406 0.365746 3.306128
v 0.335780 0.342579 3.306898
v 0.353141 0.379872 3.274402
v 0.331294 0.405106 3.273566
v 0.318168 0.379881 3.305661
v 0.330406 0.365746 3.306128
v 0.331294 0.405106 3.273566
v 0.301451 0.414344 3.273260
v 0.298112 0.386090 3.305455
v 0.318168 0.379881 3.305661
v 0.298112 0.386090 3.305455
v -0.348677 0.386097 3.305450
v -0.345489 0.358492 3.317554
v 0.294923 0.358485 3.317560
v -0.348677 0.386097 3.305450
v -0.368733 0.379890 3.305656
v -0.356196 0.355179 3.317663
v -0.345489 0.358492 3.317554
v -0.368733 0.379890 3.305656
v -0.380971 0.365754 3.306125
v -0.359256 0.351644 3.317781
v -0.356196 0.355179 3.317663
v -0.380971 0.365754 3.306125
v -0.386345 0.342589 3.306893
v -0.362125 0.339276 3.318190
v -0.359256 0.351644 3.317781
v -0.386345 0.342589 3.306893
v -0.386345 -0.054038 3.320047
v -0.362125 -0.049984 3.331101
v -0.362125 0.339276 3.318190
v -0.386345 -0.054038 3.320047
v -0.380971 -0.077204 3.320816
v -0.359256 -0.062352 3.331511
v -0.362125 -0.049984 3.331101
v -0.380971 -0.077204 3.320816
v -0.368733 -0.091340 3.321285
v -0.356195 -0.065888 3.331627
v -0.359256 -0.062352 3.331511
v -0.368733 -0.091340 3.321285
v -0.348677 -0.097548 3.321490
v -0.345488 -0.069202 3.331738
v -0.356195 -0.065888 3.331627
v -0.348677 -0.097548 3.321490
v 0.298113 -0.097555 3.321495
v 0.294925 -0.069209 3.331742
v -0.345488 -0.069202 3.331738
v 0.298113 -0.097555 3.321495
v 0.318168 -0.091348 3.321288
v 0.305632 -0.065896 3.331632
v 0.294925 -0.069209 3.331742
v 0.318168 -0.091348 3.321288
v 0.330406 -0.077213 3.320820
v 0.308692 -0.062362 3.331515
v 0.305632 -0.065896 3.331632
v 0.330406 -0.077213 3.320820
v 0.335780 -0.054048 3.320051
v 0.311561 -0.049994 3.331106
v 0.308692 -0.062362 3.331515
v 0.335780 -0.054048 3.320051
v 0.335780 0.342579 3.306898
v 0.311561 0.339268 3.318196
v 0.311561 -0.049994 3.331106
v 0.335780 0.342579 3.306898
v 0.330406 0.365746 3.306128
v 0.308692 0.351635 3.317785
v 0.311561 0.339268 3.318196
v 0.330406 0.365746 3.306128
v 0.318168 0.379881 3.305661
v 0.305631 0.355170 3.317669
v 0.308692 0.351635 3.317785
v 0.318168 0.379881 3.305661
v 0.298112 0.386090 3.305455
v 0.294923 0.358485 3.317560
v 0.305631 0.355170 3.317669
v 0.294923 0.358485 3.317560
v -0.345489 0.358492 3.317554
v -0.345488 0.353446 3.165365
v 0.294925 0.353438 3.165371
v -0.345489 0.358492 3.317554
v -0.356196 0.355179 3.317663
v -0.356195 0.350132 3.165475
v -0.345488 0.353446 3.165365
v -0.356196 0.355179 3.317663
v -0.359256 0.351644 3.317781
v -0.359255 0.346597 3.165592
v -0.356195 0.350132 3.165475
v -0.359256 0.351644 3.317781
v -0.362125 0.339276 3.318190
v -0.362124 0.334229 3.166001
v -0.359255 0.346597 3.165592
v -0.362125 0.339276 3.318190
v -0.362125 -0.049984 3.331101
v -0.362124 -0.055031 3.178912
v -0.362124 0.334229 3.166001
v -0.362125 -0.049984 3.331101
v -0.359256 -0.062352 3.331511
v -0.359255 -0.067398 3.179322
v -0.362124 -0.055031 3.178912
v -0.359256 -0.062352 3.331511
v -0.356195 -0.065888 3.331627
v -0.356194 -0.070935 3.179439
v -0.359255 -0.067398 3.179322
v -0.356195 -0.065888 3.331627
v -0.345488 -0.069202 3.331738
v -0.345486 -0.074249 3.179549
v -0.356194 -0.070935 3.179439
v -0.345488 -0.069202 3.331738
v 0.294925 -0.069209 3.331742
v 0.294926 -0.074256 3.179553
v -0.345486 -0.074249 3.179549
v 0.294925 -0.069209 3.331742
v 0.305632 -0.065896 3.331632
v 0.305633 -0.070942 3.179443
v 0.294926 -0.074256 3.179553
v 0.305632 -0.065896 3.331632
v 0.308692 -0.062362 3.331515
v 0.308693 -0.067409 3.179326
v 0.305633 -0.070942 3.179443
v 0.308692 -0.062362 3.331515
v 0.311561 -0.049994 3.331106
v 0.311562 -0.055041 3.178917
v 0.308693 -0.067409 3.179326
v 0.311561 -0.049994 3.331106
v 0.311561 0.339268 3.318196
v 0.311562 0.334221 3.166008
v 0.311562 -0.055041 3.178917
v 0.311561 0.339268 3.318196
v 0.308692 0.351635 3.317785
v 0.308693 0.346589 3.165597
v 0.311562 0.334221 3.166008
v 0.308692 0.351635 3.317785
v 0.305631 0.355170 3.317669
v 0.305633 0.350123 3.165480
v 0.308693 0.346589 3.165597
v 0.305631 0.355170 3.317669
v 0.294923 0.358485 3.317560
v 0.294925 0.353438 3.165371
v 0.305633 0.350123 3.165480
v 0.340172 0.310996 2.567412
v 0.340172 -0.071406 2.580093
v 0.317772 -0.070127 2.541322
v 0.317772 0.307152 2.528811
v 0.340172 -0.071406 2.580093
v 0.332609 -0.104007 2.581174
v 0.312041 -0.094833 2.542141
v 0.317772 -0.070127 2.541322
v 0.332609 -0.104007 2.581174
v 0.311948 -0.127872 2.581965
v 0.299201 -0.109663 2.542633
v 0.312041 -0.094833 2.542141
v 0.311948 -0.127872 2.581965
v 0.283724 -0.136607 2.582255
v 0.280335 -0.115502 2.542827
v 0.299201 -0.109663 2.542633
v 0.283724 -0.136607 2.582255
v -0.334288 -0.136600 2.582250
v -0.330898 -0.115495 2.542822
v 0.280335 -0.115502 2.542827
v -0.334288 -0.136600 2.582250
v -0.362512 -0.127864 2.581961
v -0.349765 -0.109656 2.542629
v -0.330898 -0.115495 2.542822
v -0.362512 -0.127864 2.581961
v -0.383173 -0.103998 2.581169
v -0.362605 -0.094824 2.542136
v -0.349765 -0.109656 2.542629
v -0.383173 -0.103998 2.581169
v -0.390736 -0.071397 2.580087
v -0.368336 -0.070119 2.541316
v -0.362605 -0.094824 2.542136
v -0.390736 -0.071397 2.580087
v -0.390736 0.311004 2.567407
v -0.368336 0.307160 2.528806
v -0.368336 -0.070119 2.541316
v -0.390736 0.311004 2.567407
v -0.383173 0.343606 2.566326
v -0.362605 0.331866 2.527986
v -0.368336 0.307160 2.528806
v -0.383173 0.343606 2.566326
v -0.362512 0.367470 2.565534
v -0.349765 0.346695 2.527495
v -0.362605 0.331866 2.527986
v -0.362512 0.367470 2.565534
v -0.334288 0.376206 2.565245
v -0.330899 0.352535 2.527301
v -0.349765 0.346695 2.527495
v -0.334288 0.376206 2.565245
v 0.283724 0.376199 2.565249
v 0.280334 0.352529 2.527305
v -0.330899 0.352535 2.527301
v 0.283724 0.376199 2.565249
v 0.311948 0.367462 2.565539
v 0.299201 0.346689 2.527499
v 0.280334 0.352529 2.527305
v 0.311948 0.367462 2.565539
v 0.332609 0.343597 2.566330
v 0.312041 0.331857 2.527991
v 0.299201 0.346689 2.527499
v 0.332609 0.343597 2.566330
v 0.340172 0.310996 2.567412
v 0.317772 0.307152 2.528811
v 0.312041 0.331857 2.527991
vt 0.269486 0.131738
vt 0.257067 0.130906
vt 0.252495 0.214399
vt 0.260746 0.214835
vt 0.244667 0.130591
vt 0.244265 0.214201
vt 0.232266 0.130780
vt 0.236032 0.214332
vt 0.219840 0.131472
vt 0.227773 0.214724
vt 0.207375 0.132683
vt 0.219447 0.215425
vt 0.194861 0.134427
vt 0.210972 0.216515
vt 0.182303 0.136710
vt 0.202228 0.218179
vt 0.169724 0.139518
vt 0.193071 0.220797
vt 0.319399 0.140326
vt 0.306929 0.137437
vt 0.286287 0.218370
vt 0.295497 0.221071
vt 0.294424 0.135000
vt 0.277530 0.216684
vt 0.281937 0.133099
vt 0.269062 0.215569
vt 0.260746 0.214835
vt 0.252495 0.214399
vt 0.251801 0.222636
vt 0.259325 0.222926
vt 0.244265 0.214201
vt 0.244247 0.222674
vt 0.236032 0.214332
vt 0.236694 0.222592
vt 0.227773 0.214724
vt 0.229170 0.222844
vt 0.219447 0.215425
vt 0.221726 0.223346
vt 0.210972 0.216515
vt 0.214435 0.224039
vt 0.202228 0.218179
vt 0.207403 0.224896
vt 0.193071 0.220797
vt 0.200806 0.225997
vt 0.295497 0.221071
vt 0.286287 0.218370
vt 0.281092 0.225064
vt 0.287686 0.226197
vt 0.277530 0.216684
vt 0.274059 0.224181
vt 0.269062 0.215569
vt 0.266769 0.223460
vt 0.259325 0.222926
vt 0.251801 0.222636
vt 0.250092 0.324174
vt 0.256116 0.324373
vt 0.244247 0.222674
vt 0.244061 0.324090
vt 0.236694 0.222592
vt 0.238030 0.324150
vt 0.229170 0.222844
vt 0.232006 0.324325
vt 0.221726 0.223346
vt 0.225990 0.324587
vt 0.214435 0.224039
vt 0.219982 0.324894
vt 0.207403 0.224896
vt 0.213974 0.325200
vt 0.200806 0.225997
vt 0.207948 0.325459
vt 0.287686 0.226197
vt 0.281092 0.225064
vt 0.274144 0.325316
vt 0.280169 0.325598
vt 0.274059 0.224181
vt 0.268137 0.324987
vt 0.266769 0.223460
vt 0.262130 0.324658
vt 0.434562 0.143955
vt 0.379497 0.137712
vt 0.376236 0.184313
vt 0.425685 0.187570
vt 0.373040 0.271323
vt 0.422915 0.271234
vt 0.423213 0.227008
vt 0.372908 0.226260
vt 0.425428 0.193768
vt 0.375505 0.191104
vt 0.373372 0.219344
vt 0.423631 0.221078
vt 0.423417 0.277199
vt 0.373193 0.278250
vt 0.374122 0.305837
vt 0.425999 0.305330
vt 0.374122 0.305837
vt 0.374250 0.308230
vt 0.426014 0.307778
vt 0.425999 0.305330
vt 0.374250 0.308230
vt 0.374217 0.310497
vt 0.426197 0.310100
vt 0.426014 0.307778
vt 0.374217 0.310497
vt 0.373995 0.312600
vt 0.426575 0.312288
vt 0.426197 0.310100
vt 0.376236 0.184313
vt 0.376141 0.186436
vt 0.425421 0.189494
vt 0.425685 0.187570
vt 0.376141 0.186436
vt 0.375886 0.188708
vt 0.425348 0.191564
vt 0.425421 0.189494
vt 0.375886 0.188708
vt 0.375505 0.191104
vt 0.425428 0.193768
vt 0.425348 0.191564
vt 0.423417 0.277199
vt 0.423070 0.275084
vt 0.373254 0.275800
vt 0.373193 0.278250
vt 0.423070 0.275084
vt 0.422892 0.273096
vt 0.373213 0.273480
vt 0.373254 0.275800
vt 0.422892 0.273096
vt 0.422915 0.271234
vt 0.373040 0.271323
vt 0.373213 0.273480
vt 0.423213 0.227008
vt 0.423166 0.225156
vt 0.373175 0.224107
vt 0.372908 0.226260
vt 0.423166 0.225156
vt 0.423309 0.223175
vt 0.373322 0.221793
vt 0.373175 0.224107
vt 0.423309 0.223175
vt 0.423631 0.221078
vt 0.373372 0.219344
vt 0.373322 0.221793
vt 0.439101 0.225796
vt 0.438878 0.272182
vt 0.439114 0.272953
vt 0.439369 0.273174
vt 0.440259 0.273383
vt 0.468318 0.273393
vt 0.469209 0.273189
vt 0.469465 0.272969
vt 0.469707 0.272196
vt 0.469885 0.225943
vt 0.469649 0.225171
vt 0.469396 0.224949
vt 0.468505 0.224738
vt 0.440488 0.224606
vt 0.439598 0.224807
vt 0.439342 0.225026
vt 0.366493 0.223432
vt 0.339335 0.223693
vt 0.337557 0.224122
vt 0.336489 0.225058
vt 0.336068 0.226429
vt 0.336078 0.271092
vt 0.336499 0.272476
vt 0.337568 0.273417
vt 0.339347 0.273836
vt 0.366540 0.274145
vt 0.368321 0.273741
vt 0.369390 0.272824
vt 0.369812 0.271472
vt 0.369758 0.226099
vt 0.369338 0.224736
vt 0.368271 0.223820
vt 0.423213 0.227008
vt 0.422915 0.271234
vt 0.425923 0.271895
vt 0.426217 0.226329
vt 0.422915 0.271234
vt 0.422892 0.273096
vt 0.425692 0.273348
vt 0.425923 0.271895
vt 0.422892 0.273096
vt 0.423070 0.275084
vt 0.425809 0.274625
vt 0.425692 0.273348
vt 0.423070 0.275084
vt 0.423417 0.277199
vt 0.426242 0.276173
vt 0.425809 0.274625
vt 0.423417 0.277199
vt 0.425999 0.305330
vt 0.428928 0.305153
vt 0.426242 0.276173
vt 0.425999 0.305330
vt 0.426014 0.307778
vt 0.428852 0.306927
vt 0.428928 0.305153
vt 0.426014 0.307778
vt 0.426197 0.310100
vt 0.429082 0.308304
vt 0.428852 0.306927
vt 0.426197 0.310100
vt 0.426575 0.312288
vt 0.429837 0.309637
vt 0.429082 0.308304
vt 0.434562 0.143955
vt 0.425685 0.187570
vt 0.428488 0.188990
vt 0.437652 0.145160
vt 0.425685 0.187570
vt 0.425421 0.189494
vt 0.428091 0.190380
vt 0.428488 0.188990
vt 0.425421 0.189494
vt 0.425348 0.191564
vt 0.428056 0.191691
vt 0.428091 0.190380
vt 0.425348 0.191564
vt 0.425428 0.193768
vt 0.428297 0.193353
vt 0.428056 0.191691
vt 0.425428 0.193768
vt 0.423631 0.221078
vt 0.426415 0.222054
vt 0.428297 0.193353
vt 0.423631 0.221078
vt 0.423309 0.223175
vt 0.426032 0.223611
vt 0.426415 0.222054
vt 0.423309 0.223175
vt 0.423166 0.225156
vt 0.425950 0.224886
vt 0.426032 0.223611
vt 0.423166 0.225156
vt 0.423213 0.227008
vt 0.426217 0.226329
vt 0.425950 0.224886
vt 0.426217 0.226329
vt 0.425923 0.271895
vt 0.427992 0.272455
vt 0.428285 0.225730
vt 0.425923 0.271895
vt 0.425692 0.273348
vt 0.427917 0.273650
vt 0.427992 0.272455
vt 0.425692 0.273348
vt 0.425809 0.274625
vt 0.427933 0.274152
vt 0.427917 0.273650
vt 0.425809 0.274625
vt 0.426242 0.276173
vt 0.428081 0.275483
vt 0.427933 0.274152
vt 0.426242 0.276173
vt 0.428928 0.305153
vt 0.430852 0.304962
vt 0.428081 0.275483
vt 0.428928 0.305153
vt 0.428852 0.306927
vt 0.430997 0.306006
vt 0.430852 0.304962
vt 0.428852 0.306927
vt 0.429082 0.308304
vt 0.431087 0.306370
vt 0.430997 0.306006
vt 0.429082 0.308304
vt 0.429837 0.309637
vt 0.431420 0.307132
vt 0.431087 0.306370
vt 0.437652 0.145160
vt 0.428488 0.188990
vt 0.430399 0.190105
vt 0.439768 0.146074
vt 0.428488 0.188990
vt 0.428091 0.190380
vt 0.430200 0.191257
vt 0.430399 0.190105
vt 0.428091 0.190380
vt 0.428056 0.191691
vt 0.430170 0.191756
vt 0.430200 0.191257
vt 0.428056 0.191691
vt 0.428297 0.193353
vt 0.430167 0.193107
vt 0.430170 0.191756
vt 0.428297 0.193353
vt 0.426415 0.222054
vt 0.428227 0.222692
vt 0.430167 0.193107
vt 0.426415 0.222054
vt 0.426032 0.223611
vt 0.428145 0.224037
vt 0.428227 0.222692
vt 0.426032 0.223611
vt 0.425950 0.224886
vt 0.428155 0.224541
vt 0.428145 0.224037
vt 0.425950 0.224886
vt 0.426217 0.226329
vt 0.428285 0.225730
vt 0.428155 0.224541
vt 0.428285 0.225730
vt 0.427992 0.272455
vt 0.438878 0.272182
vt 0.439101 0.225796
vt 0.427992 0.272455
vt 0.427917 0.273650
vt 0.438881 0.273018
vt 0.438878 0.272182
vt 0.427917 0.273650
vt 0.427933 0.274152
vt 0.438887 0.273367
vt 0.438881 0.273018
vt 0.427933 0.274152
vt 0.428081 0.275483
vt 0.438895 0.274321
vt 0.438887 0.273367
vt 0.428081 0.275483
vt 0.430852 0.304962
vt 0.441908 0.302594
vt 0.438895 0.274321
vt 0.430852 0.304962
vt 0.430997 0.306006
vt 0.442129 0.303462
vt 0.441908 0.302594
vt 0.430997 0.306006
vt 0.431087 0.306370
vt 0.442213 0.303783
vt 0.442129 0.303462
vt 0.431087 0.306370
vt 0.431420 0.307132
vt 0.442422 0.304560
vt 0.442213 0.303783
vt 0.439768 0.146074
vt 0.430399 0.190105
vt 0.441098 0.192839
vt 0.450301 0.149430
vt 0.430399 0.190105
vt 0.430200 0.191257
vt 0.440973 0.193613
vt 0.441098 0.192839
vt 0.430200 0.191257
vt 0.430170 0.191756
vt 0.440902 0.193930
vt 0.440973 0.193613
vt 0.430170 0.191756
vt 0.430167 0.193107
vt 0.440768 0.194815
vt 0.440902 0.193930
vt 0.430167 0.193107
vt 0.428227 0.222692
vt 0.439152 0.223615
vt 0.440768 0.194815
vt 0.428227 0.222692
vt 0.428145 0.224037
vt 0.439129 0.224581
vt 0.439152 0.223615
vt 0.428145 0.224037
vt 0.428155 0.224541
vt 0.439118 0.224936
vt 0.439129 0.224581
vt 0.428155 0.224541
vt 0.428285 0.225730
vt 0.439101 0.225796
vt 0.439118 0.224936
vt 0.373372 0.219344
vt 0.375505 0.191104
vt 0.372357 0.190741
vt 0.370135 0.219456
vt 0.375505 0.191104
vt 0.375886 0.188708
vt 0.372764 0.188324
vt 0.372357 0.190741
vt 0.375886 0.188708
vt 0.376141 0.186436
vt 0.372948 0.186422
vt 0.372764 0.188324
vt 0.376141 0.186436
vt 0.376236 0.184313
vt 0.373043 0.184496
vt 0.372948 0.186422
vt 0.376236 0.184313
vt 0.379497 0.137712
vt 0.376239 0.138050
vt 0.373043 0.184496
vt 0.373995 0.312600
vt 0.374217 0.310497
vt 0.371002 0.309796
vt 0.370700 0.311243
vt 0.374217 0.310497
vt 0.374250 0.308230
vt 0.371063 0.308182
vt 0.371002 0.309796
vt 0.374250 0.308230
vt 0.374122 0.305837
vt 0.370884 0.306028
vt 0.371063 0.308182
vt 0.374122 0.305837
vt 0.373193 0.278250
vt 0.370016 0.278058
vt 0.370884 0.306028
vt 0.373193 0.278250
vt 0.373254 0.275800
vt 0.370080 0.275554
vt 0.370016 0.278058
vt 0.373254 0.275800
vt 0.373213 0.273480
vt 0.369986 0.273555
vt 0.370080 0.275554
vt 0.373213 0.273480
vt 0.373040 0.271323
vt 0.369812 0.271472
vt 0.369986 0.273555
vt 0.373040 0.271323
vt 0.372908 0.226260
vt 0.369758 0.226099
vt 0.369812 0.271472
vt 0.372908 0.226260
vt 0.373175 0.224107
vt 0.369974 0.223996
vt 0.369758 0.226099
vt 0.373175 0.224107
vt 0.373322 0.221793
vt 0.370130 0.221984
vt 0.369974 0.223996
vt 0.373322 0.221793
vt 0.373372 0.219344
vt 0.370135 0.219456
vt 0.370130 0.221984
vn 0.864123 0.501801 0.038562
vn 0.498893 0.866463 0.018636
vn 0.498922 0.866446 0.018637
vn 0.864152 0.501751 0.038565
vn 0.000000 0.999936 0.011343
vn 0.000000 0.999936 0.011343
vn -0.498893 0.866463 0.018636
vn -0.498922 0.866446 0.018637
vn -0.864123 0.501801 0.038562
vn -0.864152 0.501751 0.038565
vn -0.997827 0.003642 0.065783
vn -0.997827 0.003575 0.065786
vn -0.864164 -0.494541 0.093005
vn -0.864135 -0.494591 0.093007
vn -0.498934 -0.859250 0.112933
vn -0.498905 -0.859267 0.112934
vn 0.000000 -0.992746 0.120228
vn 0.000000 -0.992746 0.120228
vn 0.000000 -0.992746 0.120228
vn 0.498934 -0.859250 0.112933
vn 0.498905 -0.859267 0.112934
vn 0.000000 -0.992746 0.120228
vn 0.864164 -0.494541 0.093005
vn 0.864135 -0.494591 0.093007
vn 0.997827 0.003642 0.065783
vn 0.997827 0.003575 0.065786
vn 0.412286 0.288265 0.864247
vn 0.235295 0.457588 0.857467
vn 0.235605 0.457416 0.857474
vn 0.412633 0.287702 0.864269
vn 0.000000 0.518588 0.855024
vn 0.000000 0.518588 0.855024
vn -0.235295 0.457587 0.857467
vn -0.235604 0.457415 0.857474
vn -0.412286 0.288265 0.864247
vn -0.412634 0.287702 0.864269
vn -0.483728 0.050491 0.873761
vn -0.483756 0.049646 0.873793
vn -0.425745 -0.195049 0.883570
vn -0.425364 -0.195757 0.883598
vn -0.248760 -0.379910 0.890947
vn -0.248334 -0.380166 0.890957
vn 0.000001 -0.448686 0.893689
vn 0.000001 -0.448686 0.893689
vn 0.000001 -0.448686 0.893689
vn 0.248760 -0.379910 0.890947
vn 0.248334 -0.380165 0.890957
vn 0.000001 -0.448686 0.893689
vn 0.425745 -0.195049 0.883571
vn 0.425363 -0.195757 0.883598
vn 0.483728 0.050492 0.873761
vn 0.483756 0.049646 0.873793
vn 0.864298 0.502810 -0.013067
vn 0.498346 0.866517 -0.028269
vn 0.433754 0.778747 0.453222
vn 0.752588 0.462505 0.468721
vn 0.000000 0.999428 -0.033824
vn 0.000000 0.894251 0.447566
vn -0.498346 0.866517 -0.028269
vn -0.433753 0.778747 0.453222
vn -0.864298 0.502810 -0.013067
vn -0.752588 0.462505 0.468721
vn -0.999960 0.004426 0.007765
vn -0.871234 0.028731 0.490027
vn -0.867848 -0.496001 0.028685
vn -0.756596 -0.407350 0.511495
vn -0.501898 -0.863804 0.044061
vn -0.437762 -0.728211 0.527327
vn 0.000000 -0.998764 0.049704
vn 0.000000 -0.846024 0.533145
vn 0.000000 -0.998764 0.049704
vn 0.501898 -0.863804 0.044061
vn 0.437762 -0.728210 0.527327
vn 0.000000 -0.846024 0.533145
vn 0.867848 -0.496001 0.028685
vn 0.756596 -0.407350 0.511495
vn 0.999960 0.004426 0.007765
vn 0.871234 0.028731 0.490026
vn -0.000012 -0.999924 0.012308
vn -0.000012 -0.999924 0.012308
vn -0.000012 -0.999924 0.012308
vn -0.000012 -0.999924 0.012308
vn 0.000011 0.998552 -0.053798
vn 0.000011 0.998552 -0.053798
vn 0.000011 0.998552 -0.053798
vn 0.000011 0.998552 -0.053798
vn 0.999563 -0.000980 -0.029547
vn 0.999563 -0.000980 -0.029547
vn 0.999563 -0.000980 -0.029547
vn 0.999563 -0.000980 -0.029547
vn -0.999563 -0.000980 -0.029547
vn -0.999563 -0.000980 -0.029547
vn -0.999563 -0.000980 -0.029547
vn -0.999563 -0.000980 -0.029547
vn -0.973651 -0.226689 -0.024810
vn -0.973651 -0.226689 -0.024810
vn -0.973651 -0.226689 -0.024810
vn -0.973651 -0.226689 -0.024810
vn -0.755789 -0.654703 -0.012102
vn -0.755789 -0.654703 -0.012102
vn -0.755789 -0.654703 -0.012102
vn -0.755789 -0.654703 -0.012102
vn -0.295713 -0.955267 0.004365
vn -0.295713 -0.955267 0.004365
vn -0.295713 -0.955267 0.004365
vn -0.295713 -0.955267 0.004365
vn 0.295696 -0.955272 0.004364
vn 0.295696 -0.955272 0.004364
vn 0.295696 -0.955272 0.004364
vn 0.295696 -0.955272 0.004364
vn 0.755773 -0.654722 -0.012103
vn 0.755773 -0.654722 -0.012103
vn 0.755773 -0.654722 -0.012103
vn 0.755773 -0.654722 -0.012103
vn 0.973652 -0.226687 -0.024811
vn 0.973652 -0.226687 -0.024811
vn 0.973652 -0.226687 -0.024811
vn 0.973652 -0.226687 -0.024811
vn -0.973654 0.224542 -0.039737
vn -0.973654 0.224542 -0.039737
vn -0.973654 0.224542 -0.039737
vn -0.973654 0.224542 -0.039737
vn -0.755764 0.652502 -0.055343
vn -0.755764 0.652502 -0.055343
vn -0.755764 0.652502 -0.055343
vn -0.755764 0.652502 -0.055343
vn -0.295713 0.953467 -0.058773
vn -0.295713 0.953467 -0.058773
vn -0.295713 0.953467 -0.058773
vn -0.295713 0.953467 -0.058773
vn 0.295743 0.953458 -0.058774
vn 0.295743 0.953458 -0.058774
vn 0.295743 0.953458 -0.058774
vn 0.295743 0.953458 -0.058774
vn 0.755776 0.652487 -0.055342
vn 0.755776 0.652487 -0.055342
vn 0.755776 0.652487 -0.055342
vn 0.755776 0.652487 -0.055342
vn 0.973654 0.224542 -0.039737
vn 0.973654 0.224542 -0.039737
vn 0.973654 0.224541 -0.039737
vn 0.973654 0.224542 -0.039737
vn -0.000008 0.033144 0.999451
vn -0.000008 0.033144 0.999451
vn -0.000008 0.033144 0.999450
vn -0.000008 0.033144 0.999450
vn -0.000008 0.033144 0.999451
vn -0.000008 0.033144 0.999450
vn -0.000008 0.033144 0.999451
vn -0.000008 0.033144 0.999450
vn -0.000008 0.033144 0.999451
vn -0.000008 0.033144 0.999450
vn -0.000008 0.033144 0.999450
vn -0.000008 0.033144 0.999451
vn -0.000008 0.033144 0.999451
vn -0.000008 0.033144 0.999451
vn -0.000008 0.033144 0.999450
vn -0.000008 0.033144 0.999450
vn 0.000007 -0.033144 -0.999451
vn 0.000007 -0.033144 -0.999451
vn 0.000007 -0.033144 -0.999451
vn 0.000007 -0.033144 -0.999451
vn 0.000007 -0.033144 -0.999451
vn 0.000007 -0.033144 -0.999451
vn 0.000007 -0.033144 -0.999451
vn 0.000007 -0.033144 -0.999451
vn 0.000007 -0.033144 -0.999451
vn 0.000007 -0.033144 -0.999450
vn 0.000007 -0.033144 -0.999450
vn 0.000007 -0.033144 -0.999451
vn 0.000007 -0.033144 -0.999451
vn 0.000007 -0.033144 -0.999451
vn 0.000007 -0.033144 -0.999451
vn 0.000007 -0.033144 -0.999451
vn 0.000004 0.751603 0.659616
vn 0.000004 0.751603 0.659616
vn 0.000004 0.751603 0.659616
vn 0.000004 0.751603 0.659616
vn -0.216899 0.722453 0.656518
vn -0.216899 0.722453 0.656518
vn -0.216899 0.722453 0.656518
vn -0.216899 0.722453 0.656518
vn -0.571067 0.515596 0.638783
vn -0.571067 0.515596 0.638783
vn -0.571067 0.515596 0.638783
vn -0.571067 0.515596 0.638783
vn -0.753811 0.195661 0.627284
vn -0.753811 0.195661 0.627284
vn -0.753811 0.195661 0.627284
vn -0.753811 0.195661 0.627284
vn -0.776424 0.020890 0.629865
vn -0.776424 0.020890 0.629865
vn -0.776424 0.020890 0.629865
vn -0.776424 0.020890 0.629865
vn -0.753808 -0.153679 0.638871
vn -0.753808 -0.153679 0.638871
vn -0.753808 -0.153679 0.638871
vn -0.753808 -0.153679 0.638871
vn -0.571094 -0.472136 0.671520
vn -0.571094 -0.472135 0.671520
vn -0.571094 -0.472135 0.671520
vn -0.571094 -0.472136 0.671520
vn -0.216862 -0.677395 0.702927
vn -0.216862 -0.677395 0.702927
vn -0.216862 -0.677395 0.702927
vn -0.216862 -0.677395 0.702927
vn -0.000014 -0.706260 0.707952
vn -0.000014 -0.706260 0.707952
vn -0.000014 -0.706260 0.707952
vn -0.000014 -0.706260 0.707952
vn 0.216861 -0.677376 0.702946
vn 0.216861 -0.677376 0.702946
vn 0.216861 -0.677376 0.702946
vn 0.216861 -0.677376 0.702946
vn 0.571066 -0.472144 0.671538
vn 0.571066 -0.472144 0.671538
vn 0.571066 -0.472144 0.671538
vn 0.571066 -0.472144 0.671538
vn 0.753794 -0.153675 0.638889
vn 0.753794 -0.153675 0.638889
vn 0.753794 -0.153675 0.638889
vn 0.753794 -0.153676 0.638889
vn 0.776417 0.020889 0.629874
vn 0.776417 0.020889 0.629874
vn 0.776417 0.020889 0.629874
vn 0.776417 0.020889 0.629874
vn 0.753787 0.195689 0.627304
vn 0.753787 0.195689 0.627304
vn 0.753787 0.195689 0.627304
vn 0.753787 0.195689 0.627304
vn 0.571086 0.515566 0.638790
vn 0.571086 0.515566 0.638790
vn 0.571086 0.515566 0.638790
vn 0.571086 0.515566 0.638790
vn 0.216902 0.722451 0.656519
vn 0.216902 0.722451 0.656519
vn 0.216902 0.722451 0.656519
vn 0.216902 0.722451 0.656519
vn -0.000003 0.401560 0.915832
vn -0.000003 0.401560 0.915832
vn -0.000003 0.401560 0.915832
vn -0.000003 0.401560 0.915832
vn -0.110792 0.388314 0.914843
vn -0.110792 0.388314 0.914843
vn -0.110792 0.388314 0.914843
vn -0.110792 0.388314 0.914843
vn -0.299721 0.289655 0.908992
vn -0.299721 0.289655 0.908992
vn -0.299721 0.289655 0.908992
vn -0.299721 0.289655 0.908992
vn -0.405499 0.124066 0.905637
vn -0.405499 0.124066 0.905637
vn -0.405499 0.124066 0.905637
vn -0.405499 0.124066 0.905637
vn -0.419175 0.030095 0.907407
vn -0.419175 0.030095 0.907407
vn -0.419175 0.030095 0.907407
vn -0.419175 0.030095 0.907407
vn -0.405506 -0.063813 0.911862
vn -0.405506 -0.063813 0.911862
vn -0.405506 -0.063813 0.911862
vn -0.405506 -0.063813 0.911862
vn -0.299709 -0.228752 0.926200
vn -0.299709 -0.228752 0.926200
vn -0.299709 -0.228752 0.926200
vn -0.299709 -0.228752 0.926200
vn -0.110791 -0.326847 0.938561
vn -0.110791 -0.326847 0.938561
vn -0.110791 -0.326847 0.938561
vn -0.110791 -0.326847 0.938561
vn -0.000009 -0.340002 0.940425
vn -0.000009 -0.340002 0.940425
vn -0.000009 -0.340001 0.940425
vn -0.000009 -0.340002 0.940425
vn 0.110770 -0.326855 0.938561
vn 0.110770 -0.326855 0.938561
vn 0.110770 -0.326855 0.938561
vn 0.110770 -0.326855 0.938561
vn 0.299692 -0.228809 0.926192
vn 0.299692 -0.228809 0.926192
vn 0.299692 -0.228809 0.926192
vn 0.299692 -0.228809 0.926192
vn 0.405515 -0.063819 0.911858
vn 0.405515 -0.063819 0.911858
vn 0.405515 -0.063819 0.911858
vn 0.405515 -0.063819 0.911858
vn 0.419178 0.030093 0.907405
vn 0.419178 0.030093 0.907405
vn 0.419178 0.030093 0.907405
vn 0.419178 0.030093 0.907405
vn 0.405492 0.124161 0.905627
vn 0.405492 0.124161 0.905627
vn 0.405492 0.124161 0.905627
vn 0.405492 0.124161 0.905627
vn 0.299834 0.289580 0.908979
vn 0.299834 0.289580 0.908979
vn 0.299834 0.289580 0.908979
vn 0.299834 0.289580 0.908979
vn 0.110836 0.388326 0.914832
vn 0.110836 0.388326 0.914832
vn 0.110836 0.388326 0.914832
vn 0.110836 0.388326 0.914832
vn -0.000012 -0.999451 0.033139
vn -0.000012 -0.999451 0.033139
vn -0.000012 -0.999451 0.033139
vn -0.000012 -0.999451 0.033139
vn 0.295807 -0.954723 0.031661
vn 0.295807 -0.954723 0.031661
vn 0.295807 -0.954723 0.031661
vn 0.295807 -0.954723 0.031661
vn 0.756235 -0.653940 0.021692
vn 0.756235 -0.653940 0.021692
vn 0.756235 -0.653940 0.021692
vn 0.756235 -0.653940 0.021692
vn 0.974163 -0.225724 0.007495
vn 0.974162 -0.225724 0.007495
vn 0.974163 -0.225724 0.007495
vn 0.974163 -0.225724 0.007495
vn 1.000000 0.000000 0.000010
vn 1.000000 0.000000 0.000010
vn 1.000000 0.000000 0.000010
vn 1.000000 0.000000 0.000010
vn 0.974158 0.225742 -0.007477
vn 0.974158 0.225742 -0.007477
vn 0.974158 0.225742 -0.007477
vn 0.974158 0.225742 -0.007477
vn 0.756267 0.653904 -0.021675
vn 0.756267 0.653904 -0.021675
vn 0.756267 0.653904 -0.021675
vn 0.756267 0.653904 -0.021675
vn 0.295871 0.954703 -0.031655
vn 0.295871 0.954703 -0.031655
vn 0.295871 0.954703 -0.031655
vn 0.295871 0.954703 -0.031655
vn 0.000011 0.999451 -0.033145
vn 0.000011 0.999451 -0.033145
vn 0.000011 0.999451 -0.033145
vn 0.000011 0.999451 -0.033145
vn -0.295803 0.954724 -0.031663
vn -0.295803 0.954724 -0.031663
vn -0.295803 0.954724 -0.031663
vn -0.295803 0.954724 -0.031663
vn -0.756150 0.654039 -0.021694
vn -0.756150 0.654039 -0.021694
vn -0.756150 0.654039 -0.021694
vn -0.756150 0.654039 -0.021694
vn -0.974160 0.225733 -0.007495
vn -0.974160 0.225733 -0.007495
vn -0.974160 0.225733 -0.007495
vn -0.974160 0.225733 -0.007495
vn -1.000000 -0.000000 -0.000010
vn -1.000000 -0.000000 -0.000010
vn -1.000000 -0.000000 -0.000010
vn -1.000000 -0.000000 -0.000010
vn -0.974161 -0.225733 0.007476
vn -0.974161 -0.225733 0.007476
vn -0.974161 -0.225733 0.007476
vn -0.974160 -0.225733 0.007476
vn -0.756120 -0.654074 0.021683
vn -0.756120 -0.654074 0.021683
vn -0.756120 -0.654074 0.021683
vn -0.756120 -0.654074 0.021683
vn -0.295906 -0.954692 0.031657
vn -0.295906 -0.954692 0.031657
vn -0.295906 -0.954692 0.031657
vn -0.295906 -0.954692 0.031657
vn 0.865520 -0.016600 -0.500600
vn 0.865520 -0.016600 -0.500600
vn 0.865520 -0.016600 -0.500600
vn 0.865520 -0.016600 -0.500600
vn 0.843156 -0.211980 -0.494118
vn 0.843156 -0.211980 -0.494118
vn 0.843156 -0.211980 -0.494117
vn 0.843156 -0.211980 -0.494117
vn 0.654517 -0.582623 -0.481828
vn 0.654517 -0.582623 -0.481828
vn 0.654517 -0.582623 -0.481828
vn 0.654517 -0.582623 -0.481828
vn 0.256016 -0.842935 -0.473198
vn 0.256016 -0.842935 -0.473198
vn 0.256016 -0.842935 -0.473198
vn 0.256016 -0.842935 -0.473198
vn -0.000007 -0.881642 -0.471918
vn -0.000007 -0.881642 -0.471918
vn -0.000007 -0.881642 -0.471918
vn -0.000007 -0.881642 -0.471918
vn -0.256053 -0.842923 -0.473200
vn -0.256053 -0.842923 -0.473200
vn -0.256053 -0.842923 -0.473200
vn -0.256053 -0.842923 -0.473200
vn -0.654519 -0.582617 -0.481832
vn -0.654519 -0.582617 -0.481832
vn -0.654519 -0.582617 -0.481832
vn -0.654519 -0.582617 -0.481832
vn -0.843148 -0.211993 -0.494126
vn -0.843148 -0.211993 -0.494126
vn -0.843148 -0.211993 -0.494126
vn -0.843148 -0.211993 -0.494126
vn -0.865514 -0.016600 -0.500610
vn -0.865514 -0.016600 -0.500610
vn -0.865514 -0.016600 -0.500610
vn -0.865514 -0.016600 -0.500610
vn -0.843154 0.178765 -0.507084
vn -0.843154 0.178765 -0.507083
vn -0.843154 0.178765 -0.507083
vn -0.843154 0.178765 -0.507083
vn -0.654498 0.549438 -0.519375
vn -0.654498 0.549438 -0.519375
vn -0.654498 0.549438 -0.519375
vn -0.654498 0.549438 -0.519375
vn -0.256044 0.809715 -0.528018
vn -0.256044 0.809715 -0.528018
vn -0.256044 0.809715 -0.528018
vn -0.256044 0.809715 -0.528018
vn 0.000012 0.848438 -0.529295
vn 0.000012 0.848438 -0.529295
vn 0.000012 0.848438 -0.529295
vn 0.000012 0.848438 -0.529295
vn 0.256089 0.809709 -0.528005
vn 0.256089 0.809709 -0.528005
vn 0.256089 0.809709 -0.528005
vn 0.256089 0.809709 -0.528005
vn 0.654506 0.549423 -0.519380
vn 0.654506 0.549423 -0.519380
vn 0.654506 0.549423 -0.519380
vn 0.654506 0.549423 -0.519381
vn 0.843161 0.178760 -0.507075
vn 0.843161 0.178760 -0.507075
vn 0.843161 0.178760 -0.507075
vn 0.843161 0.178760 -0.507075
f 1/1/1 2/2/2 3/3/3
f 1/1/1 3/3/3 4/4/4
f 2/2/2 5/5/5 6/6/6
f 2/2/2 6/6/6 3/3/3
f 5/5/5 7/7/7 8/8/8
f 5/5/5 8/8/8 6/6/6
f 7/7/7 9/9/9 10/10/10
f 7/7/7 10/10/10 8/8/8
f 9/9/9 11/11/11 12/12/12
f 9/9/9 12/12/12 10/10/10
f 11/11/11 13/13/13 14/14/14
f 11/11/11 14/14/14 12/12/12
f 13/13/13 15/15/15 16/16/16
f 13/13/13 16/16/16 14/14/14
f 15/15/15 17/17/17 18/18/18
f 15/15/15 18/18/18 16/16/16
f 19/19/19 20/20/20 21/21/21
f 19/19/19 21/21/21 22/22/22
f 20/20/20 23/23/23 24/24/24
f 20/20/20 24/24/24 21/21/21
f 23/23/23 25/25/25 26/26/26
f 23/23/23 26/26/26 24/24/24
f 25/25/25 1/1/1 4/4/4
f 25/25/25 4/4/4 26/26/26
f 27/27/27 28/28/28 29/29/29
f 27/27/27 29/29/29 30/30/30
f 28/28/28 31/31/31 32/32/32
f 28/28/28 32/32/32 29/29/29
f 31/31/31 33/33/33 34/34/34
f 31/31/31 34/34/34 32/32/32
f 33/33/33 35/35/35 36/36/36
f 33/33/33 36/36/36 34/34/34
f 35/35/35 37/37/37 38/38/38
f 35/35/35 38/38/38 36/36/36
f 37/37/37 39/39/39 40/40/40
f 37/37/37 40/40/40 38/38/38
f 39/39/39 41/41/41 42/42/42
f 39/39/39 42/42/42 40/40/40
f 41/41/41 43/43/43 44/44/44
f 41/41/41 44/44/44 42/42/42
f 45/45/45 46/46/46 47/47/47
f 45/45/45 47/47/47 48/48/48
f 46/46/46 49/49/49 50/50/50
f 46/46/46 50/50/50 47/47/47
f 49/49/49 51/51/51 52/52/52
f 49/49/49 52/52/52 50/50/50
f 51/51/51 27/27/27 30/30/30
f 51/51/51 30/30/30 52/52/52
f 53/53/53 54/54/54 55/55/55
f 53/53/53 55/55/55 56/56/56
f 54/54/54 57/57/57 58/58/58
f 54/54/54 58/58/58 55/55/55
f 57/57/57 59/59/59 60/60/60
f 57/57/57 60/60/60 58/58/58
f 59/59/59 61/61/61 62/62/62
f 59/59/59 62/62/62 60/60/60
f 61/61/61 63/63/63 64/64/64
f 61/61/61 64/64/64 62/62/62
f 63/63/63 65/65/65 66/66/66
f 63/63/63 66/66/66 64/64/64
f 65/65/65 67/67/67 68/68/68
f 65/65/65 68/68/68 66/66/66
f 67/67/67 69/69/69 70/70/70
f 67/67/67 70/70/70 68/68/68
f 71/71/71 72/72/72 73/73/73
f 71/71/71 73/73/73 74/74/74
f 72/72/72 75/75/75 76/76/76
f 72/72/72 76/76/76 73/73/73
f 75/75/75 77/77/77 78/78/78
f 75/75/75 78/78/78 76/76/76
f 77/77/77 53/53/53 56/56/56
f 77/77/77 56/56/56 78/78/78
f 79/79/79 80/80/80 81/81/81
f 79/79/79 81/81/81 82/82/82
f 83/83/83 84/84/84 85/85/85
f 83/83/83 85/85/85 86/86/86
f 87/87/87 88/88/88 89/89/89
f 87/87/87 89/89/89 90/90/90
f 91/91/91 92/92/92 93/93/93
f 91/91/91 93/93/93 94/94/94
f 95/95/95 96/96/96 97/97/97
f 95/95/95 97/97/97 98/98/98
f 99/99/99 100/100/100 101/101/101
f 99/99/99 101/101/101 102/102/102
f 103/103/103 104/104/104 105/105/105
f 103/103/103 105/105/105 106/106/106
f 107/107/107 108/108/108 109/109/109
f 107/107/107 109/109/109 110/110/110
f 111/111/111 112/112/112 113/113/113
f 111/111/111 113/113/113 114/114/114
f 115/115/115 116/116/116 117/117/117
f 115/115/115 117/117/117 118/118/118
f 119/119/119 120/120/120 121/121/121
f 119/119/119 121/121/121 122/122/122
f 123/123/123 124/124/124 125/125/125
f 123/123/123 125/125/125 126/126/126
f 127/127/127 128/128/128 129/129/129
f 127/127/127 129/129/129 130/130/130
f 131/131/131 132/132/132 133/133/133
f 131/131/131 133/133/133 134/134/134
f 135/135/135 136/136/136 137/137/137
f 135/135/135 137/137/137 138/138/138
f 139/139/139 140/140/140 141/141/141
f 139/139/139 141/141/141 142/142/142
f 157/157/157 158/158/158 143/143/143
f 143/143/143 144/144/144 145/145/145
f 145/145/145 146/146/146 147/147/147
f 147/147/147 148/148/148 149/149/149
f 149/149/149 150/150/150 151/151/151
f 151/151/151 152/152/152 153/153/153
f 153/153/153 154/154/154 155/155/155
f 155/155/155 156/156/156 157/157/157
f 157/157/157 143/143/143 145/145/145
f 145/145/145 147/147/147 149/149/149
f 149/149/149 151/151/151 153/153/153
f 153/153/153 155/155/155 157/157/157
f 157/157/157 145/145/145 149/149/149
f 149/149/149 153/153/153 157/157/157
f 173/173/173 174/174/174 159/159/159
f 159/159/159 160/160/160 161/161/161
f 161/161/161 162/162/162 163/163/163
f 163/163/163 164/164/164 165/165/165
f 165/165/165 166/166/166 167/167/167
f 167/167/167 168/168/168 169/169/169
f 169/169/169 170/170/170 171/171/171
f 171/171/171 172/172/172 173/173/173
f 173/173/173 159/159/159 161/161/161
f 161/161/161 163/163/163 165/165/165
f 165/165/165 167/167/167 169/169/169
f 169/169/169 171/171/171 173/173/173
f 173/173/173 161/161/161 165/165/165
f 165/165/165 169/169/169 173/173/173
f 175/175/175 176/176/176 177/177/177
f 175/175/175 177/177/177 178/178/178
f 179/179/179 180/180/180 181/181/181
f 179/179/179 181/181/181 182/182/182
f 183/183/183 184/184/184 185/185/185
f 183/183/183 185/185/185 186/186/186
f 187/187/187 188/188/188 189/189/189
f 187/187/187 189/189/189 190/190/190
f 191/191/191 192/192/192 193/193/193
f 191/191/191 193/193/193 194/194/194
f 195/195/195 196/196/196 197/197/197
f 195/195/195 197/197/197 198/198/198
f 199/199/199 200/200/200 201/201/201
f 199/199/199 201/201/201 202/202/202
f 203/203/203 204/204/204 205/205/205
f 203/203/203 205/205/205 206/206/206
f 207/207/207 208/208/208 209/209/209
f 207/207/207 209/209/209 210/210/210
f 211/211/211 212/212/212 213/213/213
f 211/211/211 213/213/213 214/214/214
f 215/215/215 216/216/216 217/217/217
f 215/215/215 217/217/217 218/218/218
f 219/219/219 220/220/220 221/221/221
f 219/219/219 221/221/221 222/222/222
f 223/223/223 224/224/224 225/225/225
f 223/223/223 225/225/225 226/226/226
f 227/227/227 228/228/228 229/229/229
f 227/227/227 229/229/229 230/230/230
f 231/231/231 232/232/232 233/233/233
f 231/231/231 233/233/233 234/234/234
f 235/235/235 236/236/236 237/237/237
f 235/235/235 237/237/237 238/238/238
f 239/239/239 240/240/240 241/241/241
f 239/239/239 241/241/241 242/242/242
f 243/243/243 244/244/244 245/245/245
f 243/243/243 245/245/245 246/246/246
f 247/247/247 248/248/248 249/249/249
f 247/247/247 249/249/249 250/250/250
f 251/251/251 252/252/252 253/253/253
f 251/251/251 253/253/253 254/254/254
f 255/255/255 256/256/256 257/257/257
f 255/255/255 257/257/257 258/258/258
f 259/259/259 260/260/260 261/261/261
f 259/259/259 261/261/261 262/262/262
f 263/263/263 264/264/264 265/265/265
f 263/263/263 265/265/265 266/266/266
f 267/267/267 268/268/268 269/269/269
f 267/267/267 269/269/269 270/270/270
f 271/271/271 272/272/272 273/273/273
f 271/271/271 273/273/273 274/274/274
f 275/275/275 276/276/276 277/277/277
f 275/275/275 277/277/277 278/278/278
f 279/279/279 280/280/280 281/281/281
f 279/279/279 281/281/281 282/282/282
f 283/283/283 284/284/284 285/285/285
f 283/283/283 285/285/285 286/286/286
f 287/287/287 288/288/288 289/289/289
f 287/287/287 289/289/289 290/290/290
f 291/291/291 292/292/292 293/293/293
f 291/291/291 293/293/293 294/294/294
f 295/295/295 296/296/296 297/297/297
f 295/295/295 297/297/297 298/298/298
f 299/299/299 300/300/300 301/301/301
f 299/299/299 301/301/301 302/302/302
f 303/303/303 304/304/304 305/305/305
f 303/303/303 305/305/305 306/306/306
f 307/307/307 308/308/308 309/309/309
f 307/307/307 309/309/309 310/310/310
f 311/311/311 312/312/312 313/313/313
f 311/311/311 313/313/313 314/314/314
f 315/315/315 316/316/316 317/317/317
f 315/315/315 317/317/317 318/318/318
f 319/319/319 320/320/320 321/321/321
f 319/319/319 321/321/321 322/322/322
f 323/323/323 324/324/324 325/325/325
f 323/323/323 325/325/325 326/326/326
f 327/327/327 328/328/328 329/329/329
f 327/327/327 329/329/329 330/330/330
f 331/331/331 332/332/332 333/333/333
f 331/331/331 333/333/333 334/334/334
f 335/335/335 336/336/336 337/337/337
f 335/335/335 337/337/337 338/338/338
f 339/339/339 340/340/340 341/341/341
f 339/339/339 341/341/341 342/342/342
f 343/343/343 344/344/344 345/345/345
f 343/343/343 345/345/345 346/346/346
f 347/347/347 348/348/348 349/349/349
f 347/347/347 349/349/349 350/350/350
f 351/351/351 352/352/352 353/353/353
f 351/351/351 353/353/353 354/354/354
f 355/355/355 356/356/356 357/357/357
f 355/355/355 357/357/357 358/358/358
f 359/359/359 360/360/360 361/361/361
f 359/359/359 361/361/361 362/362/362
f 363/363/363 364/364/364 365/365/365
f 363/363/363 365/365/365 366/366/366
f 367/367/367 368/368/368 369/369/369
f 367/367/367 369/369/369 370/370/370
f 371/371/371 372/372/372 373/373/373
f 371/371/371 373/373/373 374/374/374
f 375/375/375 376/376/376 377/377/377
f 375/375/375 377/377/377 378/378/378
f 379/379/379 380/380/380 381/381/381
f 379/379/379 381/381/381 382/382/382
f 383/383/383 384/384/384 385/385/385
f 383/383/383 385/385/385 386/386/386
f 387/387/387 388/388/388 389/389/389
f 387/387/387 389/389/389 390/390/390
f 391/391/391 392/392/392 393/393/393
f 391/391/391 393/393/393 394/394/394
f 395/395/395 396/396/396 397/397/397
f 395/395/395 397/397/397 398/398/398
f 399/399/399 400/400/400 401/401/401
f 399/399/399 401/401/401 402/402/402
f 403/403/403 404/404/404 405/405/405
f 403/403/403 405/405/405 406/406/406
f 407/407/407 408/408/408 409/409/409
f 407/407/407 409/409/409 410/410/410
f 411/411/411 412/412/412 413/413/413
f 411/411/411 413/413/413 414/414/414
f 415/415/415 416/416/416 417/417/417
f 415/415/415 417/417/417 418/418/418
f 419/419/419 420/420/420 421/421/421
f 419/419/419 421/421/421 422/422/422
f 423/423/423 424/424/424 425/425/425
f 423/423/423 425/425/425 426/426/426
f 427/427/427 428/428/428 429/429/429
f 427/427/427 429/429/429 430/430/430
