# Exported from tank-game Tank_002.fbx mesh Tracks
v -1.273007 1.687500 2.030688
v -1.273007 1.938463 1.710013
v -1.259822 1.950830 1.715605
v -1.259822 1.696182 2.040988
v -1.259822 1.419155 2.190156
v -1.273007 1.415623 2.177083
v -1.273007 1.687500 2.030688
v -1.273007 1.938463 1.710013
v -1.273007 2.001204 1.375395
v -1.259822 2.014641 1.375278
v -1.273007 2.001204 1.375395
v -1.273007 1.865022 0.713094
v -1.259822 1.877995 0.710719
v -1.273007 1.865022 0.713094
v -1.273007 1.770789 0.126822
v -1.259822 1.783905 0.125344
v -1.259822 1.635652 -2.121582
v -1.259822 1.727579 -1.166723
v -1.273007 1.714415 -1.165867
v -1.273007 1.622518 -2.120427
v -1.273007 1.622518 -2.120427
v -1.273007 1.578416 -2.674876
v -1.259822 1.591215 -2.680256
v -1.273007 1.578416 -2.674876
v -1.273007 1.390194 -2.890984
v -1.259822 1.398232 -2.901829
v -1.273007 1.390194 -2.890984
v -1.273007 1.188029 -2.981609
v -1.259822 1.190699 -2.994861
v -1.273007 1.188029 -2.981609
v -1.273007 0.895238 -2.974638
v -1.259822 0.892133 -2.987753
v -1.273007 0.895238 -2.974638
v -1.273007 0.644274 -2.856127
v -1.259822 0.636247 -2.866918
v -1.273007 0.644274 -2.856127
v -1.273007 0.456052 -2.646991
v -1.259822 0.444255 -2.653593
v -1.259822 0.636247 -2.866918
v -1.273007 0.456052 -2.646991
v -1.273007 0.383884 -2.402999
v -1.259822 0.370699 -2.404908
v -1.273007 0.383884 -2.402999
v -1.273007 0.383884 1.389337
v -1.259822 0.370699 1.390577
v -1.273007 0.383884 1.389337
v -1.273007 0.460568 1.793667
v -1.259822 0.448285 1.799664
v -1.273007 0.460568 1.793667
v -1.273007 0.662733 2.023717
v -1.259822 0.654567 2.034399
v -1.273007 0.662733 2.023717
v -1.273007 1.004322 2.191026
v -1.259822 1.001478 2.204315
v -1.273007 1.004322 2.191026
v -1.273007 1.415623 2.177083
v -2.327391 1.687500 2.030688
v -2.327391 1.415623 2.177083
v -2.340576 1.419155 2.190156
v -2.340576 1.696182 2.040988
v -2.340576 1.950830 1.715605
v -2.327391 1.938463 1.710013
v -2.327391 1.687500 2.030688
v -2.340576 2.014641 1.375278
v -2.327391 2.001204 1.375395
v -2.327391 1.938463 1.710013
v -2.340576 1.877995 0.710719
v -2.327391 1.865022 0.713094
v -2.327391 2.001204 1.375395
v -2.340576 1.783905 0.125344
v -2.327391 1.770789 0.126822
v -2.327391 1.865022 0.713094
v -2.327391 1.622518 -2.120427
v -2.327391 1.714415 -1.165867
v -2.340576 1.727579 -1.166723
v -2.340576 1.635652 -2.121582
v -2.340576 1.591215 -2.680256
v -2.327391 1.578416 -2.674876
v -2.327391 1.622518 -2.120427
v -2.340576 1.398232 -2.901829
v -2.327391 1.390194 -2.890984
v -2.327391 1.578416 -2.674876
v -2.340576 1.190699 -2.994861
v -2.327391 1.188029 -2.981609
v -2.327391 1.390194 -2.890984
v -2.340576 0.892133 -2.987753
v -2.327391 0.895238 -2.974638
v -2.327391 1.188029 -2.981609
v -2.340576 0.636247 -2.866918
v -2.327391 0.644274 -2.856127
v -2.327391 0.895238 -2.974638
v -2.340576 0.636247 -2.866918
v -2.340576 0.444255 -2.653593
v -2.327391 0.456052 -2.646991
v -2.327391 0.644274 -2.856127
v -2.340576 0.370699 -2.404908
v -2.327391 0.383884 -2.402999
v -2.327391 0.456052 -2.646991
v -2.340576 0.370699 1.390577
v -2.327391 0.383884 1.389337
v -2.327391 0.383884 -2.402999
v -2.340576 0.448285 1.799664
v -2.327391 0.460568 1.793667
v -2.327391 0.383884 1.389337
v -2.340576 0.654567 2.034399
v -2.327391 0.662733 2.023717
v -2.327391 0.460568 1.793667
v -2.340576 1.001478 2.204315
v -2.327391 1.004322 2.191026
v -2.327391 0.662733 2.023717
v -2.327391 1.415623 2.177083
v -2.327391 1.004322 2.191026
v -2.340576 1.745368 2.099346
v -2.340576 1.438919 2.263180
v -2.327391 1.442421 2.276258
v -2.327391 1.754057 2.109652
v -2.327391 2.031861 1.752249
v -2.340576 2.019532 1.746626
v -2.327391 2.105517 1.379548
v -2.340576 2.092068 1.379593
v -1.273007 1.754057 2.109652
v -1.273007 1.442421 2.276258
v -1.259822 1.438919 2.263180
v -1.259822 1.745368 2.099346
v -1.259822 2.019532 1.746626
v -1.273007 2.031861 1.752249
v -1.259822 2.092068 1.379593
v -1.273007 2.105517 1.379548
v -2.327391 1.969464 0.714819
v -2.340576 1.956490 0.717183
v -1.259822 1.956490 0.717183
v -1.273007 1.969464 0.714819
v -2.327391 1.875345 0.126398
v -2.340576 1.862228 0.127866
v -1.259822 1.862228 0.127866
v -1.273007 1.875345 0.126398
v -2.340576 1.714446 -2.128883
v -2.340576 1.806085 -1.170632
v -2.327391 1.819249 -1.171482
v -2.327391 1.727570 -2.130149
v -2.327391 1.670790 -2.713677
v -2.340576 1.658064 -2.708316
v -2.327391 1.451556 -2.973772
v -2.340576 1.443419 -2.962967
v -1.273007 1.727570 -2.130149
v -1.273007 1.819249 -1.171482
v -1.259822 1.806085 -1.170632
v -1.259822 1.714446 -2.128883
v -1.259822 1.658064 -2.708316
v -1.273007 1.670790 -2.713677
v -1.259822 1.443419 -2.962967
v -1.273007 1.451556 -2.973772
v -2.327391 1.208353 -3.082489
v -2.340576 1.205679 -3.069243
v -1.259822 1.205679 -3.069243
v -1.273007 1.208353 -3.082489
v -2.327391 0.871455 -3.075083
v -2.340576 0.874540 -3.061963
v -1.259822 0.874540 -3.061963
v -1.273007 0.871455 -3.075083
v -2.327391 0.582535 -2.939123
v -2.340576 0.590575 -2.928335
v -1.259822 0.590575 -2.928335
v -1.273007 0.582535 -2.939123
v -2.327391 0.582535 -2.939123
v -2.327391 0.366250 -2.697246
v -2.340576 0.378006 -2.690613
v -2.340576 0.590575 -2.928335
v -1.259822 0.590575 -2.928335
v -1.259822 0.378006 -2.690613
v -1.273007 0.366250 -2.697246
v -1.273007 0.582535 -2.939123
v -2.327391 0.280540 -2.417962
v -2.340576 0.293724 -2.415982
v -1.259822 0.293724 -2.415982
v -1.273007 0.280540 -2.417962
v -2.327391 0.279297 1.399167
v -2.340576 0.292482 1.397835
v -1.259822 0.292482 1.397835
v -1.273007 0.279297 1.399167
v -2.327391 0.369108 1.838322
v -2.340576 0.381337 1.832313
v -1.259822 0.381337 1.832313
v -1.273007 0.369108 1.838322
v -2.327391 0.599899 2.105920
v -2.340576 0.608099 2.095239
v -1.259822 0.608099 2.095239
v -1.273007 0.599899 2.105920
v -2.327391 0.982904 2.291129
v -2.340576 0.985721 2.277846
v -1.259822 0.985721 2.277846
v -1.273007 0.982904 2.291129
v -2.327391 1.849176 -0.280183
v -2.340576 1.836006 -0.279538
v -1.259822 1.836006 -0.279538
v -1.273007 1.849176 -0.280183
v -1.273007 1.770789 0.126822
v -1.273007 1.744474 -0.277042
v -1.259822 1.757645 -0.277693
v -1.273007 1.744474 -0.277042
v -1.273007 1.714415 -1.165867
v -2.340576 1.757645 -0.277693
v -2.327391 1.744474 -0.277042
v -2.327391 1.770789 0.126822
v -2.327391 1.714415 -1.165867
v -2.327391 1.744474 -0.277042
v -1.273007 1.687500 2.030688
v -2.327391 1.687500 2.030688
v -2.327391 1.938463 1.710013
v -1.273007 1.938463 1.710013
v -2.327391 2.001204 1.375395
v -1.273007 2.001204 1.375395
v -2.327391 1.865022 0.713094
v -1.273007 1.865022 0.713094
v -1.273007 1.622518 -2.120427
v -2.327391 1.622518 -2.120427
v -2.327391 1.578416 -2.674876
v -1.273007 1.578416 -2.674876
v -2.327391 1.390194 -2.890984
v -1.273007 1.390194 -2.890984
v -1.273007 1.390194 -2.890984
v -2.327391 1.390194 -2.890984
v -2.327391 1.188029 -2.981609
v -1.273007 1.188029 -2.981609
v -2.327391 0.895238 -2.974638
v -1.273007 0.895238 -2.974638
v -2.327391 0.644274 -2.856127
v -1.273007 0.644274 -2.856127
v -2.327391 0.456052 -2.646991
v -1.273007 0.456052 -2.646991
v -2.327391 0.383884 -2.402999
v -1.273007 0.383884 -2.402999
v -2.327391 0.383884 1.389337
v -1.273007 0.383884 1.389337
v -2.327391 0.460568 1.793667
v -1.273007 0.460568 1.793667
v -2.327391 0.662733 2.023717
v -1.273007 0.662733 2.023717
v -2.327391 1.004322 2.191026
v -1.273007 1.004322 2.191026
v -2.327391 1.415623 2.177083
v -1.273007 1.415623 2.177083
v -2.327391 1.770789 0.126822
v -2.327391 1.744474 -0.277042
v -1.273007 1.744474 -0.277042
v -1.273007 1.770789 0.126822
v -2.327391 1.714415 -1.165867
v -1.273007 1.714415 -1.165867
vt 0.125850 0.467703
vt 0.125619 0.431876
vt 0.127144 0.431471
vt 0.127390 0.468092
vt 0.127852 0.497068
vt 0.126320 0.496694
vt 0.125857 0.468527
vt 0.125611 0.431062
vt 0.125067 0.400188
vt 0.126600 0.399801
vt 0.125069 0.399424
vt 0.124071 0.342918
vt 0.125607 0.342813
vt 0.124087 0.342622
vt 0.123498 0.294036
vt 0.125036 0.293983
vt 0.121115 0.092112
vt 0.124137 0.185515
vt 0.122607 0.185310
vt 0.119579 0.092203
vt 0.121715 0.091619
vt 0.139262 0.078275
vt 0.139899 0.077914
vt 0.140464 0.077324
vt 0.147625 0.068090
vt 0.148942 0.068907
vt 0.149556 0.068378
vt 0.156203 0.062925
vt 0.156974 0.062822
vt 0.157543 0.062220
vt 0.164653 0.052663
vt 0.165985 0.053406
vt 0.164559 0.052557
vt 0.154715 0.028771
vt 0.156118 0.028401
vt 0.152301 1.000000
vt 0.145940 0.975962
vt 0.147213 0.974930
vt 0.153793 0.999697
vt 0.145702 0.974973
vt 0.142209 0.950551
vt 0.143622 0.949735
vt 0.142085 0.949734
vt 0.126813 0.636131
vt 0.128298 0.635649
vt 0.126763 0.635419
vt 0.127305 0.598375
vt 0.128836 0.597896
vt 0.127304 0.597518
vt 0.126819 0.569391
vt 0.128348 0.568922
vt 0.126808 0.568582
vt 0.126740 0.534706
vt 0.128264 0.534249
vt 0.126721 0.533865
vt 0.126331 0.497510
vt 0.231372 0.467348
vt 0.231550 0.495460
vt 0.230027 0.495873
vt 0.229830 0.466954
vt 0.229140 0.430223
vt 0.230674 0.430583
vt 0.231359 0.466521
vt 0.228900 0.398671
vt 0.230442 0.399017
vt 0.230662 0.429774
vt 0.228470 0.342016
vt 0.230008 0.342074
vt 0.230420 0.398249
vt 0.228124 0.293888
vt 0.229662 0.293901
vt 0.229984 0.341782
vt 0.244318 0.115340
vt 0.230914 0.189969
vt 0.229378 0.190169
vt 0.242788 0.115214
vt 0.226106 0.099228
vt 0.226536 0.099579
vt 0.242230 0.114653
vt 0.241870 0.074001
vt 0.243125 0.074802
vt 0.227868 0.099180
vt 0.247106 0.052192
vt 0.248546 0.052637
vt 0.243493 0.073592
vt 0.244961 0.024388
vt 0.246495 0.024427
vt 0.248552 0.051422
vt 0.237047 0.000372
vt 0.238528 0.000000
vt 0.246184 0.023312
vt 0.244462 0.978107
vt 0.236424 0.950337
vt 0.238068 0.950732
vt 0.245895 0.977715
vt 0.247024 0.945633
vt 0.246321 0.945976
vt 0.237189 0.950232
vt 0.231922 0.632688
vt 0.233449 0.633020
vt 0.248552 0.945469
vt 0.230947 0.596240
vt 0.232484 0.596706
vt 0.233456 0.632468
vt 0.231030 0.567604
vt 0.232566 0.568049
vt 0.232474 0.595848
vt 0.230365 0.532956
vt 0.231899 0.533372
vt 0.232562 0.567227
vt 0.231568 0.496288
vt 0.231889 0.532547
vt 0.223833 0.467144
vt 0.223979 0.495758
vt 0.222444 0.495754
vt 0.222301 0.467184
vt 0.221469 0.430243
vt 0.223006 0.430232
vt 0.221218 0.399504
vt 0.222744 0.399441
vt 0.134926 0.468156
vt 0.135431 0.496830
vt 0.133893 0.496876
vt 0.133392 0.468150
vt 0.133277 0.431408
vt 0.134815 0.431404
vt 0.132775 0.400466
vt 0.134302 0.400503
vt 0.220670 0.343908
vt 0.222216 0.343867
vt 0.131900 0.344607
vt 0.133446 0.344632
vt 0.220197 0.295061
vt 0.221742 0.295040
vt 0.131429 0.295116
vt 0.132972 0.295132
vt 0.234416 0.118743
vt 0.222794 0.190133
vt 0.221227 0.190080
vt 0.232472 0.119428
vt 0.222963 0.093416
vt 0.223670 0.094547
vt 0.235166 0.072418
vt 0.236633 0.072690
vt 0.129973 0.099897
vt 0.132264 0.185756
vt 0.130708 0.185754
vt 0.128234 0.098523
vt 0.144416 0.081255
vt 0.145626 0.082107
vt 0.154621 0.070722
vt 0.156096 0.070996
vt 0.239671 0.052815
vt 0.241116 0.052662
vt 0.162068 0.062387
vt 0.163565 0.062357
vt 0.237937 0.026297
vt 0.239347 0.025918
vt 0.168618 0.051349
vt 0.169441 0.050064
vt 0.229590 0.001459
vt 0.231087 0.001201
vt 0.160947 0.026128
vt 0.162292 0.025695
vt 0.237875 0.981444
vt 0.232136 0.956823
vt 0.232950 0.955302
vt 0.239320 0.980796
vt 0.159754 0.999170
vt 0.153155 0.973437
vt 0.154616 0.973094
vt 0.161270 0.999037
vt 0.238930 0.943818
vt 0.240531 0.944064
vt 0.149935 0.949698
vt 0.151464 0.949634
vt 0.223908 0.632201
vt 0.225456 0.632258
vt 0.134696 0.634731
vt 0.136228 0.634538
vt 0.223380 0.596049
vt 0.224915 0.596074
vt 0.134874 0.597729
vt 0.136411 0.597707
vt 0.223469 0.567679
vt 0.225007 0.567667
vt 0.134374 0.568882
vt 0.135913 0.568867
vt 0.222739 0.533098
vt 0.224273 0.533078
vt 0.134361 0.534320
vt 0.135891 0.534299
vt 0.220084 0.261793
vt 0.221624 0.261810
vt 0.131328 0.261099
vt 0.132866 0.261088
vt 0.123508 0.293775
vt 0.123335 0.260858
vt 0.124859 0.260810
vt 0.123337 0.260568
vt 0.122606 0.185593
vt 0.228102 0.261507
vt 0.229626 0.261532
vt 0.229648 0.293652
vt 0.230908 0.190210
vt 0.229617 0.261227
vt 0.419045 0.591548
vt 0.334822 0.591548
vt 0.334822 0.624075
vt 0.419045 0.624075
vt 0.334822 0.651269
vt 0.419045 0.651269
vt 0.334822 0.705280
vt 0.419045 0.705280
vt 0.419045 0.932680
vt 0.334822 0.932680
vt 0.334822 0.977108
vt 0.419045 0.977108
vt 0.334822 1.000000
vt 0.419045 1.000000
vt 0.419045 0.037304
vt 0.334822 0.037304
vt 0.334822 0.055001
vt 0.419045 0.055001
vt 0.334822 0.078395
vt 0.419045 0.078395
vt 0.334822 0.100565
vt 0.419045 0.100565
vt 0.334822 0.123040
vt 0.419045 0.123040
vt 0.334822 0.143364
vt 0.419045 0.143364
vt 0.334822 0.446290
vt 0.419045 0.446290
vt 0.334822 0.479163
vt 0.419045 0.479163
vt 0.334822 0.503627
vt 0.419045 0.503627
vt 0.334822 0.534009
vt 0.419045 0.534009
vt 0.334822 0.566882
vt 0.419045 0.566882
vt 0.334822 0.752711
vt 0.334822 0.785040
vt 0.419045 0.785040
vt 0.419045 0.752711
vt 0.334822 0.856078
vt 0.419045 0.856078
vn 0.013888 -0.666147 -0.745691
vn 0.014181 -0.901882 -0.431750
vn 0.993762 -0.100598 -0.048141
vn 0.993260 -0.077199 -0.086454
vn 0.993573 -0.025884 -0.110190
vn 0.014099 -0.228465 -0.973450
vn 0.013888 -0.666147 -0.745691
vn 0.014181 -0.901882 -0.431750
vn 0.013702 -0.997204 0.073454
vn 0.992928 -0.118406 0.008652
vn 0.013702 -0.997204 0.073454
vn 0.012240 -0.983321 0.181465
vn 0.988651 -0.147733 0.027267
vn 0.012240 -0.983321 0.181465
vn 0.012093 -0.992597 0.120847
vn 0.988366 -0.150980 0.018382
vn 0.989523 -0.143790 0.012957
vn 0.990456 -0.137527 0.009099
vn 0.012528 -0.997740 0.066010
vn 0.012322 -0.995888 0.089754
vn 0.012322 -0.995888 0.089754
vn 0.014890 -0.957318 0.288652
vn 0.994600 -0.099324 0.030086
vn 0.014890 -0.957318 0.288652
vn 0.014040 -0.617760 0.786241
vn 0.993507 -0.070282 0.089463
vn 0.014040 -0.617760 0.786241
vn 0.014072 -0.166639 0.985918
vn 0.993742 -0.018657 0.110133
vn 0.014072 -0.166639 0.985918
vn 0.013935 0.224838 0.974297
vn 0.993493 0.025609 0.110972
vn 0.013935 0.224838 0.974297
vn 0.013847 0.597905 0.801447
vn 0.993364 0.068777 0.092185
vn 0.013847 0.597905 0.801447
vn 0.014058 0.866952 0.498194
vn 0.993764 0.096674 0.055559
vn 0.993364 0.068777 0.092185
vn 0.014058 0.866952 0.498194
vn 0.013186 0.999753 0.017877
vn 0.992123 0.125249 0.002259
vn 0.013186 0.999753 0.017877
vn 0.012896 0.999750 -0.018269
vn 0.991317 0.131468 -0.002414
vn 0.012896 0.999750 -0.018269
vn 0.014434 0.915365 -0.402367
vn 0.994155 0.098810 -0.043500
vn 0.014434 0.915365 -0.402367
vn 0.013820 0.589963 -0.807312
vn 0.993114 0.069142 -0.094570
vn 0.013820 0.589963 -0.807312
vn 0.014232 0.199584 -0.979777
vn 0.993743 0.022294 -0.109441
vn 0.014232 0.199584 -0.979777
vn 0.014099 -0.228465 -0.973450
vn -0.013888 -0.666147 -0.745691
vn -0.014099 -0.228465 -0.973450
vn -0.993574 -0.025883 -0.110188
vn -0.993260 -0.077198 -0.086453
vn -0.993762 -0.100597 -0.048140
vn -0.014181 -0.901882 -0.431750
vn -0.013888 -0.666147 -0.745691
vn -0.992928 -0.118404 0.008652
vn -0.013702 -0.997204 0.073454
vn -0.014181 -0.901882 -0.431750
vn -0.988652 -0.147731 0.027267
vn -0.012240 -0.983321 0.181465
vn -0.013702 -0.997204 0.073454
vn -0.988366 -0.150976 0.018382
vn -0.012093 -0.992597 0.120847
vn -0.012240 -0.983321 0.181465
vn -0.012322 -0.995888 0.089754
vn -0.012528 -0.997740 0.066010
vn -0.990456 -0.137525 0.009099
vn -0.989524 -0.143789 0.012957
vn -0.994600 -0.099323 0.030085
vn -0.014890 -0.957318 0.288652
vn -0.012322 -0.995888 0.089754
vn -0.993507 -0.070283 0.089461
vn -0.014040 -0.617760 0.786241
vn -0.014890 -0.957318 0.288652
vn -0.993742 -0.018656 0.110131
vn -0.014072 -0.166639 0.985917
vn -0.014040 -0.617760 0.786241
vn -0.993494 0.025608 0.110970
vn -0.013935 0.224838 0.974297
vn -0.014072 -0.166639 0.985917
vn -0.993364 0.068775 0.092184
vn -0.013847 0.597905 0.801447
vn -0.013935 0.224838 0.974297
vn -0.993364 0.068775 0.092184
vn -0.993765 0.096672 0.055559
vn -0.014058 0.866951 0.498194
vn -0.013847 0.597905 0.801447
vn -0.992123 0.125246 0.002259
vn -0.013186 0.999753 0.017877
vn -0.014058 0.866951 0.498194
vn -0.991318 0.131464 -0.002414
vn -0.012896 0.999750 -0.018269
vn -0.013186 0.999753 0.017877
vn -0.994155 0.098808 -0.043499
vn -0.014434 0.915365 -0.402367
vn -0.012896 0.999750 -0.018269
vn -0.993114 0.069142 -0.094568
vn -0.013820 0.589963 -0.807312
vn -0.014434 0.915365 -0.402367
vn -0.993743 0.022294 -0.109439
vn -0.014232 0.199584 -0.979777
vn -0.013820 0.589963 -0.807312
vn -0.014099 -0.228465 -0.973450
vn -0.014232 0.199584 -0.979777
vn -0.982933 0.122254 0.137468
vn -0.982277 0.042907 0.182460
vn -0.011286 0.229058 0.973347
vn -0.011353 0.664368 0.747320
vn -0.011283 0.900978 0.433718
vn -0.982660 0.167058 0.080445
vn -0.011415 0.998131 -0.060039
vn -0.984097 0.177304 -0.010761
vn 0.011353 0.664368 0.747320
vn 0.011286 0.229058 0.973347
vn 0.982276 0.042908 0.182463
vn 0.982932 0.122255 0.137470
vn 0.982659 0.167060 0.080446
vn 0.011283 0.900978 0.433718
vn 0.984096 0.177308 -0.010761
vn 0.011415 0.998131 -0.060039
vn -0.012464 0.983471 -0.180638
vn -0.989795 0.140156 -0.025739
vn 0.989794 0.140160 -0.025740
vn 0.012464 0.983471 -0.180638
vn -0.012633 0.992692 -0.120009
vn -0.990635 0.135551 -0.016386
vn 0.990634 0.135554 -0.016387
vn 0.012633 0.992692 -0.120009
vn -0.989321 0.145083 -0.013966
vn -0.989236 0.146014 -0.009598
vn -0.012184 0.997772 -0.065588
vn -0.012327 0.995323 -0.095814
vn -0.011065 0.950369 -0.310928
vn -0.980562 0.186541 -0.060825
vn -0.011263 0.623483 -0.781755
vn -0.981347 0.119880 -0.150287
vn 0.012327 0.995323 -0.095814
vn 0.012184 0.997772 -0.065588
vn 0.989235 0.146017 -0.009598
vn 0.989321 0.145085 -0.013966
vn 0.980561 0.186546 -0.060826
vn 0.011065 0.950369 -0.310928
vn 0.981346 0.119884 -0.150289
vn 0.011263 0.623484 -0.781755
vn -0.011288 0.172025 -0.985028
vn -0.982258 0.032208 -0.184747
vn 0.982258 0.032208 -0.184749
vn 0.011288 0.172025 -0.985028
vn -0.011344 -0.223287 -0.974687
vn -0.982898 -0.041120 -0.179499
vn 0.982898 -0.041121 -0.179502
vn 0.011344 -0.223287 -0.974687
vn -0.011372 -0.598878 -0.800760
vn -0.983126 -0.109560 -0.146493
vn 0.983125 -0.109562 -0.146496
vn 0.011372 -0.598878 -0.800760
vn -0.011372 -0.598878 -0.800760
vn -0.011322 -0.865176 -0.501340
vn -0.982878 -0.159429 -0.092378
vn -0.983126 -0.109560 -0.146493
vn 0.983125 -0.109562 -0.146496
vn 0.982877 -0.159431 -0.092379
vn 0.011322 -0.865176 -0.501340
vn 0.011372 -0.598878 -0.800760
vn -0.011551 -0.999708 -0.021219
vn -0.986334 -0.164722 -0.003471
vn 0.986333 -0.164726 -0.003471
vn 0.011551 -0.999708 -0.021219
vn -0.011805 -0.999714 0.020802
vn -0.987448 -0.157912 0.003271
vn 0.987447 -0.157916 0.003271
vn 0.011805 -0.999714 0.020802
vn -0.011216 -0.910626 0.413079
vn -0.982058 -0.171768 0.077827
vn 0.982058 -0.171769 0.077828
vn 0.011216 -0.910626 0.413079
vn -0.011367 -0.593615 0.804669
vn -0.982882 -0.109346 0.148275
vn 0.982882 -0.109347 0.148278
vn 0.011367 -0.593615 0.804669
vn -0.011260 -0.198155 0.980106
vn -0.982105 -0.037318 0.184598
vn 0.982105 -0.037319 0.184601
vn 0.011260 -0.198155 0.980106
vn -0.012438 0.998990 -0.043178
vn -0.989938 0.141370 -0.006111
vn 0.989937 0.141373 -0.006111
vn 0.012438 0.998990 -0.043178
vn 0.012093 -0.992597 0.120847
vn 0.012262 -0.998975 0.043565
vn 0.989646 -0.143394 0.006252
vn 0.012262 -0.998975 0.043565
vn 0.012528 -0.997740 0.066010
vn -0.989646 -0.143390 0.006252
vn -0.012262 -0.998975 0.043565
vn -0.012093 -0.992597 0.120847
vn -0.012528 -0.997740 0.066010
vn -0.012262 -0.998975 0.043565
vn 0.013888 -0.666147 -0.745691
vn -0.013888 -0.666147 -0.745691
vn -0.014181 -0.901882 -0.431750
vn 0.014181 -0.901882 -0.431750
vn -0.013702 -0.997204 0.073454
vn 0.013702 -0.997204 0.073454
vn -0.012240 -0.983321 0.181465
vn 0.012240 -0.983321 0.181465
vn 0.012322 -0.995888 0.089754
vn -0.012322 -0.995888 0.089754
vn -0.014890 -0.957318 0.288652
vn 0.014890 -0.957318 0.288652
vn -0.014040 -0.617760 0.786241
vn 0.014040 -0.617760 0.786241
vn 0.014040 -0.617760 0.786241
vn -0.014040 -0.617760 0.786241
vn -0.014072 -0.166639 0.985917
vn 0.014072 -0.166639 0.985918
vn -0.013935 0.224838 0.974297
vn 0.013935 0.224838 0.974297
vn -0.013847 0.597905 0.801447
vn 0.013847 0.597905 0.801447
vn -0.014058 0.866951 0.498194
vn 0.014058 0.866952 0.498194
vn -0.013186 0.999753 0.017877
vn 0.013186 0.999753 0.017877
vn -0.012896 0.999750 -0.018269
vn 0.012896 0.999750 -0.018269
vn -0.014434 0.915365 -0.402367
vn 0.014434 0.915365 -0.402367
vn -0.013820 0.589963 -0.807312
vn 0.013820 0.589963 -0.807312
vn -0.014232 0.199584 -0.979777
vn 0.014232 0.199584 -0.979777
vn -0.014099 -0.228465 -0.973450
vn 0.014099 -0.228465 -0.973450
vn -0.012093 -0.992597 0.120847
vn -0.012262 -0.998975 0.043565
vn 0.012262 -0.998975 0.043565
vn 0.012093 -0.992597 0.120847
vn -0.012528 -0.997740 0.066010
vn 0.012528 -0.997740 0.066010
f 1/1/1 2/2/2 3/3/3
f 1/1/1 3/3/3 4/4/4
f 4/4/4 5/5/5 6/6/6
f 4/4/4 6/6/6 7/7/7
f 8/8/8 9/9/9 10/10/10
f 8/8/8 10/10/10 3/3/3
f 11/11/11 12/12/12 13/13/13
f 11/11/11 13/13/13 10/10/10
f 14/14/14 15/15/15 16/16/16
f 14/14/14 16/16/16 13/13/13
f 17/17/17 18/18/18 19/19/19
f 17/17/17 19/19/19 20/20/20
f 21/21/21 22/22/22 23/23/23
f 21/21/21 23/23/23 17/17/17
f 24/24/24 25/25/25 26/26/26
f 24/24/24 26/26/26 23/23/23
f 27/27/27 28/28/28 29/29/29
f 27/27/27 29/29/29 26/26/26
f 30/30/30 31/31/31 32/32/32
f 30/30/30 32/32/32 29/29/29
f 33/33/33 34/34/34 35/35/35
f 33/33/33 35/35/35 32/32/32
f 36/36/36 37/37/37 38/38/38
f 36/36/36 38/38/38 39/39/39
f 40/40/40 41/41/41 42/42/42
f 40/40/40 42/42/42 38/38/38
f 43/43/43 44/44/44 45/45/45
f 43/43/43 45/45/45 42/42/42
f 46/46/46 47/47/47 48/48/48
f 46/46/46 48/48/48 45/45/45
f 49/49/49 50/50/50 51/51/51
f 49/49/49 51/51/51 48/48/48
f 52/52/52 53/53/53 54/54/54
f 52/52/52 54/54/54 51/51/51
f 55/55/55 56/56/56 5/5/5
f 55/55/55 5/5/5 54/54/54
f 57/57/57 58/58/58 59/59/59
f 57/57/57 59/59/59 60/60/60
f 60/60/60 61/61/61 62/62/62
f 60/60/60 62/62/62 63/63/63
f 61/61/61 64/64/64 65/65/65
f 61/61/61 65/65/65 66/66/66
f 64/64/64 67/67/67 68/68/68
f 64/64/64 68/68/68 69/69/69
f 67/67/67 70/70/70 71/71/71
f 67/67/67 71/71/71 72/72/72
f 73/73/73 74/74/74 75/75/75
f 73/73/73 75/75/75 76/76/76
f 76/76/76 77/77/77 78/78/78
f 76/76/76 78/78/78 79/79/79
f 77/77/77 80/80/80 81/81/81
f 77/77/77 81/81/81 82/82/82
f 80/80/80 83/83/83 84/84/84
f 80/80/80 84/84/84 85/85/85
f 83/83/83 86/86/86 87/87/87
f 83/83/83 87/87/87 88/88/88
f 86/86/86 89/89/89 90/90/90
f 86/86/86 90/90/90 91/91/91
f 92/92/92 93/93/93 94/94/94
f 92/92/92 94/94/94 95/95/95
f 93/93/93 96/96/96 97/97/97
f 93/93/93 97/97/97 98/98/98
f 96/96/96 99/99/99 100/100/100
f 96/96/96 100/100/100 101/101/101
f 99/99/99 102/102/102 103/103/103
f 99/99/99 103/103/103 104/104/104
f 102/102/102 105/105/105 106/106/106
f 102/102/102 106/106/106 107/107/107
f 105/105/105 108/108/108 109/109/109
f 105/105/105 109/109/109 110/110/110
f 108/108/108 59/59/59 111/111/111
f 108/108/108 111/111/111 112/112/112
f 113/113/113 114/114/114 115/115/115
f 113/113/113 115/115/115 116/116/116
f 116/116/116 117/117/117 118/118/118
f 116/116/116 118/118/118 113/113/113
f 117/117/117 119/119/119 120/120/120
f 117/117/117 120/120/120 118/118/118
f 121/121/121 122/122/122 123/123/123
f 121/121/121 123/123/123 124/124/124
f 124/124/124 125/125/125 126/126/126
f 124/124/124 126/126/126 121/121/121
f 125/125/125 127/127/127 128/128/128
f 125/125/125 128/128/128 126/126/126
f 119/119/119 129/129/129 130/130/130
f 119/119/119 130/130/130 120/120/120
f 127/127/127 131/131/131 132/132/132
f 127/127/127 132/132/132 128/128/128
f 129/129/129 133/133/133 134/134/134
f 129/129/129 134/134/134 130/130/130
f 131/131/131 135/135/135 136/136/136
f 131/131/131 136/136/136 132/132/132
f 137/137/137 138/138/138 139/139/139
f 137/137/137 139/139/139 140/140/140
f 140/140/140 141/141/141 142/142/142
f 140/140/140 142/142/142 137/137/137
f 141/141/141 143/143/143 144/144/144
f 141/141/141 144/144/144 142/142/142
f 145/145/145 146/146/146 147/147/147
f 145/145/145 147/147/147 148/148/148
f 148/148/148 149/149/149 150/150/150
f 148/148/148 150/150/150 145/145/145
f 149/149/149 151/151/151 152/152/152
f 149/149/149 152/152/152 150/150/150
f 143/143/143 153/153/153 154/154/154
f 143/143/143 154/154/154 144/144/144
f 151/151/151 155/155/155 156/156/156
f 151/151/151 156/156/156 152/152/152
f 153/153/153 157/157/157 158/158/158
f 153/153/153 158/158/158 154/154/154
f 155/155/155 159/159/159 160/160/160
f 155/155/155 160/160/160 156/156/156
f 157/157/157 161/161/161 162/162/162
f 157/157/157 162/162/162 158/158/158
f 159/159/159 163/163/163 164/164/164
f 159/159/159 164/164/164 160/160/160
f 165/165/165 166/166/166 167/167/167
f 165/165/165 167/167/167 168/168/168
f 169/169/169 170/170/170 171/171/171
f 169/169/169 171/171/171 172/172/172
f 166/166/166 173/173/173 174/174/174
f 166/166/166 174/174/174 167/167/167
f 170/170/170 175/175/175 176/176/176
f 170/170/170 176/176/176 171/171/171
f 173/173/173 177/177/177 178/178/178
f 173/173/173 178/178/178 174/174/174
f 175/175/175 179/179/179 180/180/180
f 175/175/175 180/180/180 176/176/176
f 177/177/177 181/181/181 182/182/182
f 177/177/177 182/182/182 178/178/178
f 179/179/179 183/183/183 184/184/184
f 179/179/179 184/184/184 180/180/180
f 181/181/181 185/185/185 186/186/186
f 181/181/181 186/186/186 182/182/182
f 183/183/183 187/187/187 188/188/188
f 183/183/183 188/188/188 184/184/184
f 185/185/185 189/189/189 190/190/190
f 185/185/185 190/190/190 186/186/186
f 187/187/187 191/191/191 192/192/192
f 187/187/187 192/192/192 188/188/188
f 189/189/189 115/115/115 114/114/114
f 189/189/189 114/114/114 190/190/190
f 191/191/191 123/123/123 122/122/122
f 191/191/191 122/122/122 192/192/192
f 133/133/133 193/193/193 194/194/194
f 133/133/133 194/194/194 134/134/134
f 193/193/193 139/139/139 138/138/138
f 193/193/193 138/138/138 194/194/194
f 135/135/135 195/195/195 196/196/196
f 135/135/135 196/196/196 136/136/136
f 195/195/195 147/147/147 146/146/146
f 195/195/195 146/146/146 196/196/196
f 197/197/197 198/198/198 199/199/199
f 197/197/197 199/199/199 16/16/16
f 200/200/200 201/201/201 18/18/18
f 200/200/200 18/18/18 199/199/199
f 70/70/70 202/202/202 203/203/203
f 70/70/70 203/203/203 204/204/204
f 202/202/202 75/75/75 205/205/205
f 202/202/202 205/205/205 206/206/206
f 121/121/121 126/126/126 117/117/117
f 121/121/121 117/117/117 116/116/116
f 126/126/126 128/128/128 119/119/119
f 126/126/126 119/119/119 117/117/117
f 128/128/128 132/132/132 129/129/129
f 128/128/128 129/129/129 119/119/119
f 145/145/145 150/150/150 141/141/141
f 145/145/145 141/141/141 140/140/140
f 150/150/150 152/152/152 143/143/143
f 150/150/150 143/143/143 141/141/141
f 152/152/152 156/156/156 153/153/153
f 152/152/152 153/153/153 143/143/143
f 156/156/156 160/160/160 157/157/157
f 156/156/156 157/157/157 153/153/153
f 160/160/160 164/164/164 161/161/161
f 160/160/160 161/161/161 157/157/157
f 172/172/172 171/171/171 166/166/166
f 172/172/172 166/166/166 165/165/165
f 171/171/171 176/176/176 173/173/173
f 171/171/171 173/173/173 166/166/166
f 176/176/176 180/180/180 177/177/177
f 176/176/176 177/177/177 173/173/173
f 180/180/180 184/184/184 181/181/181
f 180/180/180 181/181/181 177/177/177
f 184/184/184 188/188/188 185/185/185
f 184/184/184 185/185/185 181/181/181
f 188/188/188 192/192/192 189/189/189
f 188/188/188 189/189/189 185/185/185
f 192/192/192 122/122/122 115/115/115
f 192/192/192 115/115/115 189/189/189
f 122/122/122 121/121/121 116/116/116
f 122/122/122 116/116/116 115/115/115
f 207/207/207 208/208/208 209/209/209
f 207/207/207 209/209/209 210/210/210
f 210/210/210 209/209/209 211/211/211
f 210/210/210 211/211/211 212/212/212
f 212/212/212 211/211/211 213/213/213
f 212/212/212 213/213/213 214/214/214
f 215/215/215 216/216/216 217/217/217
f 215/215/215 217/217/217 218/218/218
f 218/218/218 217/217/217 219/219/219
f 218/218/218 219/219/219 220/220/220
f 221/221/221 222/222/222 223/223/223
f 221/221/221 223/223/223 224/224/224
f 224/224/224 223/223/223 225/225/225
f 224/224/224 225/225/225 226/226/226
f 226/226/226 225/225/225 227/227/227
f 226/226/226 227/227/227 228/228/228
f 228/228/228 227/227/227 229/229/229
f 228/228/228 229/229/229 230/230/230
f 230/230/230 229/229/229 231/231/231
f 230/230/230 231/231/231 232/232/232
f 232/232/232 231/231/231 233/233/233
f 232/232/232 233/233/233 234/234/234
f 234/234/234 233/233/233 235/235/235
f 234/234/234 235/235/235 236/236/236
f 236/236/236 235/235/235 237/237/237
f 236/236/236 237/237/237 238/238/238
f 238/238/238 237/237/237 239/239/239
f 238/238/238 239/239/239 240/240/240
f 240/240/240 239/239/239 241/241/241
f 240/240/240 241/241/241 242/242/242
f 242/242/242 241/241/241 208/208/208
f 242/242/242 208/208/208 207/207/207
f 60/60/60 113/113/113 118/118/118
f 60/60/60 118/118/118 61/61/61
f 3/3/3 125/125/125 124/124/124
f 3/3/3 124/124/124 4/4/4
f 61/61/61 118/118/118 120/120/120
f 61/61/61 120/120/120 64/64/64
f 10/10/10 127/127/127 125/125/125
f 10/10/10 125/125/125 3/3/3
f 64/64/64 120/120/120 130/130/130
f 64/64/64 130/130/130 67/67/67
f 13/13/13 131/131/131 127/127/127
f 13/13/13 127/127/127 10/10/10
f 76/76/76 137/137/137 142/142/142
f 76/76/76 142/142/142 77/77/77
f 23/23/23 149/149/149 148/148/148
f 23/23/23 148/148/148 17/17/17
f 77/77/77 142/142/142 144/144/144
f 77/77/77 144/144/144 80/80/80
f 26/26/26 151/151/151 149/149/149
f 26/26/26 149/149/149 23/23/23
f 80/80/80 144/144/144 154/154/154
f 80/80/80 154/154/154 83/83/83
f 29/29/29 155/155/155 151/151/151
f 29/29/29 151/151/151 26/26/26
f 83/83/83 154/154/154 158/158/158
f 83/83/83 158/158/158 86/86/86
f 32/32/32 159/159/159 155/155/155
f 32/32/32 155/155/155 29/29/29
f 86/86/86 158/158/158 162/162/162
f 86/86/86 162/162/162 89/89/89
f 35/35/35 163/163/163 159/159/159
f 35/35/35 159/159/159 32/32/32
f 92/92/92 168/168/168 167/167/167
f 92/92/92 167/167/167 93/93/93
f 38/38/38 170/170/170 169/169/169
f 38/38/38 169/169/169 39/39/39
f 93/93/93 167/167/167 174/174/174
f 93/93/93 174/174/174 96/96/96
f 42/42/42 175/175/175 170/170/170
f 42/42/42 170/170/170 38/38/38
f 96/96/96 174/174/174 178/178/178
f 96/96/96 178/178/178 99/99/99
f 45/45/45 179/179/179 175/175/175
f 45/45/45 175/175/175 42/42/42
f 99/99/99 178/178/178 182/182/182
f 99/99/99 182/182/182 102/102/102
f 48/48/48 183/183/183 179/179/179
f 48/48/48 179/179/179 45/45/45
f 102/102/102 182/182/182 186/186/186
f 102/102/102 186/186/186 105/105/105
f 51/51/51 187/187/187 183/183/183
f 51/51/51 183/183/183 48/48/48
f 105/105/105 186/186/186 190/190/190
f 105/105/105 190/190/190 108/108/108
f 54/54/54 191/191/191 187/187/187
f 54/54/54 187/187/187 51/51/51
f 108/108/108 190/190/190 114/114/114
f 108/108/108 114/114/114 59/59/59
f 5/5/5 123/123/123 191/191/191
f 5/5/5 191/191/191 54/54/54
f 59/59/59 114/114/114 113/113/113
f 59/59/59 113/113/113 60/60/60
f 4/4/4 124/124/124 123/123/123
f 4/4/4 123/123/123 5/5/5
f 136/136/136 196/196/196 193/193/193
f 136/136/136 193/193/193 133/133/133
f 199/199/199 195/195/195 135/135/135
f 199/199/199 135/135/135 16/16/16
f 243/243/243 244/244/244 245/245/245
f 243/243/243 245/245/245 246/246/246
f 134/134/134 194/194/194 202/202/202
f 134/134/134 202/202/202 70/70/70
f 196/196/196 146/146/146 139/139/139
f 196/196/196 139/139/139 193/193/193
f 18/18/18 147/147/147 195/195/195
f 18/18/18 195/195/195 199/199/199
f 244/244/244 247/247/247 248/248/248
f 244/244/244 248/248/248 245/245/245
f 194/194/194 138/138/138 75/75/75
f 194/194/194 75/75/75 202/202/202
f 146/146/146 145/145/145 140/140/140
f 146/146/146 140/140/140 139/139/139
f 17/17/17 148/148/148 147/147/147
f 17/17/17 147/147/147 18/18/18
f 247/247/247 216/216/216 215/215/215
f 247/247/247 215/215/215 248/248/248
f 138/138/138 137/137/137 76/76/76
f 138/138/138 76/76/76 75/75/75
f 132/132/132 136/136/136 133/133/133
f 132/132/132 133/133/133 129/129/129
f 16/16/16 135/135/135 131/131/131
f 16/16/16 131/131/131 13/13/13
f 213/213/213 243/243/243 246/246/246
f 213/213/213 246/246/246 214/214/214
f 130/130/130 134/134/134 70/70/70
f 130/130/130 70/70/70 67/67/67
