# Exported from tank-game Tank_002.fbx mesh Tracks
v 1.273007 1.687500 2.030688
v 1.259822 1.696182 2.040988
v 1.259822 1.950830 1.715605
v 1.273007 1.938463 1.710013
v 1.273007 1.687500 2.030688
v 1.273007 1.415623 2.177083
v 1.259822 1.419155 2.190156
v 1.273007 1.938463 1.710013
v 1.259822 2.014641 1.375278
v 1.273007 2.001204 1.375395
v 1.273007 2.001204 1.375395
v 1.259822 1.877995 0.710719
v 1.273007 1.865022 0.713094
v 1.273007 1.865022 0.713094
v 1.259822 1.783905 0.125344
v 1.273007 1.770789 0.126822
v 1.259822 1.635652 -2.121582
v 1.273007 1.622518 -2.120427
v 1.273007 1.714415 -1.165867
v 1.259822 1.727579 -1.166723
v 1.273007 1.622518 -2.120427
v 1.259822 1.591215 -2.680256
v 1.273007 1.578416 -2.674876
v 1.273007 1.578416 -2.674876
v 1.259822 1.398232 -2.901829
v 1.273007 1.390194 -2.890984
v 1.273007 1.390194 -2.890984
v 1.259822 1.190699 -2.994861
v 1.273007 1.188029 -2.981609
v 1.273007 1.188029 -2.981609
v 1.259822 0.892133 -2.987753
v 1.273007 0.895238 -2.974638
v 1.273007 0.895238 -2.974638
v 1.259822 0.636247 -2.866918
v 1.273007 0.644274 -2.856127
v 1.273007 0.644274 -2.856127
v 1.259822 0.636247 -2.866918
v 1.259822 0.444255 -2.653593
v 1.273007 0.456052 -2.646991
v 1.273007 0.456052 -2.646991
v 1.259822 0.370699 -2.404908
v 1.273007 0.383884 -2.402999
v 1.273007 0.383884 -2.402999
v 1.259822 0.370699 1.390577
v 1.273007 0.383884 1.389337
v 1.273007 0.383884 1.389337
v 1.259822 0.448285 1.799664
v 1.273007 0.460568 1.793667
v 1.273007 0.460568 1.793667
v 1.259822 0.654567 2.034399
v 1.273007 0.662733 2.023717
v 1.273007 0.662733 2.023717
v 1.259822 1.001478 2.204315
v 1.273007 1.004322 2.191026
v 1.273007 1.004322 2.191026
v 1.273007 1.415623 2.177083
v 2.327391 1.687500 2.030688
v 2.340576 1.696182 2.040988
v 2.340576 1.419155 2.190156
v 2.327391 1.415623 2.177083
v 2.327391 1.687500 2.030688
v 2.327391 1.938463 1.710013
v 2.340576 1.950830 1.715605
v 2.327391 1.938463 1.710013
v 2.327391 2.001204 1.375395
v 2.340576 2.014641 1.375278
v 2.327391 2.001204 1.375395
v 2.327391 1.865022 0.713094
v 2.340576 1.877995 0.710719
v 2.327391 1.865022 0.713094
v 2.327391 1.770789 0.126822
v 2.340576 1.783905 0.125344
v 2.327391 1.622518 -2.120427
v 2.340576 1.635652 -2.121582
v 2.340576 1.727579 -1.166723
v 2.327391 1.714415 -1.165867
v 2.327391 1.622518 -2.120427
v 2.327391 1.578416 -2.674876
v 2.340576 1.591215 -2.680256
v 2.327391 1.578416 -2.674876
v 2.327391 1.390194 -2.890984
v 2.340576 1.398232 -2.901829
v 2.327391 1.390194 -2.890984
v 2.327391 1.188029 -2.981609
v 2.340576 1.190699 -2.994861
v 2.327391 1.188029 -2.981609
v 2.327391 0.895238 -2.974638
v 2.340576 0.892133 -2.987753
v 2.327391 0.895238 -2.974638
v 2.327391 0.644274 -2.856127
v 2.340576 0.636247 -2.866918
v 2.340576 0.636247 -2.866918
v 2.327391 0.644274 -2.856127
v 2.327391 0.456052 -2.646991
v 2.340576 0.444255 -2.653593
v 2.327391 0.456052 -2.646991
v 2.327391 0.383884 -2.402999
v 2.340576 0.370699 -2.404908
v 2.327391 0.383884 -2.402999
v 2.327391 0.383884 1.389337
v 2.340576 0.370699 1.390577
v 2.327391 0.383884 1.389337
v 2.327391 0.460568 1.793667
v 2.340576 0.448285 1.799664
v 2.327391 0.460568 1.793667
v 2.327391 0.662733 2.023717
v 2.340576 0.654567 2.034399
v 2.327391 0.662733 2.023717
v 2.327391 1.004322 2.191026
v 2.340576 1.001478 2.204315
v 2.327391 1.004322 2.191026
v 2.327391 1.415623 2.177083
v 2.340576 1.745368 2.099346
v 2.327391 1.754057 2.109652
v 2.327391 1.442421 2.276258
v 2.340576 1.438919 2.263180
v 2.340576 2.019532 1.746626
v 2.327391 2.031861 1.752249
v 2.340576 2.092068 1.379593
v 2.327391 2.105517 1.379548
v 1.273007 1.754057 2.109652
v 1.259822 1.745368 2.099346
v 1.259822 1.438919 2.263180
v 1.273007 1.442421 2.276258
v 1.273007 2.031861 1.752249
v 1.259822 2.019532 1.746626
v 1.273007 2.105517 1.379548
v 1.259822 2.092068 1.379593
v 2.340576 1.956490 0.717183
v 2.327391 1.969464 0.714819
v 1.273007 1.969464 0.714819
v 1.259822 1.956490 0.717183
v 2.340576 1.862228 0.127866
v 2.327391 1.875345 0.126398
v 1.273007 1.875345 0.126398
v 1.259822 1.862228 0.127866
v 2.340576 1.714446 -2.128883
v 2.327391 1.727570 -2.130149
v 2.327391 1.819249 -1.171482
v 2.340576 1.806085 -1.170632
v 2.340576 1.658064 -2.708316
v 2.327391 1.670790 -2.713677
v 2.340576 1.443419 -2.962967
v 2.327391 1.451556 -2.973772
v 1.273007 1.727570 -2.130149
v 1.259822 1.714446 -2.128883
v 1.259822 1.806085 -1.170632
v 1.273007 1.819249 -1.171482
v 1.273007 1.670790 -2.713677
v 1.259822 1.658064 -2.708316
v 1.273007 1.451556 -2.973772
v 1.259822 1.443419 -2.962967
v 2.340576 1.205679 -3.069243
v 2.327391 1.208353 -3.082489
v 1.273007 1.208353 -3.082489
v 1.259822 1.205679 -3.069243
v 2.340576 0.874540 -3.061963
v 2.327391 0.871455 -3.075083
v 1.273007 0.871455 -3.075083
v 1.259822 0.874540 -3.061963
v 2.340576 0.590575 -2.928335
v 2.327391 0.582535 -2.939123
v 1.273007 0.582535 -2.939123
v 1.259822 0.590575 -2.928335
v 2.327391 0.582535 -2.939123
v 2.340576 0.590575 -2.928335
v 2.340576 0.378006 -2.690613
v 2.327391 0.366250 -2.697246
v 1.259822 0.590575 -2.928335
v 1.273007 0.582535 -2.939123
v 1.273007 0.366250 -2.697246
v 1.259822 0.378006 -2.690613
v 2.340576 0.293724 -2.415982
v 2.327391 0.280540 -2.417962
v 1.273007 0.280540 -2.417962
v 1.259822 0.293724 -2.415982
v 2.340576 0.292482 1.397835
v 2.327391 0.279297 1.399167
v 1.273007 0.279297 1.399167
v 1.259822 0.292482 1.397835
v 2.340576 0.381337 1.832313
v 2.327391 0.369108 1.838322
v 1.273007 0.369108 1.838322
v 1.259822 0.381337 1.832313
v 2.340576 0.608099 2.095239
v 2.327391 0.599899 2.105920
v 1.273007 0.599899 2.105920
v 1.259822 0.608099 2.095239
v 2.340576 0.985721 2.277846
v 2.327391 0.982904 2.291129
v 1.273007 0.982904 2.291129
v 1.259822 0.985721 2.277846
v 2.340576 1.836006 -0.279538
v 2.327391 1.849176 -0.280183
v 1.273007 1.849176 -0.280183
v 1.259822 1.836006 -0.279538
v 1.273007 1.770789 0.126822
v 1.259822 1.757645 -0.277693
v 1.273007 1.744474 -0.277042
v 1.273007 1.744474 -0.277042
v 1.273007 1.714415 -1.165867
v 2.327391 1.770789 0.126822
v 2.327391 1.744474 -0.277042
v 2.340576 1.757645 -0.277693
v 2.327391 1.744474 -0.277042
v 2.327391 1.714415 -1.165867
v 1.273007 1.687500 2.030688
v 1.273007 1.938463 1.710013
v 2.327391 1.938463 1.710013
v 2.327391 1.687500 2.030688
v 1.273007 2.001204 1.375395
v 2.327391 2.001204 1.375395
v 1.273007 1.865022 0.713094
v 2.327391 1.865022 0.713094
v 1.273007 1.622518 -2.120427
v 1.273007 1.578416 -2.674876
v 2.327391 1.578416 -2.674876
v 2.327391 1.622518 -2.120427
v 1.273007 1.390194 -2.890984
v 2.327391 1.390194 -2.890984
v 1.273007 1.390194 -2.890984
v 1.273007 1.188029 -2.981609
v 2.327391 1.188029 -2.981609
v 2.327391 1.390194 -2.890984
v 1.273007 0.895238 -2.974638
v 2.327391 0.895238 -2.974638
v 1.273007 0.644274 -2.856127
v 2.327391 0.644274 -2.856127
v 1.273007 0.456052 -2.646991
v 2.327391 0.456052 -2.646991
v 1.273007 0.383884 -2.402999
v 2.327391 0.383884 -2.402999
v 1.273007 0.383884 1.389337
v 2.327391 0.383884 1.389337
v 1.273007 0.460568 1.793667
v 2.327391 0.460568 1.793667
v 1.273007 0.662733 2.023717
v 2.327391 0.662733 2.023717
v 1.273007 1.004322 2.191026
v 2.327391 1.004322 2.191026
v 1.273007 1.415623 2.177083
v 2.327391 1.415623 2.177083
v 2.327391 1.770789 0.126822
v 1.273007 1.770789 0.126822
v 1.273007 1.744474 -0.277042
v 2.327391 1.744474 -0.277042
v 1.273007 1.714415 -1.165867
v 2.327391 1.714415 -1.165867
vt 0.127228 0.533064
vt 0.125691 0.532658
vt 0.125549 0.569316
vt 0.127080 0.568927
vt 0.127230 0.532240
vt 0.127065 0.504042
vt 0.125536 0.503651
vt 0.127079 0.569741
vt 0.125758 0.601020
vt 0.127297 0.600649
vt 0.127286 0.601414
vt 0.126148 0.658071
vt 0.127686 0.657982
vt 0.127667 0.658278
vt 0.126201 0.706952
vt 0.127741 0.706915
vt 0.127985 0.909049
vt 0.129523 0.908974
vt 0.127480 0.815750
vt 0.125951 0.815528
vt 0.127379 0.909536
vt 0.109033 0.923060
vt 0.109674 0.922706
vt 0.108461 0.923645
vt 0.099886 0.931980
vt 0.101196 0.932811
vt 0.099267 0.932503
vt 0.091783 0.937986
vt 0.092556 0.937890
vt 0.091207 0.938582
vt 0.082663 0.947315
vt 0.083989 0.948072
vt 0.084082 0.948179
vt 0.092275 0.972447
vt 0.093683 0.972091
vt 0.106397 0.000000
vt 0.104901 0.000288
vt 0.111224 0.025147
vt 0.112510 0.024128
vt 0.112737 0.025120
vt 0.114552 0.050403
vt 0.115974 0.049601
vt 0.116090 0.050420
vt 0.126559 0.364939
vt 0.128050 0.364471
vt 0.128094 0.365185
vt 0.125620 0.402721
vt 0.127158 0.402257
vt 0.127149 0.403115
vt 0.125801 0.431726
vt 0.127337 0.431272
vt 0.127339 0.432083
vt 0.125518 0.466432
vt 0.127048 0.465990
vt 0.127058 0.466833
vt 0.127063 0.503225
vt 0.021606 0.532300
vt 0.023146 0.532711
vt 0.023255 0.503764
vt 0.021726 0.504161
vt 0.021611 0.533128
vt 0.021915 0.569106
vt 0.023447 0.569483
vt 0.021919 0.569916
vt 0.021812 0.600703
vt 0.023352 0.601066
vt 0.021826 0.601473
vt 0.021643 0.657703
vt 0.023182 0.657778
vt 0.021664 0.657996
vt 0.021479 0.705924
vt 0.023018 0.705954
vt 0.004915 0.884493
vt 0.006446 0.884635
vt 0.020663 0.809754
vt 0.019123 0.809938
vt 0.006998 0.885203
vt 0.022547 0.900457
vt 0.022974 0.900813
vt 0.021210 0.900842
vt 0.005680 0.925081
vt 0.006927 0.925896
vt 0.005299 0.926288
vt 0.000019 0.947208
vt 0.001455 0.947669
vt 0.000000 0.948424
vt 0.001773 0.975466
vt 0.003308 0.975521
vt 0.002073 0.976586
vt 0.009488 1.000000
vt 0.010974 0.999643
vt 0.013920 0.020935
vt 0.012481 0.021312
vt 0.020030 0.048403
vt 0.021671 0.048816
vt 0.020904 0.048914
vt 0.011719 0.053076
vt 0.011012 0.053412
vt 0.009480 0.053560
vt 0.021284 0.366455
vt 0.022809 0.366804
vt 0.021272 0.367007
vt 0.021865 0.402813
vt 0.023398 0.403296
vt 0.021866 0.403671
vt 0.021479 0.431495
vt 0.023012 0.431957
vt 0.021474 0.432318
vt 0.021779 0.466211
vt 0.023310 0.466643
vt 0.021780 0.467036
vt 0.021717 0.503332
vt 0.029150 0.532585
vt 0.030684 0.532561
vt 0.030843 0.503963
vt 0.029307 0.503943
vt 0.029586 0.569539
vt 0.031124 0.569544
vt 0.029522 0.600361
vt 0.031050 0.600314
vt 0.118149 0.532514
vt 0.119684 0.532537
vt 0.119488 0.503779
vt 0.117947 0.503809
vt 0.117871 0.569301
vt 0.119409 0.569314
vt 0.118056 0.600236
vt 0.119585 0.600290
vt 0.029462 0.655991
vt 0.031009 0.655967
vt 0.118321 0.656167
vt 0.119868 0.656209
vt 0.029418 0.704868
vt 0.030964 0.704864
vt 0.118270 0.705718
vt 0.119814 0.705750
vt 0.014863 0.881192
vt 0.016816 0.880527
vt 0.028820 0.809930
vt 0.027252 0.809860
vt 0.025362 0.905524
vt 0.026058 0.906664
vt 0.012156 0.927263
vt 0.013621 0.927551
vt 0.119201 0.901163
vt 0.120928 0.902557
vt 0.119377 0.815220
vt 0.117818 0.815201
vt 0.103345 0.918803
vt 0.104548 0.919668
vt 0.092748 0.929813
vt 0.094222 0.930103
vt 0.007456 0.947262
vt 0.008904 0.947124
vt 0.085181 0.938381
vt 0.086679 0.938367
vt 0.008943 0.974050
vt 0.010359 0.973685
vt 0.079169 0.950623
vt 0.080006 0.949345
vt 0.016948 0.998877
vt 0.018450 0.998635
vt 0.086067 0.975090
vt 0.087417 0.974671
vt 0.020548 0.017665
vt 0.019096 0.018299
vt 0.025201 0.043884
vt 0.026032 0.042370
vt 0.098929 0.000752
vt 0.097410 0.000869
vt 0.103795 0.026906
vt 0.105261 0.026578
vt 0.017493 0.055052
vt 0.019094 0.055315
vt 0.106701 0.050421
vt 0.108233 0.050373
vt 0.029276 0.367302
vt 0.030825 0.367376
vt 0.118610 0.365966
vt 0.120145 0.365789
vt 0.029434 0.403525
vt 0.030970 0.403566
vt 0.118036 0.402830
vt 0.119575 0.402824
vt 0.029040 0.431957
vt 0.030580 0.431961
vt 0.118229 0.431701
vt 0.119769 0.431703
vt 0.029408 0.466586
vt 0.030945 0.466582
vt 0.117885 0.466301
vt 0.119416 0.466296
vt 0.029183 0.738130
vt 0.030725 0.738163
vt 0.118015 0.739794
vt 0.119555 0.739799
vt 0.127728 0.707176
vt 0.126027 0.740157
vt 0.127553 0.740125
vt 0.127547 0.740416
vt 0.127484 0.815466
vt 0.021490 0.706174
vt 0.021172 0.738323
vt 0.022697 0.738365
vt 0.021177 0.738628
vt 0.019132 0.809697
vt 0.334011 0.445756
vt 0.334011 0.413229
vt 0.249788 0.413229
vt 0.249788 0.445756
vt 0.334011 0.386035
vt 0.249788 0.386035
vt 0.334011 0.332024
vt 0.249788 0.332024
vt 0.334011 0.104624
vt 0.334011 0.060196
vt 0.249788 0.060196
vt 0.249788 0.104624
vt 0.334011 0.037304
vt 0.249788 0.037304
vt 0.334011 1.000000
vt 0.334011 0.982303
vt 0.249788 0.982303
vt 0.249788 1.000000
vt 0.334011 0.958909
vt 0.249788 0.958909
vt 0.334011 0.936739
vt 0.249788 0.936739
vt 0.334011 0.914264
vt 0.249788 0.914264
vt 0.334011 0.893940
vt 0.249788 0.893940
vt 0.334011 0.591014
vt 0.249788 0.591014
vt 0.334011 0.558141
vt 0.249788 0.558141
vt 0.334011 0.533677
vt 0.249788 0.533677
vt 0.334011 0.503295
vt 0.249788 0.503295
vt 0.334011 0.470422
vt 0.249788 0.470422
vt 0.249788 0.284593
vt 0.334011 0.284593
vt 0.334011 0.252264
vt 0.249788 0.252264
vt 0.334011 0.181226
vt 0.249788 0.181226
vn -0.013888 -0.666147 -0.745691
vn -0.993260 -0.077199 -0.086454
vn -0.993762 -0.100598 -0.048141
vn -0.014181 -0.901882 -0.431750
vn -0.013888 -0.666147 -0.745691
vn -0.014099 -0.228465 -0.973450
vn -0.993573 -0.025884 -0.110190
vn -0.014181 -0.901882 -0.431750
vn -0.992928 -0.118406 0.008652
vn -0.013702 -0.997204 0.073454
vn -0.013702 -0.997204 0.073454
vn -0.988651 -0.147733 0.027267
vn -0.012240 -0.983321 0.181465
vn -0.012240 -0.983321 0.181465
vn -0.988366 -0.150980 0.018382
vn -0.012093 -0.992597 0.120847
vn -0.989523 -0.143790 0.012957
vn -0.012322 -0.995888 0.089754
vn -0.012528 -0.997740 0.066010
vn -0.990456 -0.137527 0.009099
vn -0.012322 -0.995888 0.089754
vn -0.994600 -0.099324 0.030086
vn -0.014890 -0.957318 0.288652
vn -0.014890 -0.957318 0.288652
vn -0.993507 -0.070282 0.089463
vn -0.014040 -0.617760 0.786241
vn -0.014040 -0.617760 0.786241
vn -0.993742 -0.018657 0.110133
vn -0.014072 -0.166639 0.985918
vn -0.014072 -0.166639 0.985918
vn -0.993493 0.025609 0.110972
vn -0.013935 0.224838 0.974297
vn -0.013935 0.224838 0.974297
vn -0.993364 0.068777 0.092185
vn -0.013847 0.597905 0.801447
vn -0.013847 0.597905 0.801447
vn -0.993364 0.068777 0.092185
vn -0.993764 0.096674 0.055559
vn -0.014058 0.866952 0.498194
vn -0.014058 0.866952 0.498194
vn -0.992123 0.125249 0.002259
vn -0.013186 0.999753 0.017877
vn -0.013186 0.999753 0.017877
vn -0.991317 0.131468 -0.002414
vn -0.012896 0.999750 -0.018269
vn -0.012896 0.999750 -0.018269
vn -0.994155 0.098810 -0.043500
vn -0.014434 0.915365 -0.402367
vn -0.014434 0.915365 -0.402367
vn -0.993114 0.069142 -0.094570
vn -0.013820 0.589963 -0.807312
vn -0.013820 0.589963 -0.807312
vn -0.993743 0.022294 -0.109441
vn -0.014232 0.199584 -0.979777
vn -0.014232 0.199584 -0.979777
vn -0.014099 -0.228465 -0.973450
vn 0.013888 -0.666147 -0.745691
vn 0.993260 -0.077198 -0.086453
vn 0.993574 -0.025883 -0.110188
vn 0.014099 -0.228465 -0.973450
vn 0.013888 -0.666147 -0.745691
vn 0.014181 -0.901882 -0.431750
vn 0.993762 -0.100597 -0.048140
vn 0.014181 -0.901882 -0.431750
vn 0.013702 -0.997204 0.073454
vn 0.992928 -0.118404 0.008652
vn 0.013702 -0.997204 0.073454
vn 0.012240 -0.983321 0.181465
vn 0.988652 -0.147731 0.027267
vn 0.012240 -0.983321 0.181465
vn 0.012093 -0.992597 0.120847
vn 0.988366 -0.150976 0.018382
vn 0.012322 -0.995888 0.089754
vn 0.989524 -0.143789 0.012957
vn 0.990456 -0.137525 0.009099
vn 0.012528 -0.997740 0.066010
vn 0.012322 -0.995888 0.089754
vn 0.014890 -0.957318 0.288652
vn 0.994600 -0.099323 0.030085
vn 0.014890 -0.957318 0.288652
vn 0.014040 -0.617760 0.786241
vn 0.993507 -0.070283 0.089461
vn 0.014040 -0.617760 0.786241
vn 0.014072 -0.166639 0.985917
vn 0.993742 -0.018656 0.110131
vn 0.014072 -0.166639 0.985917
vn 0.013935 0.224838 0.974297
vn 0.993494 0.025608 0.110970
vn 0.013935 0.224838 0.974297
vn 0.013847 0.597905 0.801447
vn 0.993364 0.068775 0.092184
vn 0.993364 0.068775 0.092184
vn 0.013847 0.597905 0.801447
vn 0.014058 0.866951 0.498194
vn 0.993765 0.096672 0.055559
vn 0.014058 0.866951 0.498194
vn 0.013186 0.999753 0.017877
vn 0.992123 0.125246 0.002259
vn 0.013186 0.999753 0.017877
vn 0.012896 0.999750 -0.018269
vn 0.991318 0.131464 -0.002414
vn 0.012896 0.999750 -0.018269
vn 0.014434 0.915365 -0.402367
vn 0.994155 0.098808 -0.043499
vn 0.014434 0.915365 -0.402367
vn 0.013820 0.589963 -0.807312
vn 0.993114 0.069142 -0.094568
vn 0.013820 0.589963 -0.807312
vn 0.014232 0.199584 -0.979777
vn 0.993743 0.022294 -0.109439
vn 0.014232 0.199584 -0.979777
vn 0.014099 -0.228465 -0.973450
vn 0.982933 0.122254 0.137468
vn 0.011353 0.664368 0.747320
vn 0.011286 0.229058 0.973347
vn 0.982277 0.042907 0.182460
vn 0.982660 0.167058 0.080445
vn 0.011283 0.900978 0.433718
vn 0.984097 0.177304 -0.010761
vn 0.011415 0.998131 -0.060039
vn -0.011353 0.664368 0.747320
vn -0.982932 0.122255 0.137470
vn -0.982276 0.042908 0.182463
vn -0.011286 0.229058 0.973347
vn -0.011283 0.900978 0.433718
vn -0.982659 0.167060 0.080446
vn -0.011415 0.998131 -0.060039
vn -0.984096 0.177308 -0.010761
vn 0.989795 0.140156 -0.025739
vn 0.012464 0.983471 -0.180638
vn -0.012464 0.983471 -0.180638
vn -0.989794 0.140160 -0.025740
vn 0.990635 0.135551 -0.016386
vn 0.012633 0.992692 -0.120009
vn -0.012633 0.992692 -0.120009
vn -0.990634 0.135554 -0.016387
vn 0.989321 0.145083 -0.013966
vn 0.012327 0.995323 -0.095814
vn 0.012184 0.997772 -0.065588
vn 0.989236 0.146014 -0.009598
vn 0.980562 0.186541 -0.060825
vn 0.011065 0.950369 -0.310928
vn 0.981347 0.119880 -0.150287
vn 0.011263 0.623483 -0.781755
vn -0.012327 0.995323 -0.095814
vn -0.989321 0.145085 -0.013966
vn -0.989235 0.146017 -0.009598
vn -0.012184 0.997772 -0.065588
vn -0.011065 0.950369 -0.310928
vn -0.980561 0.186546 -0.060826
vn -0.011263 0.623484 -0.781755
vn -0.981346 0.119884 -0.150289
vn 0.982258 0.032208 -0.184747
vn 0.011288 0.172025 -0.985028
vn -0.011288 0.172025 -0.985028
vn -0.982258 0.032208 -0.184749
vn 0.982898 -0.041120 -0.179499
vn 0.011344 -0.223287 -0.974687
vn -0.011344 -0.223287 -0.974687
vn -0.982898 -0.041121 -0.179502
vn 0.983126 -0.109560 -0.146493
vn 0.011372 -0.598878 -0.800760
vn -0.011372 -0.598878 -0.800760
vn -0.983125 -0.109562 -0.146496
vn 0.011372 -0.598878 -0.800760
vn 0.983126 -0.109560 -0.146493
vn 0.982878 -0.159429 -0.092378
vn 0.011322 -0.865176 -0.501340
vn -0.983125 -0.109562 -0.146496
vn -0.011372 -0.598878 -0.800760
vn -0.011322 -0.865176 -0.501340
vn -0.982877 -0.159431 -0.092379
vn 0.986334 -0.164722 -0.003471
vn 0.011551 -0.999708 -0.021219
vn -0.011551 -0.999708 -0.021219
vn -0.986333 -0.164726 -0.003471
vn 0.987448 -0.157912 0.003271
vn 0.011805 -0.999714 0.020802
vn -0.011805 -0.999714 0.020802
vn -0.987447 -0.157916 0.003271
vn 0.982058 -0.171768 0.077827
vn 0.011216 -0.910626 0.413079
vn -0.011216 -0.910626 0.413079
vn -0.982058 -0.171769 0.077828
vn 0.982882 -0.109346 0.148275
vn 0.011367 -0.593615 0.804669
vn -0.011367 -0.593615 0.804669
vn -0.982882 -0.109347 0.148278
vn 0.982105 -0.037318 0.184598
vn 0.011260 -0.198155 0.980106
vn -0.011260 -0.198155 0.980106
vn -0.982105 -0.037319 0.184601
vn 0.989938 0.141370 -0.006111
vn 0.012438 0.998990 -0.043178
vn -0.012438 0.998990 -0.043178
vn -0.989937 0.141373 -0.006111
vn -0.012093 -0.992597 0.120847
vn -0.989646 -0.143394 0.006252
vn -0.012262 -0.998975 0.043565
vn -0.012262 -0.998975 0.043565
vn -0.012528 -0.997740 0.066010
vn 0.012093 -0.992597 0.120847
vn 0.012262 -0.998975 0.043565
vn 0.989646 -0.143390 0.006252
vn 0.012262 -0.998975 0.043565
vn 0.012528 -0.997740 0.066010
vn -0.013888 -0.666147 -0.745691
vn -0.014181 -0.901882 -0.431750
vn 0.014181 -0.901882 -0.431750
vn 0.013888 -0.666147 -0.745691
vn -0.013702 -0.997204 0.073454
vn 0.013702 -0.997204 0.073454
vn -0.012240 -0.983321 0.181465
vn 0.012240 -0.983321 0.181465
vn -0.012322 -0.995888 0.089754
vn -0.014890 -0.957318 0.288652
vn 0.014890 -0.957318 0.288652
vn 0.012322 -0.995888 0.089754
vn -0.014040 -0.617760 0.786241
vn 0.014040 -0.617760 0.786241
vn -0.014040 -0.617760 0.786241
vn -0.014072 -0.166639 0.985918
vn 0.014072 -0.166639 0.985917
vn 0.014040 -0.617760 0.786241
vn -0.013935 0.224838 0.974297
vn 0.013935 0.224838 0.974297
vn -0.013847 0.597905 0.801447
vn 0.013847 0.597905 0.801447
vn -0.014058 0.866952 0.498194
vn 0.014058 0.866951 0.498194
vn -0.013186 0.999753 0.017877
vn 0.013186 0.999753 0.017877
vn -0.012896 0.999750 -0.018269
vn 0.012896 0.999750 -0.018269
vn -0.014434 0.915365 -0.402367
vn 0.014434 0.915365 -0.402367
vn -0.013820 0.589963 -0.807312
vn 0.013820 0.589963 -0.807312
vn -0.014232 0.199584 -0.979777
vn 0.014232 0.199584 -0.979777
vn -0.014099 -0.228465 -0.973450
vn 0.014099 -0.228465 -0.973450
vn 0.012093 -0.992597 0.120847
vn -0.012093 -0.992597 0.120847
vn -0.012262 -0.998975 0.043565
vn 0.012262 -0.998975 0.043565
vn -0.012528 -0.997740 0.066010
vn 0.012528 -0.997740 0.066010
f 1/1/1 2/2/2 3/3/3
f 1/1/1 3/3/3 4/4/4
f 2/2/2 5/5/5 6/6/6
f 2/2/2 6/6/6 7/7/7
f 8/8/8 3/3/3 9/9/9
f 8/8/8 9/9/9 10/10/10
f 11/11/11 9/9/9 12/12/12
f 11/11/11 12/12/12 13/13/13
f 14/14/14 12/12/12 15/15/15
f 14/14/14 15/15/15 16/16/16
f 17/17/17 18/18/18 19/19/19
f 17/17/17 19/19/19 20/20/20
f 21/21/21 17/17/17 22/22/22
f 21/21/21 22/22/22 23/23/23
f 24/24/24 22/22/22 25/25/25
f 24/24/24 25/25/25 26/26/26
f 27/27/27 25/25/25 28/28/28
f 27/27/27 28/28/28 29/29/29
f 30/30/30 28/28/28 31/31/31
f 30/30/30 31/31/31 32/32/32
f 33/33/33 31/31/31 34/34/34
f 33/33/33 34/34/34 35/35/35
f 36/36/36 37/37/37 38/38/38
f 36/36/36 38/38/38 39/39/39
f 40/40/40 38/38/38 41/41/41
f 40/40/40 41/41/41 42/42/42
f 43/43/43 41/41/41 44/44/44
f 43/43/43 44/44/44 45/45/45
f 46/46/46 44/44/44 47/47/47
f 46/46/46 47/47/47 48/48/48
f 49/49/49 47/47/47 50/50/50
f 49/49/49 50/50/50 51/51/51
f 52/52/52 50/50/50 53/53/53
f 52/52/52 53/53/53 54/54/54
f 55/55/55 53/53/53 7/7/7
f 55/55/55 7/7/7 56/56/56
f 57/57/57 58/58/58 59/59/59
f 57/57/57 59/59/59 60/60/60
f 58/58/58 61/61/61 62/62/62
f 58/58/58 62/62/62 63/63/63
f 63/63/63 64/64/64 65/65/65
f 63/63/63 65/65/65 66/66/66
f 66/66/66 67/67/67 68/68/68
f 66/66/66 68/68/68 69/69/69
f 69/69/69 70/70/70 71/71/71
f 69/69/69 71/71/71 72/72/72
f 73/73/73 74/74/74 75/75/75
f 73/73/73 75/75/75 76/76/76
f 74/74/74 77/77/77 78/78/78
f 74/74/74 78/78/78 79/79/79
f 79/79/79 80/80/80 81/81/81
f 79/79/79 81/81/81 82/82/82
f 82/82/82 83/83/83 84/84/84
f 82/82/82 84/84/84 85/85/85
f 85/85/85 86/86/86 87/87/87
f 85/85/85 87/87/87 88/88/88
f 88/88/88 89/89/89 90/90/90
f 88/88/88 90/90/90 91/91/91
f 92/92/92 93/93/93 94/94/94
f 92/92/92 94/94/94 95/95/95
f 95/95/95 96/96/96 97/97/97
f 95/95/95 97/97/97 98/98/98
f 98/98/98 99/99/99 100/100/100
f 98/98/98 100/100/100 101/101/101
f 101/101/101 102/102/102 103/103/103
f 101/101/101 103/103/103 104/104/104
f 104/104/104 105/105/105 106/106/106
f 104/104/104 106/106/106 107/107/107
f 107/107/107 108/108/108 109/109/109
f 107/107/107 109/109/109 110/110/110
f 110/110/110 111/111/111 112/112/112
f 110/110/110 112/112/112 59/59/59
f 113/113/113 114/114/114 115/115/115
f 113/113/113 115/115/115 116/116/116
f 114/114/114 113/113/113 117/117/117
f 114/114/114 117/117/117 118/118/118
f 118/118/118 117/117/117 119/119/119
f 118/118/118 119/119/119 120/120/120
f 121/121/121 122/122/122 123/123/123
f 121/121/121 123/123/123 124/124/124
f 122/122/122 121/121/121 125/125/125
f 122/122/122 125/125/125 126/126/126
f 126/126/126 125/125/125 127/127/127
f 126/126/126 127/127/127 128/128/128
f 120/120/120 119/119/119 129/129/129
f 120/120/120 129/129/129 130/130/130
f 128/128/128 127/127/127 131/131/131
f 128/128/128 131/131/131 132/132/132
f 130/130/130 129/129/129 133/133/133
f 130/130/130 133/133/133 134/134/134
f 132/132/132 131/131/131 135/135/135
f 132/132/132 135/135/135 136/136/136
f 137/137/137 138/138/138 139/139/139
f 137/137/137 139/139/139 140/140/140
f 138/138/138 137/137/137 141/141/141
f 138/138/138 141/141/141 142/142/142
f 142/142/142 141/141/141 143/143/143
f 142/142/142 143/143/143 144/144/144
f 145/145/145 146/146/146 147/147/147
f 145/145/145 147/147/147 148/148/148
f 146/146/146 145/145/145 149/149/149
f 146/146/146 149/149/149 150/150/150
f 150/150/150 149/149/149 151/151/151
f 150/150/150 151/151/151 152/152/152
f 144/144/144 143/143/143 153/153/153
f 144/144/144 153/153/153 154/154/154
f 152/152/152 151/151/151 155/155/155
f 152/152/152 155/155/155 156/156/156
f 154/154/154 153/153/153 157/157/157
f 154/154/154 157/157/157 158/158/158
f 156/156/156 155/155/155 159/159/159
f 156/156/156 159/159/159 160/160/160
f 158/158/158 157/157/157 161/161/161
f 158/158/158 161/161/161 162/162/162
f 160/160/160 159/159/159 163/163/163
f 160/160/160 163/163/163 164/164/164
f 165/165/165 166/166/166 167/167/167
f 165/165/165 167/167/167 168/168/168
f 169/169/169 170/170/170 171/171/171
f 169/169/169 171/171/171 172/172/172
f 168/168/168 167/167/167 173/173/173
f 168/168/168 173/173/173 174/174/174
f 172/172/172 171/171/171 175/175/175
f 172/172/172 175/175/175 176/176/176
f 174/174/174 173/173/173 177/177/177
f 174/174/174 177/177/177 178/178/178
f 176/176/176 175/175/175 179/179/179
f 176/176/176 179/179/179 180/180/180
f 178/178/178 177/177/177 181/181/181
f 178/178/178 181/181/181 182/182/182
f 180/180/180 179/179/179 183/183/183
f 180/180/180 183/183/183 184/184/184
f 182/182/182 181/181/181 185/185/185
f 182/182/182 185/185/185 186/186/186
f 184/184/184 183/183/183 187/187/187
f 184/184/184 187/187/187 188/188/188
f 186/186/186 185/185/185 189/189/189
f 186/186/186 189/189/189 190/190/190
f 188/188/188 187/187/187 191/191/191
f 188/188/188 191/191/191 192/192/192
f 190/190/190 189/189/189 116/116/116
f 190/190/190 116/116/116 115/115/115
f 192/192/192 191/191/191 124/124/124
f 192/192/192 124/124/124 123/123/123
f 134/134/134 133/133/133 193/193/193
f 134/134/134 193/193/193 194/194/194
f 194/194/194 193/193/193 140/140/140
f 194/194/194 140/140/140 139/139/139
f 136/136/136 135/135/135 195/195/195
f 136/136/136 195/195/195 196/196/196
f 196/196/196 195/195/195 148/148/148
f 196/196/196 148/148/148 147/147/147
f 197/197/197 15/15/15 198/198/198
f 197/197/197 198/198/198 199/199/199
f 200/200/200 198/198/198 20/20/20
f 200/200/200 20/20/20 201/201/201
f 72/72/72 202/202/202 203/203/203
f 72/72/72 203/203/203 204/204/204
f 204/204/204 205/205/205 206/206/206
f 204/204/204 206/206/206 75/75/75
f 121/121/121 114/114/114 118/118/118
f 121/121/121 118/118/118 125/125/125
f 125/125/125 118/118/118 120/120/120
f 125/125/125 120/120/120 127/127/127
f 127/127/127 120/120/120 130/130/130
f 127/127/127 130/130/130 131/131/131
f 145/145/145 138/138/138 142/142/142
f 145/145/145 142/142/142 149/149/149
f 149/149/149 142/142/142 144/144/144
f 149/149/149 144/144/144 151/151/151
f 151/151/151 144/144/144 154/154/154
f 151/151/151 154/154/154 155/155/155
f 155/155/155 154/154/154 158/158/158
f 155/155/155 158/158/158 159/159/159
f 159/159/159 158/158/158 162/162/162
f 159/159/159 162/162/162 163/163/163
f 170/170/170 165/165/165 168/168/168
f 170/170/170 168/168/168 171/171/171
f 171/171/171 168/168/168 174/174/174
f 171/171/171 174/174/174 175/175/175
f 175/175/175 174/174/174 178/178/178
f 175/175/175 178/178/178 179/179/179
f 179/179/179 178/178/178 182/182/182
f 179/179/179 182/182/182 183/183/183
f 183/183/183 182/182/182 186/186/186
f 183/183/183 186/186/186 187/187/187
f 187/187/187 186/186/186 190/190/190
f 187/187/187 190/190/190 191/191/191
f 191/191/191 190/190/190 115/115/115
f 191/191/191 115/115/115 124/124/124
f 124/124/124 115/115/115 114/114/114
f 124/124/124 114/114/114 121/121/121
f 207/207/207 208/208/208 209/209/209
f 207/207/207 209/209/209 210/210/210
f 208/208/208 211/211/211 212/212/212
f 208/208/208 212/212/212 209/209/209
f 211/211/211 213/213/213 214/214/214
f 211/211/211 214/214/214 212/212/212
f 215/215/215 216/216/216 217/217/217
f 215/215/215 217/217/217 218/218/218
f 216/216/216 219/219/219 220/220/220
f 216/216/216 220/220/220 217/217/217
f 221/221/221 222/222/222 223/223/223
f 221/221/221 223/223/223 224/224/224
f 222/222/222 225/225/225 226/226/226
f 222/222/222 226/226/226 223/223/223
f 225/225/225 227/227/227 228/228/228
f 225/225/225 228/228/228 226/226/226
f 227/227/227 229/229/229 230/230/230
f 227/227/227 230/230/230 228/228/228
f 229/229/229 231/231/231 232/232/232
f 229/229/229 232/232/232 230/230/230
f 231/231/231 233/233/233 234/234/234
f 231/231/231 234/234/234 232/232/232
f 233/233/233 235/235/235 236/236/236
f 233/233/233 236/236/236 234/234/234
f 235/235/235 237/237/237 238/238/238
f 235/235/235 238/238/238 236/236/236
f 237/237/237 239/239/239 240/240/240
f 237/237/237 240/240/240 238/238/238
f 239/239/239 241/241/241 242/242/242
f 239/239/239 242/242/242 240/240/240
f 241/241/241 207/207/207 210/210/210
f 241/241/241 210/210/210 242/242/242
f 58/58/58 63/63/63 117/117/117
f 58/58/58 117/117/117 113/113/113
f 3/3/3 2/2/2 122/122/122
f 3/3/3 122/122/122 126/126/126
f 63/63/63 66/66/66 119/119/119
f 63/63/63 119/119/119 117/117/117
f 9/9/9 3/3/3 126/126/126
f 9/9/9 126/126/126 128/128/128
f 66/66/66 69/69/69 129/129/129
f 66/66/66 129/129/129 119/119/119
f 12/12/12 9/9/9 128/128/128
f 12/12/12 128/128/128 132/132/132
f 74/74/74 79/79/79 141/141/141
f 74/74/74 141/141/141 137/137/137
f 22/22/22 17/17/17 146/146/146
f 22/22/22 146/146/146 150/150/150
f 79/79/79 82/82/82 143/143/143
f 79/79/79 143/143/143 141/141/141
f 25/25/25 22/22/22 150/150/150
f 25/25/25 150/150/150 152/152/152
f 82/82/82 85/85/85 153/153/153
f 82/82/82 153/153/153 143/143/143
f 28/28/28 25/25/25 152/152/152
f 28/28/28 152/152/152 156/156/156
f 85/85/85 88/88/88 157/157/157
f 85/85/85 157/157/157 153/153/153
f 31/31/31 28/28/28 156/156/156
f 31/31/31 156/156/156 160/160/160
f 88/88/88 91/91/91 161/161/161
f 88/88/88 161/161/161 157/157/157
f 34/34/34 31/31/31 160/160/160
f 34/34/34 160/160/160 164/164/164
f 92/92/92 95/95/95 167/167/167
f 92/92/92 167/167/167 166/166/166
f 38/38/38 37/37/37 169/169/169
f 38/38/38 169/169/169 172/172/172
f 95/95/95 98/98/98 173/173/173
f 95/95/95 173/173/173 167/167/167
f 41/41/41 38/38/38 172/172/172
f 41/41/41 172/172/172 176/176/176
f 98/98/98 101/101/101 177/177/177
f 98/98/98 177/177/177 173/173/173
f 44/44/44 41/41/41 176/176/176
f 44/44/44 176/176/176 180/180/180
f 101/101/101 104/104/104 181/181/181
f 101/101/101 181/181/181 177/177/177
f 47/47/47 44/44/44 180/180/180
f 47/47/47 180/180/180 184/184/184
f 104/104/104 107/107/107 185/185/185
f 104/104/104 185/185/185 181/181/181
f 50/50/50 47/47/47 184/184/184
f 50/50/50 184/184/184 188/188/188
f 107/107/107 110/110/110 189/189/189
f 107/107/107 189/189/189 185/185/185
f 53/53/53 50/50/50 188/188/188
f 53/53/53 188/188/188 192/192/192
f 110/110/110 59/59/59 116/116/116
f 110/110/110 116/116/116 189/189/189
f 7/7/7 53/53/53 192/192/192
f 7/7/7 192/192/192 123/123/123
f 59/59/59 58/58/58 113/113/113
f 59/59/59 113/113/113 116/116/116
f 2/2/2 7/7/7 123/123/123
f 2/2/2 123/123/123 122/122/122
f 135/135/135 134/134/134 194/194/194
f 135/135/135 194/194/194 195/195/195
f 198/198/198 15/15/15 136/136/136
f 198/198/198 136/136/136 196/196/196
f 243/243/243 244/244/244 245/245/245
f 243/243/243 245/245/245 246/246/246
f 133/133/133 72/72/72 204/204/204
f 133/133/133 204/204/204 193/193/193
f 195/195/195 194/194/194 139/139/139
f 195/195/195 139/139/139 148/148/148
f 20/20/20 198/198/198 196/196/196
f 20/20/20 196/196/196 147/147/147
f 246/246/246 245/245/245 247/247/247
f 246/246/246 247/247/247 248/248/248
f 193/193/193 204/204/204 75/75/75
f 193/193/193 75/75/75 140/140/140
f 148/148/148 139/139/139 138/138/138
f 148/148/148 138/138/138 145/145/145
f 17/17/17 20/20/20 147/147/147
f 17/17/17 147/147/147 146/146/146
f 248/248/248 247/247/247 215/215/215
f 248/248/248 215/215/215 218/218/218
f 140/140/140 75/75/75 74/74/74
f 140/140/140 74/74/74 137/137/137
f 131/131/131 130/130/130 134/134/134
f 131/131/131 134/134/134 135/135/135
f 15/15/15 12/12/12 132/132/132
f 15/15/15 132/132/132 136/136/136
f 214/214/214 213/213/213 244/244/244
f 214/214/214 244/244/244 243/243/243
f 129/129/129 69/69/69 72/72/72
f 129/129/129 72/72/72 133/133/133
