# Exported from tank-game Tank_002.fbx mesh Turret_Pivot_GEO
v 0.489240 0.031237 0.633888
v 0.662594 0.031626 0.460534
v 0.656709 0.038709 0.456274
v 0.484964 0.038326 0.628019
v 0.270800 0.030989 0.745188
v 0.268552 0.038079 0.738286
v 0.028658 0.030903 0.783540
v 0.028658 0.037994 0.776281
v -0.213484 0.030989 0.745188
v -0.211236 0.038079 0.738286
v -0.431923 0.031237 0.633888
v -0.427648 0.038326 0.628019
v -0.605278 0.031626 0.460534
v -0.599393 0.038709 0.456274
v -0.716578 0.032114 0.242095
v -0.709660 0.039193 0.239863
v -0.754930 0.032655 -0.000046
v -0.747656 0.039730 -0.000031
v -0.716578 0.033196 -0.242188
v -0.709660 0.040266 -0.239924
v -0.605278 0.033685 -0.460627
v -0.716578 0.033196 -0.242188
v -0.709660 0.040266 -0.239924
v -0.599393 0.040749 -0.456335
v -0.431924 0.034072 -0.633981
v -0.427648 0.041134 -0.628080
v -0.213484 0.034321 -0.745282
v -0.211236 0.041380 -0.738347
v 0.028658 0.034407 -0.783633
v 0.028658 0.041465 -0.776343
v 0.270800 0.034321 -0.745282
v 0.268552 0.041380 -0.738347
v 0.489240 0.034072 -0.633981
v 0.484964 0.041134 -0.628080
v 0.662595 0.033685 -0.460627
v 0.656710 0.040749 -0.456335
v 0.773895 0.033196 -0.242188
v 0.766977 0.040266 -0.239924
v 0.812246 0.032655 -0.000047
v 0.804972 0.039730 -0.000031
v 0.773895 0.032114 0.242095
v 0.766976 0.039193 0.239863
v 0.602531 0.103925 0.417057
v 0.445602 0.103574 0.573987
v 0.247858 0.103349 0.674742
v 0.028658 0.103272 0.709460
v -0.190542 0.103349 0.674742
v -0.388285 0.103574 0.573987
v -0.545215 0.103925 0.417057
v -0.645971 0.104367 0.219315
v -0.680689 0.104858 0.000115
v -0.645971 0.105348 -0.219085
v -0.645971 0.105348 -0.219085
v -0.545216 0.105790 -0.416828
v -0.388285 0.106141 -0.573757
v -0.190542 0.106366 -0.674512
v 0.028658 0.106444 -0.709230
v 0.247858 0.106366 -0.674512
v 0.445602 0.106141 -0.573757
v 0.602532 0.105790 -0.416828
v 0.703287 0.105348 -0.219085
v 0.738005 0.104858 0.000115
v 0.703287 0.104367 0.219314
v 0.497926 0.031211 0.645843
v 0.674549 0.031606 0.469220
v 0.275367 0.030957 0.759242
v 0.028658 0.030870 0.798317
v -0.218050 0.030957 0.759242
v -0.440609 0.031211 0.645843
v -0.617233 0.031606 0.469220
v -0.730633 0.032104 0.246661
v -0.769707 0.032655 -0.000046
v -0.730633 0.033207 -0.246754
v -0.617233 0.033704 -0.469313
v -0.730633 0.033207 -0.246754
v -0.440609 0.034099 -0.645936
v -0.218050 0.034353 -0.759336
v 0.028658 0.034439 -0.798410
v 0.275367 0.034353 -0.759336
v 0.497926 0.034099 -0.645936
v 0.674550 0.033704 -0.469313
v 0.787949 0.033207 -0.246755
v 0.827024 0.032655 -0.000047
v 0.787949 0.032104 0.246661
v 0.652801 0.113739 0.453602
v 0.644696 0.103857 0.447691
v 0.752854 0.104332 0.235420
v 0.762382 0.114219 0.238538
v 0.482124 0.113357 0.624278
v 0.476236 0.103480 0.616151
v 0.267059 0.113112 0.733859
v 0.263964 0.103238 0.724309
v 0.028658 0.113028 0.771618
v 0.028658 0.103155 0.761578
v -0.209743 0.113112 0.733859
v -0.206648 0.103238 0.724309
v -0.424808 0.113357 0.624278
v -0.418920 0.103480 0.616151
v -0.595485 0.113739 0.453602
v -0.587380 0.103857 0.447692
v -0.705066 0.114219 0.238538
v -0.695538 0.104332 0.235420
v -0.742825 0.114752 0.000137
v -0.732807 0.104858 0.000115
v -0.705066 0.115286 -0.238264
v -0.695538 0.105384 -0.235190
v -0.695538 0.105384 -0.235190
v -0.705066 0.115286 -0.238264
v -0.595485 0.115767 -0.453328
v -0.587380 0.105858 -0.447462
v -0.424808 0.116148 -0.624004
v -0.418920 0.106236 -0.615922
v -0.209743 0.116393 -0.733585
v -0.206648 0.106477 -0.724080
v 0.028658 0.116478 -0.771344
v 0.028658 0.106560 -0.761348
v 0.267060 0.116393 -0.733585
v 0.263964 0.106477 -0.724080
v 0.482125 0.116148 -0.624005
v 0.476236 0.106236 -0.615922
v 0.652801 0.115767 -0.453328
v 0.644697 0.105858 -0.447462
v 0.762383 0.115286 -0.238264
v 0.752855 0.105384 -0.235190
v 0.800141 0.114752 0.000137
v 0.790123 0.104858 0.000115
v 0.718125 0.021640 0.500864
v 0.710020 0.031548 0.494991
v 0.523697 0.031131 0.681314
v 0.529585 0.021219 0.689404
v 0.839175 0.022172 0.263291
v 0.829647 0.032073 0.260210
v 0.288915 0.030864 0.800941
v 0.292011 0.020947 0.810453
v 0.028658 0.030771 0.842161
v 0.028658 0.020854 0.852164
v -0.231599 0.030864 0.800941
v -0.234695 0.020947 0.810453
v -0.466380 0.031131 0.681314
v -0.472269 0.021219 0.689404
v -0.652704 0.031548 0.494991
v -0.660809 0.021640 0.500864
v -0.772331 0.032073 0.260210
v -0.781859 0.022172 0.263291
v -0.813552 0.032655 -0.000046
v -0.823570 0.022760 -0.000061
v -0.772331 0.033237 -0.260303
v -0.781859 0.023349 -0.263414
v -0.781859 0.023349 -0.263414
v -0.772331 0.033237 -0.260303
v -0.652704 0.033762 -0.495084
v -0.660809 0.023880 -0.500987
v -0.466380 0.034178 -0.681407
v -0.472269 0.024302 -0.689527
v -0.231599 0.034446 -0.801034
v -0.234695 0.024572 -0.810577
v 0.028658 0.034538 -0.842255
v 0.028658 0.024665 -0.852287
v 0.288915 0.034446 -0.801034
v 0.292011 0.024572 -0.810577
v 0.523697 0.034178 -0.681407
v 0.529585 0.024302 -0.689527
v 0.710021 0.033762 -0.495084
v 0.718125 0.023880 -0.500987
v 0.829648 0.033237 -0.260303
v 0.839176 0.023349 -0.263414
v 0.870868 0.032655 -0.000046
v 0.880886 0.022760 -0.000061
v 0.839176 -0.282264 -0.263872
v 0.718125 -0.281733 -0.501446
v 0.529585 -0.281311 -0.689985
v 0.292011 -0.281040 -0.811035
v 0.028658 -0.280947 -0.852746
v -0.234695 -0.281040 -0.811035
v -0.472269 -0.281311 -0.689985
v -0.660809 -0.281733 -0.501446
v -0.781859 -0.282264 -0.263872
v -0.781859 -0.282264 -0.263872
v -0.823570 -0.282853 -0.000520
v -0.781859 -0.283442 0.262832
v -0.660809 -0.283972 0.500406
v -0.472269 -0.284394 0.688945
v -0.234695 -0.284665 0.809995
v 0.028658 -0.284758 0.851706
v 0.292011 -0.284665 0.809995
v 0.529585 -0.284394 0.688945
v 0.718125 -0.283972 0.500406
v 0.839175 -0.283442 0.262832
v 0.880886 -0.282853 -0.000520
v 0.652801 0.281837 0.453978
v 0.482124 0.281456 0.624654
v 0.267059 0.281210 0.734235
v 0.028658 0.281126 0.771994
v -0.209743 0.281210 0.734235
v -0.424808 0.281456 0.624654
v -0.595485 0.281837 0.453978
v -0.705066 0.282318 0.238914
v -0.742825 0.282851 0.000513
v -0.705066 0.283384 -0.237888
v -0.705066 0.283384 -0.237888
v -0.595485 0.283865 -0.452952
v -0.424808 0.284247 -0.623629
v -0.209743 0.284491 -0.733209
v 0.028658 0.284576 -0.770968
v 0.267060 0.284491 -0.733210
v 0.482125 0.284247 -0.623629
v 0.652801 0.283865 -0.452952
v 0.762383 0.283384 -0.237888
v 0.800141 0.282851 0.000513
v 0.762382 0.282318 0.238914
vt 0.955396 0.418156
vt 0.955481 0.399733
vt 0.954880 0.399695
vt 0.954885 0.417945
vt 0.955308 0.437980
vt 0.954937 0.437617
vt 0.955261 0.459258
vt 0.954975 0.458843
vt 0.955281 0.480719
vt 0.954913 0.480419
vt 0.955335 0.500519
vt 0.954788 0.500362
vt 0.955404 0.518004
vt 0.954678 0.517861
vt 0.955371 0.533344
vt 0.954509 0.533189
vt 0.955106 0.547159
vt 0.954196 0.547082
vt 0.953855 0.564680
vt 0.953150 0.564680
vt 0.954699 0.201896
vt 0.952010 0.184868
vt 0.951284 0.184868
vt 0.953838 0.202221
vt 0.955249 0.217157
vt 0.954501 0.217768
vt 0.955505 0.234990
vt 0.954909 0.235723
vt 0.955535 0.256351
vt 0.955119 0.257235
vt 0.955543 0.280492
vt 0.955254 0.281397
vt 0.955508 0.304680
vt 0.955240 0.305551
vt 0.955440 0.326347
vt 0.955081 0.327057
vt 0.955447 0.345747
vt 0.954965 0.346285
vt 0.955489 0.364101
vt 0.954915 0.364456
vt 0.955516 0.381945
vt 0.954898 0.382100
vt 0.948473 0.399669
vt 0.948424 0.417603
vt 0.948368 0.437077
vt 0.948333 0.458331
vt 0.948324 0.480140
vt 0.948320 0.500263
vt 0.948305 0.517703
vt 0.948210 0.532909
vt 0.947893 0.546795
vt 0.947154 0.564680
vt 0.945342 0.184868
vt 0.947494 0.203211
vt 0.948147 0.218992
vt 0.948402 0.236976
vt 0.948488 0.258601
vt 0.948539 0.283143
vt 0.948565 0.307137
vt 0.948514 0.328413
vt 0.948484 0.347352
vt 0.948484 0.365181
vt 0.948492 0.382449
vt 0.956220 0.418356
vt 0.956384 0.399768
vt 0.956020 0.438315
vt 0.955911 0.459636
vt 0.955993 0.481004
vt 0.956199 0.500681
vt 0.956429 0.518160
vt 0.956521 0.533520
vt 0.956300 0.547262
vt 0.954846 0.564680
vt 0.955858 0.201518
vt 0.953031 0.184868
vt 0.956301 0.216492
vt 0.956425 0.234205
vt 0.956306 0.255426
vt 0.956209 0.279544
vt 0.956161 0.303787
vt 0.956157 0.325624
vt 0.956260 0.345198
vt 0.956374 0.363737
vt 0.956435 0.381786
vt 0.943963 0.399411
vt 0.944911 0.399545
vt 0.944921 0.382716
vt 0.943953 0.382883
vt 0.944043 0.416692
vt 0.944883 0.417123
vt 0.944179 0.435800
vt 0.944848 0.436412
vt 0.944265 0.457383
vt 0.944828 0.457856
vt 0.944202 0.480153
vt 0.944828 0.480155
vt 0.943991 0.500813
vt 0.944799 0.500567
vt 0.943725 0.518061
vt 0.944742 0.517910
vt 0.943502 0.532900
vt 0.944634 0.532909
vt 0.943249 0.546495
vt 0.944357 0.546633
vt 0.942949 0.564680
vt 0.943849 0.564680
vt 0.941958 0.184868
vt 0.941113 0.184868
vt 0.943142 0.204409
vt 0.944048 0.203938
vt 0.943615 0.220308
vt 0.944608 0.219775
vt 0.943911 0.238137
vt 0.944818 0.237657
vt 0.944167 0.259945
vt 0.944906 0.259368
vt 0.944375 0.285183
vt 0.944966 0.284322
vt 0.944424 0.309479
vt 0.945014 0.308479
vt 0.944261 0.330508
vt 0.944968 0.329625
vt 0.944093 0.348972
vt 0.944929 0.348298
vt 0.943992 0.366235
vt 0.944917 0.365805
vt 0.960044 0.399804
vt 0.959216 0.399783
vt 0.959022 0.418549
vt 0.959772 0.418712
vt 0.960121 0.381420
vt 0.959278 0.381576
vt 0.958796 0.438643
vt 0.959433 0.438948
vt 0.958685 0.460024
vt 0.959260 0.460425
vt 0.958788 0.481333
vt 0.959434 0.481695
vt 0.959044 0.500893
vt 0.959847 0.501137
vt 0.959346 0.518385
vt 0.960312 0.518613
vt 0.959490 0.533797
vt 0.960593 0.534025
vt 0.959291 0.547534
vt 0.960466 0.547643
vt 0.957676 0.564680
vt 0.958640 0.564680
vt 0.956975 0.184868
vt 0.955921 0.184868
vt 0.958890 0.200841
vt 0.960071 0.200469
vt 0.959247 0.215609
vt 0.960254 0.214904
vt 0.959327 0.233214
vt 0.960193 0.232368
vt 0.959152 0.254343
vt 0.959852 0.253339
vt 0.958997 0.278382
vt 0.959579 0.277389
vt 0.958961 0.302780
vt 0.959518 0.301877
vt 0.958951 0.324782
vt 0.959577 0.324078
vt 0.959071 0.344533
vt 0.959800 0.344005
vt 0.959207 0.363285
vt 0.960012 0.362934
vt 0.979600 0.343487
vt 0.979600 0.323568
vt 0.979600 0.302280
vt 0.979600 0.279600
vt 0.979600 0.256877
vt 0.979600 0.235733
vt 0.979600 0.216873
vt 0.979600 0.199302
vt 0.979600 0.184868
vt 0.979600 0.564680
vt 0.979600 0.550157
vt 0.979600 0.534481
vt 0.979600 0.518327
vt 0.979600 0.500738
vt 0.979600 0.481200
vt 0.979600 0.460383
vt 0.979600 0.439376
vt 0.979600 0.419202
vt 0.979600 0.400046
vt 0.979600 0.381359
vt 0.979600 0.362634
vt 0.931084 0.399405
vt 0.931084 0.416785
vt 0.931084 0.435960
vt 0.931084 0.457521
vt 0.931084 0.479962
vt 0.931084 0.500490
vt 0.931084 0.517840
vt 0.931084 0.532789
vt 0.931084 0.546949
vt 0.931084 0.564680
vt 0.931084 0.184868
vt 0.931084 0.204704
vt 0.931084 0.220595
vt 0.931084 0.238470
vt 0.931084 0.260206
vt 0.931084 0.285112
vt 0.931084 0.309114
vt 0.931084 0.330109
vt 0.931084 0.348709
vt 0.931084 0.366097
vt 0.931084 0.382806
vn 0.159879 0.961802 0.222205
vn 0.220046 0.961938 0.162033
vn 0.564042 0.715965 0.411400
vn 0.409801 0.715619 0.565644
vn 0.084054 0.961720 0.260824
vn 0.215445 0.715396 0.664674
vn 0.000000 0.961691 0.274136
vn 0.000000 0.715319 0.698798
vn -0.084054 0.961720 0.260826
vn -0.215445 0.715395 0.664675
vn -0.159880 0.961803 0.222200
vn -0.409801 0.715619 0.565644
vn -0.220046 0.961939 0.162027
vn -0.564042 0.715965 0.411400
vn -0.258673 0.962111 0.086200
vn -0.663072 0.716398 0.217047
vn -0.271991 0.962297 0.002151
vn -0.697197 0.716877 0.001604
vn -0.258686 0.962483 -0.081899
vn -0.663075 0.717359 -0.213843
vn -0.220056 0.962651 -0.157730
vn -0.258686 0.962483 -0.081899
vn -0.663075 0.717359 -0.213843
vn -0.564045 0.717794 -0.408198
vn -0.159885 0.962783 -0.217914
vn -0.409802 0.718139 -0.562439
vn -0.084055 0.962870 -0.256547
vn -0.215446 0.718360 -0.661469
vn 0.000000 0.962899 -0.269860
vn 0.000000 0.718436 -0.695593
vn 0.084055 0.962870 -0.256547
vn 0.215445 0.718360 -0.661470
vn 0.159885 0.962782 -0.217914
vn 0.409803 0.718140 -0.562439
vn 0.220058 0.962650 -0.157734
vn 0.564044 0.717795 -0.408197
vn 0.258686 0.962483 -0.081900
vn 0.663073 0.717360 -0.213841
vn 0.271989 0.962298 0.002150
vn 0.697196 0.716879 0.001605
vn 0.258671 0.962112 0.086198
vn 0.663071 0.716399 0.217046
vn 0.790952 0.208867 0.575125
vn 0.574659 0.208386 0.791418
vn 0.302115 0.208074 0.930286
vn 0.000000 0.207966 0.978136
vn -0.302115 0.208074 0.930286
vn -0.574658 0.208385 0.791419
vn -0.790951 0.208865 0.575127
vn -0.929819 0.209472 0.302586
vn -0.977669 0.210148 0.000471
vn -0.929819 0.210825 -0.301645
vn -0.929819 0.210825 -0.301645
vn -0.790952 0.211434 -0.574187
vn -0.574660 0.211919 -0.790478
vn -0.302116 0.212230 -0.929346
vn -0.000000 0.212338 -0.977196
vn 0.302115 0.212231 -0.929346
vn 0.574660 0.211920 -0.790478
vn 0.790952 0.211435 -0.574187
vn 0.929819 0.210826 -0.301645
vn 0.977669 0.210148 0.000473
vn 0.929819 0.209473 0.302586
vn 0.000001 0.999997 0.002239
vn 0.000003 0.999997 0.002240
vn -0.000000 0.999997 0.002237
vn 0.000000 0.999997 0.002236
vn 0.000000 0.999997 0.002236
vn -0.000001 0.999997 0.002239
vn -0.000003 0.999997 0.002239
vn -0.000003 0.999997 0.002238
vn 0.000001 0.999997 0.002236
vn 0.000001 0.999997 0.002235
vn -0.000002 0.999997 0.002235
vn 0.000001 0.999997 0.002235
vn -0.000003 0.999997 0.002232
vn 0.000000 0.999997 0.002236
vn 0.000000 0.999997 0.002244
vn -0.000000 0.999997 0.002239
vn 0.000003 0.999997 0.002233
vn 0.000002 0.999997 0.002236
vn -0.000001 0.999997 0.002236
vn -0.000001 0.999997 0.002236
vn 0.000003 0.999997 0.002238
vn 0.807919 -0.053413 0.586869
vn 0.151120 -0.982642 0.107600
vn 0.177646 -0.982527 0.055526
vn 0.949765 -0.052790 0.308480
vn 0.586987 -0.053907 0.807800
vn 0.109796 -0.982734 0.148925
vn 0.308597 -0.054224 0.949646
vn 0.057722 -0.982794 0.175452
vn -0.000000 -0.054333 0.998523
vn -0.000000 -0.982815 0.184591
vn -0.308596 -0.054224 0.949646
vn -0.057722 -0.982794 0.175453
vn -0.586987 -0.053907 0.807800
vn -0.109796 -0.982734 0.148925
vn -0.807918 -0.053413 0.586869
vn -0.151120 -0.982642 0.107600
vn -0.949765 -0.052790 0.308480
vn -0.177646 -0.982527 0.055525
vn -0.998642 -0.052100 -0.000116
vn -0.186789 -0.982397 -0.002197
vn -0.949765 -0.051410 -0.308713
vn -0.177652 -0.982268 -0.059918
vn -0.177652 -0.982268 -0.059918
vn -0.949765 -0.051410 -0.308713
vn -0.807919 -0.050788 -0.587101
vn -0.151120 -0.982151 -0.111989
vn -0.586988 -0.050293 -0.808032
vn -0.109794 -0.982059 -0.153311
vn -0.308597 -0.049976 -0.949879
vn -0.057722 -0.982001 -0.179842
vn -0.000000 -0.049867 -0.998756
vn -0.000000 -0.981980 -0.188987
vn 0.308597 -0.049976 -0.949879
vn 0.057722 -0.982000 -0.179842
vn 0.586987 -0.050293 -0.808033
vn 0.109794 -0.982059 -0.153312
vn 0.807918 -0.050787 -0.587102
vn 0.151120 -0.982151 -0.111992
vn 0.949765 -0.051410 -0.308712
vn 0.177652 -0.982267 -0.059919
vn 0.998642 -0.052100 -0.000115
vn 0.186788 -0.982398 -0.002197
vn 0.808690 0.028498 0.587543
vn 0.171220 0.977069 0.126571
vn 0.124397 0.976965 0.173391
vn 0.587554 0.028166 0.808694
vn 0.950660 0.028918 0.308885
vn 0.201287 0.977198 0.067578
vn 0.065399 0.976897 0.203456
vn 0.308898 0.027952 0.950684
vn 0.000000 0.976874 0.213814
vn 0.000000 0.027879 0.999611
vn -0.065399 0.976898 0.203452
vn -0.308898 0.027952 0.950684
vn -0.124397 0.976965 0.173391
vn -0.587554 0.028166 0.808694
vn -0.171220 0.977069 0.126571
vn -0.808690 0.028499 0.587544
vn -0.201288 0.977198 0.067577
vn -0.950660 0.028917 0.308884
vn -0.211656 0.977342 0.002175
vn -0.999568 0.029382 -0.000003
vn -0.201305 0.977485 -0.063235
vn -0.950632 0.029846 -0.308882
vn -0.950632 0.029846 -0.308882
vn -0.201305 0.977485 -0.063235
vn -0.171238 0.977617 -0.122238
vn -0.808645 0.030266 -0.587518
vn -0.124411 0.977722 -0.169060
vn -0.587509 0.030598 -0.808639
vn -0.065407 0.977788 -0.199129
vn -0.308869 0.030812 -0.950605
vn 0.000000 0.977810 -0.209491
vn -0.000000 0.030885 -0.999523
vn 0.065408 0.977788 -0.199127
vn 0.308869 0.030812 -0.950605
vn 0.124411 0.977722 -0.169062
vn 0.587508 0.030598 -0.808639
vn 0.171238 0.977617 -0.122237
vn 0.808644 0.030266 -0.587519
vn 0.201305 0.977485 -0.063233
vn 0.950632 0.029847 -0.308882
vn 0.211656 0.977342 0.002175
vn 0.999568 0.029382 -0.000002
vn 0.951078 0.000463 -0.308950
vn 0.809052 0.000882 -0.587737
vn 0.587820 0.001214 -0.808991
vn 0.309038 0.001427 -0.951048
vn -0.000000 0.001501 -0.999999
vn -0.309038 0.001427 -0.951048
vn -0.587820 0.001214 -0.808991
vn -0.809052 0.000882 -0.587736
vn -0.951078 0.000464 -0.308950
vn -0.951078 0.000464 -0.308950
vn -1.000000 -0.000000 0.000073
vn -0.951035 -0.000464 0.309083
vn -0.808982 -0.000882 0.587833
vn -0.587750 -0.001213 0.809042
vn -0.308995 -0.001427 0.951062
vn 0.000000 -0.001500 0.999999
vn 0.308996 -0.001427 0.951062
vn 0.587750 -0.001214 0.809042
vn 0.808982 -0.000882 0.587833
vn 0.951035 -0.000464 0.309083
vn 1.000000 -0.000000 0.000075
vn 0.809017 -0.001314 0.587783
vn 0.587785 -0.001809 0.809015
vn 0.309016 -0.002127 0.951054
vn 0.000000 -0.002237 0.999997
vn -0.309016 -0.002127 0.951054
vn -0.587785 -0.001809 0.809015
vn -0.809017 -0.001314 0.587784
vn -0.951057 -0.000691 0.309016
vn -1.000000 -0.000000 0.000000
vn -0.951057 0.000691 -0.309016
vn -0.951057 0.000691 -0.309016
vn -0.809017 0.001314 -0.587784
vn -0.587786 0.001809 -0.809015
vn -0.309017 0.002127 -0.951054
vn -0.000000 0.002236 -0.999997
vn 0.309016 0.002127 -0.951054
vn 0.587785 0.001809 -0.809015
vn 0.809017 0.001314 -0.587784
vn 0.951057 0.000691 -0.309015
vn 1.000000 -0.000000 0.000002
vn 0.951057 -0.000691 0.309016
f 1/1/1 2/2/2 3/3/3
f 1/1/1 3/3/3 4/4/4
f 5/5/5 1/1/1 4/4/4
f 5/5/5 4/4/4 6/6/6
f 7/7/7 5/5/5 6/6/6
f 7/7/7 6/6/6 8/8/8
f 9/9/9 7/7/7 8/8/8
f 9/9/9 8/8/8 10/10/10
f 11/11/11 9/9/9 10/10/10
f 11/11/11 10/10/10 12/12/12
f 13/13/13 11/11/11 12/12/12
f 13/13/13 12/12/12 14/14/14
f 15/15/15 13/13/13 14/14/14
f 15/15/15 14/14/14 16/16/16
f 17/17/17 15/15/15 16/16/16
f 17/17/17 16/16/16 18/18/18
f 19/19/19 17/17/17 18/18/18
f 19/19/19 18/18/18 20/20/20
f 21/21/21 22/22/22 23/23/23
f 21/21/21 23/23/23 24/24/24
f 25/25/25 21/21/21 24/24/24
f 25/25/25 24/24/24 26/26/26
f 27/27/27 25/25/25 26/26/26
f 27/27/27 26/26/26 28/28/28
f 29/29/29 27/27/27 28/28/28
f 29/29/29 28/28/28 30/30/30
f 31/31/31 29/29/29 30/30/30
f 31/31/31 30/30/30 32/32/32
f 33/33/33 31/31/31 32/32/32
f 33/33/33 32/32/32 34/34/34
f 35/35/35 33/33/33 34/34/34
f 35/35/35 34/34/34 36/36/36
f 37/37/37 35/35/35 36/36/36
f 37/37/37 36/36/36 38/38/38
f 39/39/39 37/37/37 38/38/38
f 39/39/39 38/38/38 40/40/40
f 41/41/41 39/39/39 40/40/40
f 41/41/41 40/40/40 42/42/42
f 2/2/2 41/41/41 42/42/42
f 2/2/2 42/42/42 3/3/3
f 4/4/4 3/3/3 43/43/43
f 4/4/4 43/43/43 44/44/44
f 6/6/6 4/4/4 44/44/44
f 6/6/6 44/44/44 45/45/45
f 8/8/8 6/6/6 45/45/45
f 8/8/8 45/45/45 46/46/46
f 10/10/10 8/8/8 46/46/46
f 10/10/10 46/46/46 47/47/47
f 12/12/12 10/10/10 47/47/47
f 12/12/12 47/47/47 48/48/48
f 14/14/14 12/12/12 48/48/48
f 14/14/14 48/48/48 49/49/49
f 16/16/16 14/14/14 49/49/49
f 16/16/16 49/49/49 50/50/50
f 18/18/18 16/16/16 50/50/50
f 18/18/18 50/50/50 51/51/51
f 20/20/20 18/18/18 51/51/51
f 20/20/20 51/51/51 52/52/52
f 24/24/24 23/23/23 53/53/53
f 24/24/24 53/53/53 54/54/54
f 26/26/26 24/24/24 54/54/54
f 26/26/26 54/54/54 55/55/55
f 28/28/28 26/26/26 55/55/55
f 28/28/28 55/55/55 56/56/56
f 30/30/30 28/28/28 56/56/56
f 30/30/30 56/56/56 57/57/57
f 32/32/32 30/30/30 57/57/57
f 32/32/32 57/57/57 58/58/58
f 34/34/34 32/32/32 58/58/58
f 34/34/34 58/58/58 59/59/59
f 36/36/36 34/34/34 59/59/59
f 36/36/36 59/59/59 60/60/60
f 38/38/38 36/36/36 60/60/60
f 38/38/38 60/60/60 61/61/61
f 40/40/40 38/38/38 61/61/61
f 40/40/40 61/61/61 62/62/62
f 42/42/42 40/40/40 62/62/62
f 42/42/42 62/62/62 63/63/63
f 3/3/3 42/42/42 63/63/63
f 3/3/3 63/63/63 43/43/43
f 64/64/64 65/65/65 2/2/2
f 64/64/64 2/2/2 1/1/1
f 66/66/66 64/64/64 1/1/1
f 66/66/66 1/1/1 5/5/5
f 67/67/67 66/66/66 5/5/5
f 67/67/67 5/5/5 7/7/7
f 68/68/68 67/67/67 7/7/7
f 68/68/68 7/7/7 9/9/9
f 69/69/69 68/68/68 9/9/9
f 69/69/69 9/9/9 11/11/11
f 70/70/70 69/69/69 11/11/11
f 70/70/70 11/11/11 13/13/13
f 71/71/71 70/70/70 13/13/13
f 71/71/71 13/13/13 15/15/15
f 72/72/72 71/71/71 15/15/15
f 72/72/72 15/15/15 17/17/17
f 73/73/73 72/72/72 17/17/17
f 73/73/73 17/17/17 19/19/19
f 74/74/74 75/75/75 22/22/22
f 74/74/74 22/22/22 21/21/21
f 76/76/76 74/74/74 21/21/21
f 76/76/76 21/21/21 25/25/25
f 77/77/77 76/76/76 25/25/25
f 77/77/77 25/25/25 27/27/27
f 78/78/78 77/77/77 27/27/27
f 78/78/78 27/27/27 29/29/29
f 79/79/79 78/78/78 29/29/29
f 79/79/79 29/29/29 31/31/31
f 80/80/80 79/79/79 31/31/31
f 80/80/80 31/31/31 33/33/33
f 81/81/81 80/80/80 33/33/33
f 81/81/81 33/33/33 35/35/35
f 82/82/82 81/81/81 35/35/35
f 82/82/82 35/35/35 37/37/37
f 83/83/83 82/82/82 37/37/37
f 83/83/83 37/37/37 39/39/39
f 84/84/84 83/83/83 39/39/39
f 84/84/84 39/39/39 41/41/41
f 65/65/65 84/84/84 41/41/41
f 65/65/65 41/41/41 2/2/2
f 85/85/85 86/86/86 87/87/87
f 85/85/85 87/87/87 88/88/88
f 86/86/86 85/85/85 89/89/89
f 86/86/86 89/89/89 90/90/90
f 90/90/90 89/89/89 91/91/91
f 90/90/90 91/91/91 92/92/92
f 92/92/92 91/91/91 93/93/93
f 92/92/92 93/93/93 94/94/94
f 94/94/94 93/93/93 95/95/95
f 94/94/94 95/95/95 96/96/96
f 96/96/96 95/95/95 97/97/97
f 96/96/96 97/97/97 98/98/98
f 98/98/98 97/97/97 99/99/99
f 98/98/98 99/99/99 100/100/100
f 100/100/100 99/99/99 101/101/101
f 100/100/100 101/101/101 102/102/102
f 102/102/102 101/101/101 103/103/103
f 102/102/102 103/103/103 104/104/104
f 104/104/104 103/103/103 105/105/105
f 104/104/104 105/105/105 106/106/106
f 107/107/107 108/108/108 109/109/109
f 107/107/107 109/109/109 110/110/110
f 110/110/110 109/109/109 111/111/111
f 110/110/110 111/111/111 112/112/112
f 112/112/112 111/111/111 113/113/113
f 112/112/112 113/113/113 114/114/114
f 114/114/114 113/113/113 115/115/115
f 114/114/114 115/115/115 116/116/116
f 116/116/116 115/115/115 117/117/117
f 116/116/116 117/117/117 118/118/118
f 118/118/118 117/117/117 119/119/119
f 118/118/118 119/119/119 120/120/120
f 120/120/120 119/119/119 121/121/121
f 120/120/120 121/121/121 122/122/122
f 122/122/122 121/121/121 123/123/123
f 122/122/122 123/123/123 124/124/124
f 124/124/124 123/123/123 125/125/125
f 124/124/124 125/125/125 126/126/126
f 126/126/126 125/125/125 88/88/88
f 126/126/126 88/88/88 87/87/87
f 127/127/127 128/128/128 129/129/129
f 127/127/127 129/129/129 130/130/130
f 128/128/128 127/127/127 131/131/131
f 128/128/128 131/131/131 132/132/132
f 130/130/130 129/129/129 133/133/133
f 130/130/130 133/133/133 134/134/134
f 134/134/134 133/133/133 135/135/135
f 134/134/134 135/135/135 136/136/136
f 136/136/136 135/135/135 137/137/137
f 136/136/136 137/137/137 138/138/138
f 138/138/138 137/137/137 139/139/139
f 138/138/138 139/139/139 140/140/140
f 140/140/140 139/139/139 141/141/141
f 140/140/140 141/141/141 142/142/142
f 142/142/142 141/141/141 143/143/143
f 142/142/142 143/143/143 144/144/144
f 144/144/144 143/143/143 145/145/145
f 144/144/144 145/145/145 146/146/146
f 146/146/146 145/145/145 147/147/147
f 146/146/146 147/147/147 148/148/148
f 149/149/149 150/150/150 151/151/151
f 149/149/149 151/151/151 152/152/152
f 152/152/152 151/151/151 153/153/153
f 152/152/152 153/153/153 154/154/154
f 154/154/154 153/153/153 155/155/155
f 154/154/154 155/155/155 156/156/156
f 156/156/156 155/155/155 157/157/157
f 156/156/156 157/157/157 158/158/158
f 158/158/158 157/157/157 159/159/159
f 158/158/158 159/159/159 160/160/160
f 160/160/160 159/159/159 161/161/161
f 160/160/160 161/161/161 162/162/162
f 162/162/162 161/161/161 163/163/163
f 162/162/162 163/163/163 164/164/164
f 164/164/164 163/163/163 165/165/165
f 164/164/164 165/165/165 166/166/166
f 166/166/166 165/165/165 167/167/167
f 166/166/166 167/167/167 168/168/168
f 168/168/168 167/167/167 132/132/132
f 168/168/168 132/132/132 131/131/131
f 169/169/169 170/170/170 164/164/164
f 169/169/169 164/164/164 166/166/166
f 170/170/170 171/171/171 162/162/162
f 170/170/170 162/162/162 164/164/164
f 171/171/171 172/172/172 160/160/160
f 171/171/171 160/160/160 162/162/162
f 172/172/172 173/173/173 158/158/158
f 172/172/172 158/158/158 160/160/160
f 173/173/173 174/174/174 156/156/156
f 173/173/173 156/156/156 158/158/158
f 174/174/174 175/175/175 154/154/154
f 174/174/174 154/154/154 156/156/156
f 175/175/175 176/176/176 152/152/152
f 175/175/175 152/152/152 154/154/154
f 176/176/176 177/177/177 149/149/149
f 176/176/176 149/149/149 152/152/152
f 178/178/178 179/179/179 146/146/146
f 178/178/178 146/146/146 148/148/148
f 179/179/179 180/180/180 144/144/144
f 179/179/179 144/144/144 146/146/146
f 180/180/180 181/181/181 142/142/142
f 180/180/180 142/142/142 144/144/144
f 181/181/181 182/182/182 140/140/140
f 181/181/181 140/140/140 142/142/142
f 182/182/182 183/183/183 138/138/138
f 182/182/182 138/138/138 140/140/140
f 183/183/183 184/184/184 136/136/136
f 183/183/183 136/136/136 138/138/138
f 184/184/184 185/185/185 134/134/134
f 184/184/184 134/134/134 136/136/136
f 185/185/185 186/186/186 130/130/130
f 185/185/185 130/130/130 134/134/134
f 186/186/186 187/187/187 127/127/127
f 186/186/186 127/127/127 130/130/130
f 187/187/187 188/188/188 131/131/131
f 187/187/187 131/131/131 127/127/127
f 188/188/188 189/189/189 168/168/168
f 188/188/188 168/168/168 131/131/131
f 189/189/189 169/169/169 166/166/166
f 189/189/189 166/166/166 168/168/168
f 89/89/89 85/85/85 190/190/190
f 89/89/89 190/190/190 191/191/191
f 91/91/91 89/89/89 191/191/191
f 91/91/91 191/191/191 192/192/192
f 93/93/93 91/91/91 192/192/192
f 93/93/93 192/192/192 193/193/193
f 95/95/95 93/93/93 193/193/193
f 95/95/95 193/193/193 194/194/194
f 97/97/97 95/95/95 194/194/194
f 97/97/97 194/194/194 195/195/195
f 99/99/99 97/97/97 195/195/195
f 99/99/99 195/195/195 196/196/196
f 101/101/101 99/99/99 196/196/196
f 101/101/101 196/196/196 197/197/197
f 103/103/103 101/101/101 197/197/197
f 103/103/103 197/197/197 198/198/198
f 105/105/105 103/103/103 198/198/198
f 105/105/105 198/198/198 199/199/199
f 109/109/109 108/108/108 200/200/200
f 109/109/109 200/200/200 201/201/201
f 111/111/111 109/109/109 201/201/201
f 111/111/111 201/201/201 202/202/202
f 113/113/113 111/111/111 202/202/202
f 113/113/113 202/202/202 203/203/203
f 115/115/115 113/113/113 203/203/203
f 115/115/115 203/203/203 204/204/204
f 117/117/117 115/115/115 204/204/204
f 117/117/117 204/204/204 205/205/205
f 119/119/119 117/117/117 205/205/205
f 119/119/119 205/205/205 206/206/206
f 121/121/121 119/119/119 206/206/206
f 121/121/121 206/206/206 207/207/207
f 123/123/123 121/121/121 207/207/207
f 123/123/123 207/207/207 208/208/208
f 125/125/125 123/123/123 208/208/208
f 125/125/125 208/208/208 209/209/209
f 88/88/88 125/125/125 209/209/209
f 88/88/88 209/209/209 210/210/210
f 85/85/85 88/88/88 210/210/210
f 85/85/85 210/210/210 190/190/190
f 129/129/129 128/128/128 65/65/65
f 129/129/129 65/65/65 64/64/64
f 86/86/86 90/90/90 44/44/44
f 86/86/86 44/44/44 43/43/43
f 133/133/133 129/129/129 64/64/64
f 133/133/133 64/64/64 66/66/66
f 90/90/90 92/92/92 45/45/45
f 90/90/90 45/45/45 44/44/44
f 135/135/135 133/133/133 66/66/66
f 135/135/135 66/66/66 67/67/67
f 92/92/92 94/94/94 46/46/46
f 92/92/92 46/46/46 45/45/45
f 137/137/137 135/135/135 67/67/67
f 137/137/137 67/67/67 68/68/68
f 94/94/94 96/96/96 47/47/47
f 94/94/94 47/47/47 46/46/46
f 139/139/139 137/137/137 68/68/68
f 139/139/139 68/68/68 69/69/69
f 96/96/96 98/98/98 48/48/48
f 96/96/96 48/48/48 47/47/47
f 141/141/141 139/139/139 69/69/69
f 141/141/141 69/69/69 70/70/70
f 98/98/98 100/100/100 49/49/49
f 98/98/98 49/49/49 48/48/48
f 143/143/143 141/141/141 70/70/70
f 143/143/143 70/70/70 71/71/71
f 100/100/100 102/102/102 50/50/50
f 100/100/100 50/50/50 49/49/49
f 145/145/145 143/143/143 71/71/71
f 145/145/145 71/71/71 72/72/72
f 102/102/102 104/104/104 51/51/51
f 102/102/102 51/51/51 50/50/50
f 147/147/147 145/145/145 72/72/72
f 147/147/147 72/72/72 73/73/73
f 104/104/104 106/106/106 52/52/52
f 104/104/104 52/52/52 51/51/51
f 151/151/151 150/150/150 75/75/75
f 151/151/151 75/75/75 74/74/74
f 107/107/107 110/110/110 54/54/54
f 107/107/107 54/54/54 53/53/53
f 153/153/153 151/151/151 74/74/74
f 153/153/153 74/74/74 76/76/76
f 110/110/110 112/112/112 55/55/55
f 110/110/110 55/55/55 54/54/54
f 155/155/155 153/153/153 76/76/76
f 155/155/155 76/76/76 77/77/77
f 112/112/112 114/114/114 56/56/56
f 112/112/112 56/56/56 55/55/55
f 157/157/157 155/155/155 77/77/77
f 157/157/157 77/77/77 78/78/78
f 114/114/114 116/116/116 57/57/57
f 114/114/114 57/57/57 56/56/56
f 159/159/159 157/157/157 78/78/78
f 159/159/159 78/78/78 79/79/79
f 116/116/116 118/118/118 58/58/58
f 116/116/116 58/58/58 57/57/57
f 161/161/161 159/159/159 79/79/79
f 161/161/161 79/79/79 80/80/80
f 118/118/118 120/120/120 59/59/59
f 118/118/118 59/59/59 58/58/58
f 163/163/163 161/161/161 80/80/80
f 163/163/163 80/80/80 81/81/81
f 120/120/120 122/122/122 60/60/60
f 120/120/120 60/60/60 59/59/59
f 165/165/165 163/163/163 81/81/81
f 165/165/165 81/81/81 82/82/82
f 122/122/122 124/124/124 61/61/61
f 122/122/122 61/61/61 60/60/60
f 167/167/167 165/165/165 82/82/82
f 167/167/167 82/82/82 83/83/83
f 124/124/124 126/126/126 62/62/62
f 124/124/124 62/62/62 61/61/61
f 132/132/132 167/167/167 83/83/83
f 132/132/132 83/83/83 84/84/84
f 126/126/126 87/87/87 63/63/63
f 126/126/126 63/63/63 62/62/62
f 128/128/128 132/132/132 84/84/84
f 128/128/128 84/84/84 65/65/65
f 87/87/87 86/86/86 43/43/43
f 87/87/87 43/43/43 63/63/63
