# Exported from tank-game Tank_002.fbx mesh Turret_Head
v 0.884190 -2.345346 -2.254487
v 0.868370 -2.336255 -2.257202
v 0.866329 -2.394504 -2.298413
v 0.882353 -2.398519 -2.290545
v 0.864538 -2.473895 -2.296560
v 0.880740 -2.470394 -2.288411
v 0.868669 -2.318805 -2.263177
v 0.866220 -2.387122 -2.314724
v 0.864073 -2.481593 -2.313418
v 0.884787 -2.310446 -2.266437
v 0.882132 -2.383910 -2.323114
v 0.879810 -2.485789 -2.322126
v 0.900607 -2.319537 -2.263723
v 0.898157 -2.387855 -2.315270
v 0.896011 -2.482325 -2.313964
v 0.900308 -2.336988 -2.257748
v 0.898267 -2.395237 -2.298959
v 0.896476 -2.474628 -2.297106
v 0.884190 -2.345346 -2.254487
v 0.882353 -2.398519 -2.290545
v 0.880740 -2.470394 -2.288411
v 0.888664 -2.274211 -2.088273
v 0.872844 -2.265120 -2.090988
v 0.873143 -2.247669 -2.096963
v 0.889261 -2.239312 -2.100223
v 0.905080 -2.248403 -2.097509
v 0.904782 -2.265853 -2.091534
v 0.888664 -2.274211 -2.088273
v 0.892700 -2.228665 -1.913297
v 0.893286 -2.248613 -1.852202
v 0.877570 -2.240379 -1.847731
v 0.876880 -2.219574 -1.916011
v 0.892677 -2.306727 -1.809826
v 0.876910 -2.304260 -1.800526
v 0.878076 -2.224558 -1.839365
v 0.877178 -2.202124 -1.921986
v 0.877316 -2.300023 -1.782484
v 0.894296 -2.217126 -1.835416
v 0.893297 -2.193765 -1.925247
v 0.893488 -2.298252 -1.773742
v 0.910014 -2.225291 -1.839911
v 0.909117 -2.202856 -1.922533
v 0.909254 -2.300756 -1.783030
v 0.909508 -2.241112 -1.848277
v 0.908818 -2.220307 -1.916557
v 0.908848 -2.304993 -1.801072
v 0.893286 -2.248613 -1.852202
v 0.892700 -2.228665 -1.913297
v 0.892677 -2.306727 -1.809826
v 0.000000 -1.422259 -1.191926
v 0.710571 -1.422443 -1.110174
v 0.865777 -1.415496 -0.935667
v 1.184799 -1.401216 -0.576974
v 1.144825 -1.365753 0.519717
v 0.000000 -1.366363 0.541870
v 0.994292 -1.333375 1.540077
v 0.000000 -1.334447 1.516240
v 0.876353 -1.314541 -0.949707
v 1.022440 -1.018024 -1.109635
v 1.345415 -1.004348 -0.733196
v 1.196540 -1.295559 -0.589661
v 0.865777 -1.415496 -0.935667
v 0.876353 -1.314541 -0.949707
v 1.184799 -1.401216 -0.576974
v 0.000000 -1.022790 -1.422007
v 0.865311 -1.024677 -1.292776
v 0.720579 -1.323776 -1.124872
v 0.000000 -1.310225 -1.212673
v 0.710571 -1.422443 -1.110174
v 0.000000 -1.422259 -1.191926
v 1.196540 -1.295559 -0.589661
v 1.144825 -1.268751 0.519756
v 1.144825 -1.365753 0.519717
v 1.184799 -1.401216 -0.576974
v 1.320463 -1.019557 0.519857
v 1.345415 -1.004348 -0.733196
v 0.755643 -1.317356 1.975727
v 0.942687 -1.322275 1.882262
v 0.943888 -1.223808 1.920737
v 0.759770 -1.187874 2.039001
v 1.047583 -1.013942 2.023762
v 0.855946 -1.016740 2.122818
v 0.000000 -1.317485 2.034052
v 0.000000 -1.236235 2.073957
v 1.001008 -1.236584 1.528841
v 0.994292 -1.333375 1.540077
v 1.152053 -1.015378 1.545194
v 1.174536 -1.015936 1.408306
v 0.000000 -0.056375 0.516379
v 0.920502 -0.057336 0.514500
v 0.910036 -0.137714 -0.450248
v 0.673963 -0.169355 -0.707618
v 0.559112 -0.184749 -0.832830
v 0.000000 -0.189377 -0.894364
v 0.000000 -0.066135 1.460166
v 0.802221 -0.067237 1.363371
v 0.000000 -0.108885 1.699253
v 0.000000 -0.133251 1.732198
v 0.757917 -0.133116 1.673706
v 0.746778 -0.108755 1.641604
v 0.000000 -0.299684 -1.155433
v 0.000000 -0.269938 -1.128814
v 0.674922 -0.263910 -1.054615
v 0.689690 -0.293460 -1.079472
v 0.938870 -0.163737 1.679701
v 0.917496 -0.138756 1.655988
v 0.848063 -0.272220 -0.906812
v 0.829591 -0.243167 -0.885995
v 1.147506 -0.200529 -0.539404
v 1.173594 -0.228562 -0.551914
v 1.148985 -0.134456 0.520282
v 1.122458 -0.107347 0.519700
v 1.003146 -0.115147 1.389613
v 1.024216 -0.140164 1.414526
v 1.173594 -0.228562 -0.551914
v 1.147506 -0.200529 -0.539404
v 0.895680 -0.476056 -0.962114
v 0.848063 -0.272220 -0.906812
v 1.222089 -0.447517 -0.603078
v 0.736880 -0.489941 -1.136788
v 0.000000 -0.488787 -1.225146
v 1.196320 -0.378779 0.520165
v 1.222089 -0.447517 -0.603078
v 1.120417 -0.550124 1.253656
v 1.124942 -0.405031 1.063370
v 0.829591 -0.243167 -0.885995
v 0.673963 -0.169355 -0.707618
v 0.709282 -1.118949 2.077760
v 0.000000 -1.164275 2.110658
v 0.775395 -1.003190 2.138134
v 0.685157 -0.205179 1.715926
v 0.000000 -0.205254 1.768895
v 0.938870 -0.163737 1.679701
v 1.047583 -1.013942 2.023762
v 0.943888 -1.223808 1.920737
v 0.942687 -1.322275 1.882262
v 0.942687 -1.322275 1.882262
v 0.755643 -1.317356 1.975727
v 0.000000 -1.317485 2.034052
v 1.419685 -1.016282 0.528979
v 1.272745 -1.013503 1.392063
v 1.239180 -1.014187 1.416830
v 1.436959 -0.995674 -0.797713
v 1.022440 -1.018024 -1.109635
v 1.083333 -1.007312 -1.209060
v 1.436959 -0.995674 -0.797713
v 0.000000 -1.011111 -1.552958
v 0.911291 -1.012974 -1.409183
v -1.144825 -1.365753 0.519717
v -1.184799 -1.401216 -0.576974
v -0.900478 -1.413943 -0.896651
v -0.710571 -1.422443 -1.110174
v -0.994292 -1.333375 1.540077
v -0.865311 -1.024677 -1.292776
v -0.720579 -1.323776 -1.124872
v -0.911180 -1.312477 -0.910544
v -1.057571 -1.016536 -1.068689
v -0.710571 -1.422443 -1.110174
v -0.900478 -1.413943 -0.896651
v -0.911180 -1.312477 -0.910544
v -1.196540 -1.295559 -0.589661
v -1.184799 -1.401216 -0.576974
v -1.144825 -1.365753 0.519717
v -1.144825 -1.268751 0.519756
v -1.320463 -1.019557 0.519857
v -1.345415 -1.004348 -0.733196
v -0.755643 -1.317356 1.975727
v -0.759770 -1.187874 2.039001
v -0.943888 -1.223808 1.920737
v -0.942687 -1.322275 1.882262
v -0.855946 -1.016740 2.122818
v -1.047583 -1.013942 2.023762
v -1.001008 -1.236584 1.528841
v -0.994292 -1.333375 1.540077
v -1.152053 -1.015378 1.545194
v -1.174536 -1.015936 1.408306
v -0.559112 -0.184749 -0.832830
v -0.699642 -0.165914 -0.679623
v -0.910036 -0.137714 -0.450248
v -0.920502 -0.057336 0.514500
v -0.802221 -0.067237 1.363371
v -0.746778 -0.108755 1.641604
v -0.757917 -0.133116 1.673706
v -0.689690 -0.293460 -1.079472
v -0.674922 -0.263910 -1.054615
v -0.917496 -0.138756 1.655988
v -0.938870 -0.163737 1.679701
v -0.883472 -0.267471 -0.868209
v -0.864171 -0.238529 -0.848296
v -1.148985 -0.134456 0.520282
v -1.024216 -0.140164 1.414526
v -1.003146 -0.115147 1.389613
v -1.122458 -0.107347 0.519700
v -1.147506 -0.200529 -0.539404
v -1.173594 -0.228562 -0.551914
v -0.736880 -0.489941 -1.136788
v -0.931184 -0.472952 -0.923061
v -0.883472 -0.267471 -0.868209
v -1.222089 -0.447517 -0.603078
v -1.196320 -0.378779 0.520165
v -1.124942 -0.405031 1.063370
v -1.120417 -0.550124 1.253656
v -0.864171 -0.238529 -0.848296
v -0.699642 -0.165914 -0.679623
v -0.709282 -1.118949 2.077760
v -0.775395 -1.003190 2.138134
v -0.685157 -0.205179 1.715926
v -0.938870 -0.163737 1.679701
v -1.047583 -1.013942 2.023762
v -0.943888 -1.223808 1.920737
v -0.942687 -1.322275 1.882262
v -0.755643 -1.317356 1.975727
v -0.942687 -1.322275 1.882262
v -1.239180 -1.014187 1.416830
v -1.272745 -1.013503 1.392063
v -1.419685 -1.016282 0.528979
v -1.436959 -0.995674 -0.797713
v -1.057571 -1.016536 -1.068689
v -1.121797 -1.006046 -1.164317
v -0.911291 -1.012974 -1.409183
v 1.221811 -0.439637 1.068090
v 1.187435 -0.409889 1.076935
v 1.182776 -0.559321 1.256558
v 1.219208 -0.578621 1.235849
v 1.296867 -0.411528 0.525167
v 1.261631 -0.382236 0.536764
v 1.314835 -0.477231 -0.670865
v 1.279694 -0.449637 -0.651539
v 1.239180 -1.014187 1.416830
v 1.272745 -1.013503 1.392063
v 1.279694 -0.449637 -0.651539
v 1.314835 -0.477231 -0.670865
v 0.957016 -0.504259 -1.064788
v 0.927761 -0.476862 -1.038998
v 0.756543 -0.490107 -1.227500
v 0.782935 -0.517409 -1.256434
v 0.000000 -0.516274 -1.358472
v 0.000000 -0.489010 -1.319217
v -0.782935 -0.517409 -1.256434
v -0.756543 -0.490107 -1.227500
v -1.187435 -0.409889 1.076935
v -1.221811 -0.439637 1.068090
v -1.219208 -0.578621 1.235849
v -1.182776 -0.559321 1.256558
v -1.261631 -0.382236 0.536764
v -1.296867 -0.411528 0.525167
v -1.279694 -0.449637 -0.651539
v -1.314835 -0.477231 -0.670865
v -1.272745 -1.013503 1.392063
v -1.239180 -1.014187 1.416830
v -0.995937 -0.501319 -1.021940
v -0.966042 -0.473901 -0.996853
v 1.419685 -1.016282 0.528979
v 1.355290 -0.699201 0.526980
v 1.355290 -0.699201 0.526980
v 1.372928 -0.723846 -0.731204
v 1.017103 -0.743554 -1.133416
v 0.957016 -0.504259 -1.064788
v 1.372928 -0.723846 -0.731204
v 0.843992 -0.753142 -1.329095
v 0.000000 -0.751660 -1.450986
v 1.196320 -0.378779 0.520165
v 1.124942 -0.405031 1.063370
v 1.120417 -0.550124 1.253656
v 1.174536 -1.015936 1.408306
v 1.222089 -0.447517 -0.603078
v 0.927761 -0.476862 -1.038998
v 0.895680 -0.476056 -0.962114
v 1.222089 -0.447517 -0.603078
v 0.000000 -0.488787 -1.225146
v 0.736880 -0.489941 -1.136788
v -1.355290 -0.699201 0.526980
v -1.419685 -1.016282 0.528979
v -1.372928 -0.723846 -0.731204
v -1.355290 -0.699201 0.526980
v -0.843992 -0.753142 -1.329095
v -1.055807 -0.741410 -1.089666
v -0.995937 -0.501319 -1.021940
v 0.000000 -0.751660 -1.450986
v -1.196320 -0.378779 0.520165
v -1.124942 -0.405031 1.063370
v -1.120417 -0.550124 1.253656
v -1.174536 -1.015936 1.408306
v -1.222089 -0.447517 -0.603078
v -0.736880 -0.489941 -1.136788
v -0.966042 -0.473901 -0.996853
v -0.931184 -0.472952 -0.923061
v 0.726551 -0.294709 0.322187
v 0.619403 -0.301142 0.111995
v 0.619403 0.001676 0.102728
v 0.726551 0.008108 0.312920
v 0.452516 -0.306246 -0.054814
v 0.452516 -0.003428 -0.064080
v 0.242226 -0.309524 -0.161911
v 0.242226 -0.006706 -0.171178
v 0.009118 -0.310653 -0.198815
v 0.009118 -0.007835 -0.208082
v -0.223990 -0.309524 -0.161911
v -0.223990 -0.006706 -0.171178
v -0.434280 -0.306246 -0.054814
v -0.434280 -0.003428 -0.064080
v -0.601167 -0.301142 0.111995
v -0.601167 0.001676 0.102729
v -0.708315 -0.294709 0.322187
v -0.708315 0.008108 0.312920
v -0.745236 -0.287579 0.555186
v -0.745236 0.015238 0.545919
v -0.708315 -0.280449 0.788185
v -0.708315 0.022369 0.778918
v -0.601167 -0.274016 0.998376
v -0.601167 0.028802 0.989109
v -0.434280 -0.268912 1.165185
v -0.434280 0.033906 1.155918
v -0.223990 -0.265635 1.272283
v -0.223990 0.037182 1.263016
v 0.009118 -0.264505 1.309186
v 0.009118 0.038313 1.299919
v 0.242226 -0.265635 1.272283
v 0.242226 0.037182 1.263016
v 0.452515 -0.268912 1.165185
v 0.452515 0.033906 1.155918
v 0.619402 -0.274016 0.998376
v 0.619402 0.028802 0.989109
v 0.726550 -0.280449 0.788184
v 0.726550 0.022369 0.778918
v 0.763471 -0.287579 0.555186
v 0.763471 0.015238 0.545919
v 0.216653 0.171486 0.473673
v 0.185658 0.169625 0.412871
v 0.137382 0.168148 0.364617
v 0.076550 0.167200 0.333636
v 0.009118 0.166873 0.322961
v -0.058314 0.167200 0.333636
v -0.119146 0.168148 0.364617
v -0.167422 0.169625 0.412870
v -0.198417 0.171486 0.473674
v -0.209098 0.173547 0.541074
v -0.198417 0.175610 0.608475
v -0.167422 0.177472 0.669278
v -0.119146 0.178948 0.717531
v -0.058314 0.179895 0.748512
v 0.009118 0.180222 0.759187
v 0.076550 0.179895 0.748512
v 0.137381 0.178948 0.717531
v 0.185657 0.177472 0.669278
v 0.216653 0.175610 0.608475
v 0.227333 0.173547 0.541074
v 0.726551 0.008108 0.312920
v 0.619403 0.001676 0.102728
v 0.432862 0.095545 0.235449
v 0.507259 0.100013 0.381393
v 0.452516 -0.003428 -0.064080
v 0.316986 0.092002 0.119627
v 0.242226 -0.006706 -0.171178
v 0.170974 0.089726 0.045265
v 0.009118 -0.007835 -0.208082
v 0.009118 0.088942 0.019642
v -0.223990 -0.006706 -0.171178
v -0.152738 0.089726 0.045265
v -0.434280 -0.003428 -0.064080
v -0.298750 0.092002 0.119627
v -0.601167 0.001676 0.102729
v -0.414626 0.095545 0.235449
v -0.708315 0.008108 0.312920
v -0.489023 0.100013 0.381393
v -0.745236 0.015238 0.545919
v -0.514659 0.104963 0.543173
v -0.708315 0.022369 0.778918
v -0.489023 0.109913 0.704953
v -0.601167 0.028802 0.989109
v -0.414626 0.114380 0.850897
v -0.434280 0.033906 1.155918
v -0.298750 0.117924 0.966719
v -0.223990 0.037182 1.263016
v -0.152738 0.120200 1.041081
v 0.009118 0.038313 1.299919
v 0.009118 0.120984 1.066704
v 0.242226 0.037182 1.263016
v 0.170973 0.120200 1.041081
v 0.452515 0.033906 1.155918
v 0.316986 0.117924 0.966719
v 0.619402 0.028802 0.989109
v 0.432862 0.114380 0.850897
v 0.726550 0.022369 0.778918
v 0.507259 0.109913 0.704953
v 0.763471 0.015238 0.545919
v 0.532894 0.104963 0.543173
v 0.076550 0.150491 0.749412
v 0.009118 0.150818 0.760087
v -0.058314 0.150491 0.749412
v -0.119146 0.149543 0.718431
v -0.167422 0.148067 0.670178
v -0.198417 0.146206 0.609375
v -0.209098 0.144143 0.541974
v -0.198417 0.142081 0.474574
v -0.167422 0.140220 0.413770
v -0.119146 0.138743 0.365517
v -0.058314 0.137795 0.334536
v 0.009118 0.137468 0.323861
v 0.076550 0.137795 0.334536
v 0.137382 0.138743 0.365517
v 0.185658 0.140220 0.413770
v 0.216653 0.142081 0.474573
v 0.227333 0.144143 0.541974
v 0.216653 0.146206 0.609375
v 0.185657 0.148067 0.670178
v 0.137381 0.149543 0.718431
v 0.216653 0.142081 0.474573
v 0.185658 0.140220 0.413770
v 0.185658 0.169625 0.412871
v 0.216653 0.171486 0.473673
v 0.137382 0.138743 0.365517
v 0.137382 0.168148 0.364617
v 0.076550 0.137795 0.334536
v 0.076550 0.167200 0.333636
v 0.009118 0.137468 0.323861
v 0.009118 0.166873 0.322961
v -0.058314 0.137795 0.334536
v -0.058314 0.167200 0.333636
v -0.119146 0.138743 0.365517
v -0.119146 0.168148 0.364617
v -0.167422 0.140220 0.413770
v -0.167422 0.169625 0.412870
v -0.198417 0.142081 0.474574
v -0.198417 0.171486 0.473674
v -0.209098 0.144143 0.541974
v -0.209098 0.173547 0.541074
v -0.198417 0.146206 0.609375
v -0.198417 0.175610 0.608475
v -0.167422 0.148067 0.670178
v -0.167422 0.177472 0.669278
v -0.119146 0.149543 0.718431
v -0.119146 0.178948 0.717531
v -0.058314 0.150491 0.749412
v -0.058314 0.179895 0.748512
v 0.009118 0.150818 0.760087
v 0.009118 0.180222 0.759187
v 0.076550 0.150491 0.749412
v 0.076550 0.179895 0.748512
v 0.137381 0.149543 0.718431
v 0.137381 0.178948 0.717531
v 0.185657 0.148067 0.670178
v 0.185657 0.177472 0.669278
v 0.216653 0.146206 0.609375
v 0.216653 0.175610 0.608475
v 0.227333 0.144143 0.541974
v 0.227333 0.173547 0.541074
v -0.186217 0.159894 1.040437
v -0.186217 0.166032 1.057833
v -0.244092 0.124955 1.050173
v -0.237570 0.121900 1.033353
v -0.268064 0.050509 1.036292
v -0.258840 0.054356 1.020758
v -0.186217 0.184167 1.061214
v -0.257136 0.137012 1.052421
v -0.286511 0.048711 1.035957
v -0.186217 0.196163 1.047200
v -0.263657 0.145852 1.037819
v -0.295734 0.050760 1.020088
v -0.186217 0.190024 1.029804
v -0.257136 0.142869 1.021012
v -0.286511 0.054568 1.004547
v -0.186217 0.171889 1.026423
v -0.244092 0.130812 1.018764
v -0.268064 0.056366 1.004882
v -0.186217 0.159894 1.040437
v -0.237570 0.121900 1.033353
v -0.258840 0.054356 1.020758
v -0.005872 0.173191 1.042916
v -0.005872 0.179329 1.060312
v -0.005872 0.197464 1.063693
v -0.005872 0.209459 1.049679
v -0.005872 0.203321 1.032284
v -0.005872 0.185186 1.028902
v -0.005872 0.173191 1.042916
v 0.174474 0.159894 1.040437
v 0.225826 0.121900 1.033353
v 0.232348 0.124955 1.050173
v 0.174474 0.166032 1.057833
v 0.247097 0.054356 1.020758
v 0.256320 0.050509 1.036292
v 0.245392 0.137012 1.052421
v 0.174474 0.184167 1.061214
v 0.274767 0.048711 1.035957
v 0.251914 0.145852 1.037819
v 0.174474 0.196163 1.047200
v 0.283991 0.050760 1.020088
v 0.245392 0.142869 1.021012
v 0.174474 0.190024 1.029804
v 0.274767 0.054568 1.004547
v 0.232348 0.130812 1.018764
v 0.174474 0.171889 1.026423
v 0.256320 0.056366 1.004882
v 0.225826 0.121900 1.033353
v 0.174474 0.159894 1.040437
v 0.247097 0.054356 1.020758
v -0.443820 -0.136203 -0.522418
v -0.514127 -0.136203 -0.522418
v -0.507314 0.009471 -0.518130
v -0.450633 0.009471 -0.518130
v -0.514127 -0.136203 -0.522418
v -0.549296 -0.135981 -0.463045
v -0.535668 0.014758 -0.469334
v -0.507314 0.009471 -0.518130
v -0.549296 -0.135981 -0.463045
v -0.514143 -0.135759 -0.403645
v -0.507327 0.020044 -0.420514
v -0.535668 0.014758 -0.469334
v -0.514143 -0.135759 -0.403645
v -0.443804 -0.135759 -0.403645
v -0.450620 0.020044 -0.420514
v -0.507327 0.020044 -0.420514
v -0.443804 -0.135759 -0.403645
v -0.408651 -0.135981 -0.463045
v -0.422279 0.014758 -0.469334
v -0.450620 0.020044 -0.420514
v -0.408651 -0.135981 -0.463045
v -0.443820 -0.136203 -0.522418
v -0.450633 0.009471 -0.518130
v -0.422279 0.014758 -0.469334
v -0.474910 1.899704 -1.089819
v -0.483037 1.899704 -1.089819
v -0.487101 1.903179 -1.083699
v -0.483037 1.906655 -1.077579
v -0.474910 1.906655 -1.077579
v -0.470846 1.903179 -1.083699
v -0.465660 0.440246 -0.512834
v -0.452346 0.433772 -0.534966
v -0.455358 0.805902 -0.631935
v -0.467166 0.811644 -0.612305
v -0.492287 0.440246 -0.512834
v -0.465660 0.440246 -0.512834
v -0.467166 0.811644 -0.612305
v -0.490781 0.811644 -0.612305
v -0.505601 0.433772 -0.534966
v -0.492287 0.440246 -0.512834
v -0.490781 0.811644 -0.612305
v -0.502589 0.805902 -0.631935
v -0.492287 0.427298 -0.557099
v -0.505601 0.433772 -0.534966
v -0.502589 0.805902 -0.631935
v -0.490781 0.800161 -0.651564
v -0.465660 0.427298 -0.557099
v -0.492287 0.427298 -0.557099
v -0.490781 0.800161 -0.651564
v -0.467166 0.800161 -0.651564
v -0.452346 0.433772 -0.534966
v -0.465660 0.427298 -0.557099
v -0.467166 0.800161 -0.651564
v -0.455358 0.805902 -0.631935
v -0.468609 1.167716 -0.725042
v -0.458245 1.162676 -0.742272
v -0.461176 1.490289 -0.880032
v -0.470075 1.495946 -0.865802
v -0.489338 1.167716 -0.725042
v -0.468609 1.167716 -0.725042
v -0.470075 1.495946 -0.865802
v -0.487872 1.495946 -0.865802
v -0.499702 1.162676 -0.742272
v -0.489338 1.167716 -0.725042
v -0.487872 1.495946 -0.865802
v -0.496771 1.490289 -0.880032
v -0.489338 1.157637 -0.759501
v -0.499702 1.162676 -0.742272
v -0.496771 1.490289 -0.880032
v -0.487872 1.484632 -0.894261
v -0.468609 1.157637 -0.759501
v -0.489338 1.157637 -0.759501
v -0.487872 1.484632 -0.894261
v -0.470075 1.484632 -0.894261
v -0.458245 1.162676 -0.742272
v -0.468609 1.157637 -0.759501
v -0.470075 1.484632 -0.894261
v -0.461176 1.490289 -0.880032
v -0.463961 0.028796 -0.499398
v -0.493986 0.028796 -0.499398
v -0.492287 0.427298 -0.557099
v -0.465660 0.427298 -0.557099
v -0.448948 0.033250 -0.473779
v -0.463961 0.028796 -0.499398
v -0.465660 0.427298 -0.557099
v -0.452346 0.433772 -0.534966
v -0.463961 0.037704 -0.448161
v -0.448948 0.033250 -0.473779
v -0.452346 0.433772 -0.534966
v -0.465660 0.440246 -0.512834
v -0.493986 0.037704 -0.448161
v -0.463961 0.037704 -0.448161
v -0.465660 0.440246 -0.512834
v -0.492287 0.440246 -0.512834
v -0.508999 0.033250 -0.473779
v -0.493986 0.037704 -0.448161
v -0.492287 0.440246 -0.512834
v -0.505601 0.433772 -0.534966
v -0.493986 0.028796 -0.499398
v -0.508999 0.033250 -0.473779
v -0.505601 0.433772 -0.534966
v -0.492287 0.427298 -0.557099
v -0.493986 0.028796 -0.499398
v -0.463961 0.028796 -0.499398
v -0.450633 0.009471 -0.518130
v -0.507314 0.009471 -0.518130
v -0.508999 0.033250 -0.473779
v -0.493986 0.028796 -0.499398
v -0.507314 0.009471 -0.518130
v -0.535668 0.014758 -0.469334
v -0.493986 0.037704 -0.448161
v -0.507327 0.020044 -0.420514
v -0.463961 0.037704 -0.448161
v -0.450620 0.020044 -0.420514
v -0.448948 0.033250 -0.473779
v -0.422279 0.014758 -0.469334
v -0.466083 1.813194 -1.061651
v -0.491864 1.813194 -1.061651
v -0.484827 1.894777 -1.090586
v -0.473120 1.894777 -1.090586
v -0.491864 1.813194 -1.061651
v -0.504754 1.824220 -1.042237
v -0.490680 1.899784 -1.081770
v -0.484827 1.894777 -1.090586
v -0.504754 1.824220 -1.042237
v -0.491864 1.835247 -1.022823
v -0.484827 1.904791 -1.072955
v -0.490680 1.899784 -1.081770
v -0.491864 1.835247 -1.022823
v -0.466083 1.835247 -1.022823
v -0.473120 1.904791 -1.072955
v -0.484827 1.904791 -1.072955
v -0.466083 1.835247 -1.022823
v -0.453193 1.824220 -1.042237
v -0.467267 1.899784 -1.081770
v -0.473120 1.904791 -1.072955
v -0.453193 1.824220 -1.042237
v -0.466083 1.813194 -1.061651
v -0.473120 1.894777 -1.090586
v -0.467267 1.899784 -1.081770
v -0.471606 1.811762 -1.049837
v -0.486341 1.811762 -1.049837
v -0.491864 1.813194 -1.061651
v -0.466083 1.813194 -1.061651
v -0.483037 1.899704 -1.089819
v -0.474910 1.899704 -1.089819
v -0.473120 1.894777 -1.090586
v -0.484827 1.894777 -1.090586
v -0.486341 1.811762 -1.049837
v -0.493709 1.818064 -1.038741
v -0.504754 1.824220 -1.042237
v -0.491864 1.813194 -1.061651
v -0.487101 1.903179 -1.083699
v -0.483037 1.899704 -1.089819
v -0.484827 1.894777 -1.090586
v -0.490680 1.899784 -1.081770
v -0.493709 1.818064 -1.038741
v -0.486341 1.824366 -1.027644
v -0.491864 1.835247 -1.022823
v -0.504754 1.824220 -1.042237
v -0.483037 1.906655 -1.077579
v -0.487101 1.903179 -1.083699
v -0.490680 1.899784 -1.081770
v -0.484827 1.904791 -1.072955
v -0.486341 1.824366 -1.027644
v -0.471606 1.824366 -1.027644
v -0.466083 1.835247 -1.022823
v -0.491864 1.835247 -1.022823
v -0.474910 1.906655 -1.077579
v -0.483037 1.906655 -1.077579
v -0.484827 1.904791 -1.072955
v -0.473120 1.904791 -1.072955
v -0.471606 1.824366 -1.027644
v -0.464238 1.818064 -1.038741
v -0.453193 1.824220 -1.042237
v -0.466083 1.835247 -1.022823
v -0.470846 1.903179 -1.083699
v -0.474910 1.906655 -1.077579
v -0.473120 1.904791 -1.072955
v -0.467267 1.899784 -1.081770
v -0.464238 1.818064 -1.038741
v -0.471606 1.811762 -1.049837
v -0.466083 1.813194 -1.061651
v -0.453193 1.824220 -1.042237
v -0.474910 1.899704 -1.089819
v -0.470846 1.903179 -1.083699
v -0.467267 1.899784 -1.081770
v -0.473120 1.894777 -1.090586
v -0.499702 1.162676 -0.742272
v -0.489338 1.157637 -0.759501
v -0.489338 1.157637 -0.759501
v -0.468609 1.157637 -0.759501
v -0.468609 1.157637 -0.759501
v -0.458245 1.162676 -0.742272
v -0.458245 1.162676 -0.742272
v -0.468609 1.167716 -0.725042
v -0.468609 1.167716 -0.725042
v -0.489338 1.167716 -0.725042
v -0.489338 1.167716 -0.725042
v -0.499702 1.162676 -0.742272
v -0.493709 1.818064 -1.038741
v -0.486341 1.811762 -1.049837
v -0.486341 1.811762 -1.049837
v -0.471606 1.811762 -1.049837
v -0.471606 1.811762 -1.049837
v -0.464238 1.818064 -1.038741
v 0.595335 -1.012354 2.209230
v 0.672360 -1.084007 2.141236
v 0.658768 -0.818218 2.233958
v 0.584775 -0.799225 2.283461
v 0.672360 -1.084007 2.141236
v -0.002231 -1.053901 2.239435
v 0.000232 -1.130634 2.175124
v -0.595390 -1.028116 2.201862
v -0.672349 -1.101434 2.132401
v 0.641683 -0.323342 2.011038
v 0.576666 -0.391729 2.089509
v -0.672349 -1.101434 2.132401
v -0.584781 -0.801034 2.282608
v -0.658721 -0.819851 2.232934
v -0.576662 -0.391803 2.089354
v -0.641698 -0.323342 2.011037
v -0.000000 -0.323435 2.065063
v 0.000639 -0.392132 2.137296
v 0.641683 -0.323342 2.011038
v -0.641698 -0.323342 2.011037
v 0.000000 -0.812627 2.323114
v -0.001073 -1.164275 2.110658
v 0.709282 -1.118949 2.077760
v 0.709282 -1.118949 2.077760
v 0.775395 -0.812610 1.977254
v -0.709237 -1.135995 2.069331
v -0.775398 -0.814349 1.976295
v -0.709237 -1.135995 2.069331
v -0.000000 -0.205254 1.768895
v -0.685159 -0.205179 1.715926
v -0.685159 -0.205179 1.715926
v 0.685157 -0.205179 1.715926
v 0.685157 -0.205179 1.715926
v -0.886356 -2.345346 -2.254487
v -0.902175 -2.336255 -2.257202
v -0.904217 -2.394504 -2.298413
v -0.888192 -2.398519 -2.290545
v -0.906007 -2.473895 -2.296560
v -0.889805 -2.470394 -2.288411
v -0.901877 -2.318805 -2.263177
v -0.904326 -2.387122 -2.314724
v -0.906472 -2.481593 -2.313418
v -0.885759 -2.310446 -2.266437
v -0.888414 -2.383910 -2.323114
v -0.890735 -2.485789 -2.322126
v -0.869939 -2.319537 -2.263723
v -0.872388 -2.387855 -2.315270
v -0.874534 -2.482325 -2.313964
v -0.870237 -2.336988 -2.257748
v -0.872279 -2.395237 -2.298959
v -0.874069 -2.474628 -2.297106
v -0.886356 -2.345346 -2.254487
v -0.888192 -2.398519 -2.290545
v -0.889805 -2.470394 -2.288411
v -0.881882 -2.274211 -2.088273
v -0.897702 -2.265120 -2.090988
v -0.897403 -2.247669 -2.096963
v -0.881285 -2.239312 -2.100223
v -0.865465 -2.248403 -2.097509
v -0.865764 -2.265853 -2.091534
v -0.881882 -2.274211 -2.088273
v -0.877846 -2.228665 -1.913297
v -0.877259 -2.248613 -1.852202
v -0.892976 -2.240379 -1.847731
v -0.893666 -2.219574 -1.916011
v -0.877869 -2.306727 -1.809826
v -0.893635 -2.304260 -1.800526
v -0.892470 -2.224558 -1.839365
v -0.893367 -2.202124 -1.921986
v -0.893230 -2.300023 -1.782484
v -0.876250 -2.217126 -1.835416
v -0.877249 -2.193765 -1.925247
v -0.877058 -2.298252 -1.773742
v -0.860532 -2.225291 -1.839911
v -0.861429 -2.202856 -1.922533
v -0.861292 -2.300756 -1.783030
v -0.861038 -2.241112 -1.848277
v -0.861727 -2.220307 -1.916557
v -0.861697 -2.304993 -1.801072
v -0.877259 -2.248613 -1.852202
v -0.877846 -2.228665 -1.913297
v -0.877869 -2.306727 -1.809826
v 1.436959 -0.995674 -0.797713
v 1.083333 -1.007312 -1.209060
v 1.436959 -0.995674 -0.797713
v 0.911291 -1.012974 -1.409183
v 0.000000 -1.011111 -1.552958
v -0.911291 -1.012974 -1.409183
v -1.121797 -1.006046 -1.164317
v -1.436959 -0.995674 -0.797713
v -1.184799 -1.401216 -0.576974
v -1.196540 -1.295559 -0.589661
v -1.345415 -1.004348 -0.733196
v -1.436959 -0.995674 -0.797713
v -1.372928 -0.723846 -0.731204
v -1.436959 -0.995674 -0.797713
v -1.314835 -0.477231 -0.670865
v -1.279694 -0.449637 -0.651539
v -1.222089 -0.447517 -0.603078
v -1.222089 -0.447517 -0.603078
v -1.173594 -0.228562 -0.551914
v -1.147506 -0.200529 -0.539404
vt 0.029314 0.909455
vt 0.030622 0.909667
vt 0.030681 0.904381
vt 0.029384 0.904358
vt 0.030440 0.898605
vt 0.029138 0.898982
vt 0.031844 0.910098
vt 0.031858 0.904501
vt 0.031683 0.897972
vt 0.033139 0.910278
vt 0.033110 0.904532
vt 0.033076 0.897672
vt 0.034431 0.910086
vt 0.034362 0.904489
vt 0.034473 0.897959
vt 0.035649 0.909643
vt 0.035538 0.904357
vt 0.035722 0.898579
vt 0.036955 0.909417
vt 0.036835 0.904321
vt 0.037028 0.898943
vt 0.029138 0.922935
vt 0.030480 0.922928
vt 0.031837 0.922921
vt 0.033201 0.922914
vt 0.034565 0.922908
vt 0.035923 0.922901
vt 0.037264 0.922894
vt 0.029447 0.936412
vt 0.029568 0.941508
vt 0.030864 0.941472
vt 0.030753 0.936186
vt 0.029375 0.946886
vt 0.030681 0.947249
vt 0.032040 0.941340
vt 0.031971 0.935743
vt 0.031929 0.947870
vt 0.033292 0.941296
vt 0.033264 0.935551
vt 0.033326 0.948157
vt 0.034544 0.941327
vt 0.034558 0.935730
vt 0.034720 0.947856
vt 0.035721 0.941447
vt 0.035780 0.936161
vt 0.035962 0.947223
vt 0.037018 0.941471
vt 0.037089 0.936374
vt 0.037264 0.946847
vt 0.086378 0.367788
vt 0.137007 0.360089
vt 0.147657 0.347189
vt 0.169547 0.320672
vt 0.163826 0.242267
vt 0.081855 0.243669
vt 0.150394 0.169616
vt 0.079313 0.173915
vt 0.644487 0.561716
vt 0.643112 0.535114
vt 0.607892 0.529121
vt 0.607809 0.556687
vt 0.644372 0.569140
vt 0.644487 0.561716
vt 0.607620 0.564532
vt 0.721393 0.544786
vt 0.660247 0.538030
vt 0.662331 0.564162
vt 0.721390 0.568524
vt 0.662252 0.571381
vt 0.721390 0.576614
vt 0.533714 0.427698
vt 0.544016 0.346462
vt 0.537196 0.345066
vt 0.526193 0.425619
vt 0.564805 0.352075
vt 0.556454 0.441961
vt 0.665377 0.178111
vt 0.649804 0.176435
vt 0.649935 0.184141
vt 0.665644 0.188432
vt 0.644936 0.203935
vt 0.659957 0.202619
vt 0.721533 0.178863
vt 0.721533 0.185378
vt 0.564795 0.274039
vt 0.558177 0.271578
vt 0.583326 0.278456
vt 0.581446 0.288731
vt 0.721475 0.358848
vt 0.656827 0.359712
vt 0.651859 0.431091
vt 0.671214 0.446213
vt 0.680630 0.453570
vt 0.721424 0.456320
vt 0.721509 0.291229
vt 0.664131 0.297610
vt 0.721516 0.274180
vt 0.721517 0.271311
vt 0.665964 0.274463
vt 0.666911 0.277341
vt 0.721415 0.475483
vt 0.721416 0.472767
vt 0.674917 0.470515
vt 0.674005 0.473175
vt 0.652364 0.272819
vt 0.653605 0.275631
vt 0.660453 0.464770
vt 0.661753 0.462110
vt 0.634695 0.444833
vt 0.632598 0.447494
vt 0.639952 0.359274
vt 0.642567 0.359347
vt 0.649817 0.295919
vt 0.647623 0.294023
vt 0.629410 0.436633
vt 0.632396 0.435927
vt 0.654858 0.479746
vt 0.660453 0.464770
vt 0.624581 0.465270
vt 0.669589 0.486788
vt 0.721409 0.489242
vt 0.622767 0.358477
vt 0.612008 0.439258
vt 0.616491 0.302495
vt 0.625827 0.318399
vt 0.661753 0.462110
vt 0.671214 0.446213
vt 0.669767 0.193899
vt 0.721533 0.191249
vt 0.665778 0.203170
vt 0.671374 0.268315
vt 0.721520 0.265666
vt 0.650598 0.273824
vt 0.588187 0.243353
vt 0.570431 0.246391
vt 0.563045 0.247732
vt 0.145809 0.145254
vt 0.132181 0.139045
vt 0.077963 0.136845
vt 0.571763 0.353439
vt 0.584082 0.295457
vt 0.583252 0.292524
vt 0.562775 0.447509
vt 0.643112 0.535114
vt 0.644185 0.526933
vt 0.607530 0.519629
vt 0.721394 0.535959
vt 0.662018 0.530487
vt 0.000000 0.248237
vt 0.000000 0.326850
vt 0.021178 0.349000
vt 0.035323 0.363795
vt 0.008109 0.174800
vt 0.782543 0.538065
vt 0.780447 0.564193
vt 0.802281 0.561216
vt 0.803511 0.534513
vt 0.780524 0.571412
vt 0.802401 0.568685
vt 0.802281 0.561216
vt 0.909159 0.427887
vt 0.916682 0.425817
vt 0.905767 0.345251
vt 0.898946 0.346639
vt 0.878150 0.352229
vt 0.886404 0.442126
vt 0.777688 0.178131
vt 0.777423 0.188453
vt 0.793133 0.184160
vt 0.793260 0.176453
vt 0.783110 0.202641
vt 0.798130 0.203963
vt 0.878245 0.274192
vt 0.884865 0.271739
vt 0.859709 0.278588
vt 0.861578 0.288866
vt 0.762220 0.453602
vt 0.773751 0.444611
vt 0.791014 0.431150
vt 0.786121 0.359768
vt 0.778881 0.297655
vt 0.776120 0.277379
vt 0.777069 0.274501
vt 0.768827 0.473209
vt 0.767917 0.470549
vt 0.789428 0.275681
vt 0.790671 0.272867
vt 0.785418 0.462940
vt 0.784034 0.460279
vt 0.802996 0.359348
vt 0.795392 0.294083
vt 0.793196 0.295977
vt 0.800382 0.359418
vt 0.810471 0.436007
vt 0.813455 0.436716
vt 0.773232 0.486824
vt 0.791264 0.478222
vt 0.785418 0.462940
vt 0.830854 0.439361
vt 0.820182 0.358568
vt 0.817164 0.318484
vt 0.826517 0.302591
vt 0.784034 0.460279
vt 0.773751 0.444611
vt 0.773300 0.193919
vt 0.777289 0.203192
vt 0.771663 0.268347
vt 0.792439 0.273879
vt 0.854887 0.243479
vt 0.872640 0.246538
vt 0.880025 0.247887
vt 0.024048 0.142986
vt 0.010909 0.150169
vt 0.859767 0.292657
vt 0.858934 0.295589
vt 0.871191 0.353585
vt 0.880076 0.447667
vt 0.803511 0.534513
vt 0.802599 0.526190
vt 0.780776 0.530522
vt 0.618560 0.319910
vt 0.621581 0.318946
vt 0.613358 0.305329
vt 0.611303 0.307671
vt 0.615042 0.357908
vt 0.618303 0.357212
vt 0.603712 0.443347
vt 0.607230 0.442254
vt 0.583252 0.292524
vt 0.584082 0.295457
vt 0.621709 0.470968
vt 0.619510 0.474455
vt 0.652369 0.488689
vt 0.654040 0.485651
vt 0.669769 0.492794
vt 0.668355 0.495615
vt 0.721406 0.498938
vt 0.721407 0.495673
vt 0.774459 0.495650
vt 0.773047 0.492829
vt 0.821409 0.319037
vt 0.824430 0.320004
vt 0.831700 0.307772
vt 0.829647 0.305428
vt 0.824648 0.357308
vt 0.827908 0.358007
vt 0.835629 0.442362
vt 0.839145 0.443459
vt 0.858934 0.295589
vt 0.859767 0.292657
vt 0.794026 0.487193
vt 0.792301 0.484105
vt 0.571763 0.353439
vt 0.594454 0.355782
vt 0.594454 0.355782
vt 0.584239 0.445327
vt 0.649803 0.504670
vt 0.652369 0.488689
vt 0.613811 0.495943
vt 0.665341 0.512203
vt 0.721400 0.516548
vt 0.622767 0.358477
vt 0.625827 0.318399
vt 0.616491 0.302495
vt 0.581446 0.288731
vt 0.612008 0.439258
vt 0.654040 0.485651
vt 0.654858 0.479746
vt 0.624581 0.465270
vt 0.721409 0.489242
vt 0.669589 0.486788
vt 0.848497 0.355904
vt 0.871191 0.353585
vt 0.858615 0.445461
vt 0.848497 0.355904
vt 0.777464 0.512238
vt 0.797248 0.501888
vt 0.794026 0.487193
vt 0.721400 0.516548
vt 0.820182 0.358568
vt 0.817164 0.318484
vt 0.826517 0.302591
vt 0.861578 0.288866
vt 0.830854 0.439361
vt 0.773232 0.486824
vt 0.792301 0.484105
vt 0.791264 0.478222
vt 0.629393 0.157116
vt 0.622260 0.135118
vt 0.603810 0.144274
vt 0.609017 0.160140
vt 0.608680 0.116387
vt 0.593955 0.130785
vt 0.589969 0.102757
vt 0.580410 0.120997
vt 0.567948 0.095574
vt 0.564496 0.115874
vt 0.544776 0.095552
vt 0.547773 0.115923
vt 0.522726 0.102701
vt 0.531882 0.121144
vt 0.503966 0.116323
vt 0.518382 0.131025
vt 0.490339 0.135081
vt 0.508600 0.144596
vt 0.483182 0.157135
vt 0.503492 0.160527
vt 0.483198 0.180318
vt 0.503560 0.177256
vt 0.490382 0.202359
vt 0.508796 0.193143
vt 0.504027 0.221094
vt 0.518685 0.206632
vt 0.522793 0.234688
vt 0.532259 0.216401
vt 0.544836 0.241813
vt 0.548183 0.221493
vt 0.567993 0.241774
vt 0.564898 0.221413
vt 0.589996 0.234583
vt 0.580764 0.216172
vt 0.608693 0.220955
vt 0.594230 0.206288
vt 0.622263 0.202228
vt 0.603982 0.192733
vt 0.629393 0.180235
vt 0.609076 0.176834
vt 0.570035 0.166411
vt 0.568676 0.162262
vt 0.566100 0.158742
vt 0.562561 0.156193
vt 0.558405 0.154864
vt 0.554039 0.154886
vt 0.549892 0.156258
vt 0.546371 0.158847
vt 0.543821 0.162398
vt 0.542492 0.166564
vt 0.542515 0.170937
vt 0.543887 0.175088
vt 0.546474 0.178611
vt 0.550022 0.181160
vt 0.554183 0.182487
vt 0.558546 0.182460
vt 0.562685 0.181085
vt 0.566194 0.178496
vt 0.568730 0.174946
vt 0.570046 0.170781
vt 0.609017 0.160140
vt 0.603810 0.144274
vt 0.588748 0.151939
vt 0.592323 0.162786
vt 0.593955 0.130785
vt 0.581996 0.142723
vt 0.580410 0.120997
vt 0.572722 0.136043
vt 0.564496 0.115874
vt 0.561834 0.132559
vt 0.547773 0.115923
vt 0.550401 0.132614
vt 0.531882 0.121144
vt 0.539544 0.136203
vt 0.518382 0.131025
vt 0.530329 0.142974
vt 0.508600 0.144596
vt 0.523659 0.152262
vt 0.503492 0.160527
vt 0.520184 0.163156
vt 0.503560 0.177256
vt 0.520246 0.174590
vt 0.508796 0.193143
vt 0.523838 0.185445
vt 0.518685 0.206632
vt 0.530608 0.194658
vt 0.532259 0.216401
vt 0.539894 0.201327
vt 0.548183 0.221493
vt 0.550785 0.204797
vt 0.564898 0.221413
vt 0.562213 0.204730
vt 0.580764 0.216172
vt 0.573059 0.201132
vt 0.594230 0.206288
vt 0.582258 0.194359
vt 0.603982 0.192733
vt 0.588913 0.185078
vt 0.609076 0.176834
vt 0.592379 0.174200
vt 0.558843 0.184298
vt 0.553894 0.184325
vt 0.549179 0.182819
vt 0.545160 0.179926
vt 0.542231 0.175932
vt 0.540680 0.171229
vt 0.540656 0.166276
vt 0.542163 0.161557
vt 0.545053 0.157536
vt 0.549043 0.154604
vt 0.553743 0.153049
vt 0.558693 0.153025
vt 0.563406 0.154533
vt 0.567419 0.157427
vt 0.570338 0.161423
vt 0.571875 0.166125
vt 0.571885 0.171071
vt 0.570393 0.175782
vt 0.567519 0.179804
vt 0.563539 0.182740
vt 0.571875 0.166125
vt 0.570338 0.161423
vt 0.568676 0.162262
vt 0.570035 0.166411
vt 0.567419 0.157427
vt 0.566100 0.158742
vt 0.563406 0.154533
vt 0.562561 0.156193
vt 0.558693 0.153025
vt 0.558405 0.154864
vt 0.553743 0.153049
vt 0.554039 0.154886
vt 0.549043 0.154604
vt 0.549892 0.156258
vt 0.545053 0.157536
vt 0.546371 0.158847
vt 0.542163 0.161557
vt 0.543821 0.162398
vt 0.540656 0.166276
vt 0.542492 0.166564
vt 0.540680 0.171229
vt 0.542515 0.170937
vt 0.542231 0.175932
vt 0.543887 0.175088
vt 0.545160 0.179926
vt 0.546474 0.178611
vt 0.549179 0.182819
vt 0.550022 0.181160
vt 0.553894 0.184325
vt 0.554183 0.182487
vt 0.558843 0.184298
vt 0.558546 0.182460
vt 0.563539 0.182740
vt 0.562685 0.181085
vt 0.567519 0.179804
vt 0.566194 0.178496
vt 0.570393 0.175782
vt 0.568730 0.174946
vt 0.571885 0.171071
vt 0.570046 0.170781
vt 0.008699 0.910730
vt 0.010007 0.910942
vt 0.010066 0.905656
vt 0.008769 0.905633
vt 0.009826 0.899880
vt 0.008523 0.900257
vt 0.011230 0.911373
vt 0.011243 0.905776
vt 0.011068 0.899247
vt 0.012524 0.911553
vt 0.012495 0.905807
vt 0.012462 0.898947
vt 0.013816 0.911361
vt 0.013747 0.905764
vt 0.013858 0.899233
vt 0.015035 0.910917
vt 0.014923 0.905632
vt 0.015107 0.899854
vt 0.016340 0.910692
vt 0.016220 0.905596
vt 0.016413 0.900218
vt 0.008523 0.924209
vt 0.009865 0.924203
vt 0.011222 0.924196
vt 0.012586 0.924189
vt 0.013951 0.924182
vt 0.015308 0.924176
vt 0.016650 0.924169
vt 0.008832 0.937687
vt 0.008953 0.942782
vt 0.010250 0.942746
vt 0.010138 0.937461
vt 0.008760 0.948161
vt 0.010066 0.948524
vt 0.011426 0.942615
vt 0.011357 0.937018
vt 0.011315 0.949145
vt 0.012677 0.942571
vt 0.012649 0.936826
vt 0.012711 0.949432
vt 0.013929 0.942602
vt 0.013943 0.937005
vt 0.014105 0.949131
vt 0.015106 0.942722
vt 0.015166 0.937436
vt 0.015347 0.948498
vt 0.016404 0.942746
vt 0.016474 0.937649
vt 0.016650 0.948122
vt 0.973518 0.167680
vt 0.978212 0.165709
vt 0.973100 0.156201
vt 0.969890 0.157813
vt 0.949870 0.166393
vt 0.954365 0.168288
vt 0.957781 0.157983
vt 0.954404 0.156570
vt 0.954365 0.168288
vt 0.959098 0.169617
vt 0.960869 0.158559
vt 0.957781 0.157983
vt 0.959098 0.169617
vt 0.964068 0.170002
vt 0.963849 0.158640
vt 0.960869 0.158559
vt 0.964068 0.170002
vt 0.968886 0.169213
vt 0.966810 0.158489
vt 0.963849 0.158640
vt 0.968886 0.169213
vt 0.973518 0.167680
vt 0.969890 0.157813
vt 0.966810 0.158489
vt 0.963265 0.012242
vt 0.962746 0.012234
vt 0.962479 0.012680
vt 0.962732 0.013135
vt 0.963251 0.013143
vt 0.963517 0.012697
vt 0.963755 0.126765
vt 0.965651 0.126891
vt 0.965472 0.099142
vt 0.963766 0.099138
vt 0.961852 0.126755
vt 0.963755 0.126765
vt 0.963766 0.099138
vt 0.962060 0.099131
vt 0.959950 0.126857
vt 0.961852 0.126755
vt 0.962060 0.099131
vt 0.960354 0.099122
vt 0.958044 0.126939
vt 0.959950 0.126857
vt 0.960354 0.099122
vt 0.958649 0.099100
vt 0.967551 0.126995
vt 0.969472 0.126944
vt 0.968880 0.099101
vt 0.967177 0.099133
vt 0.965651 0.126891
vt 0.967551 0.126995
vt 0.967177 0.099133
vt 0.965472 0.099142
vt 0.963762 0.072294
vt 0.965251 0.072206
vt 0.965033 0.046586
vt 0.963759 0.046642
vt 0.962269 0.072289
vt 0.963762 0.072294
vt 0.963759 0.046642
vt 0.962476 0.046639
vt 0.960780 0.072189
vt 0.962269 0.072289
vt 0.962476 0.046639
vt 0.961203 0.046576
vt 0.959291 0.072076
vt 0.960780 0.072189
vt 0.961203 0.046576
vt 0.959930 0.046504
vt 0.966740 0.072105
vt 0.968235 0.072074
vt 0.967587 0.046498
vt 0.966306 0.046521
vt 0.965251 0.072206
vt 0.966740 0.072105
vt 0.966306 0.046521
vt 0.965033 0.046586
vt 0.968621 0.155981
vt 0.970805 0.155414
vt 0.969472 0.126944
vt 0.967551 0.126995
vt 0.966231 0.156185
vt 0.968621 0.155981
vt 0.967551 0.126995
vt 0.965651 0.126891
vt 0.963780 0.156160
vt 0.966231 0.156185
vt 0.965651 0.126891
vt 0.963755 0.126765
vt 0.961335 0.155986
vt 0.963780 0.156160
vt 0.963755 0.126765
vt 0.961852 0.126755
vt 0.958936 0.155907
vt 0.961335 0.155986
vt 0.961852 0.126755
vt 0.959950 0.126857
vt 0.956701 0.155466
vt 0.958936 0.155907
vt 0.959950 0.126857
vt 0.958044 0.126939
vt 0.970805 0.155414
vt 0.968621 0.155981
vt 0.969890 0.157813
vt 0.973100 0.156201
vt 0.958936 0.155907
vt 0.956701 0.155466
vt 0.954404 0.156570
vt 0.957781 0.157983
vt 0.961335 0.155986
vt 0.960869 0.158559
vt 0.963780 0.156160
vt 0.963849 0.158640
vt 0.966231 0.156185
vt 0.966810 0.158489
vt 0.966247 0.019441
vt 0.967926 0.019372
vt 0.965930 0.012997
vt 0.965142 0.013247
vt 0.959387 0.019644
vt 0.961006 0.019531
vt 0.961659 0.013348
vt 0.960794 0.013187
vt 0.961006 0.019531
vt 0.962359 0.019507
vt 0.962534 0.013427
vt 0.961659 0.013348
vt 0.962359 0.019507
vt 0.963621 0.019497
vt 0.963406 0.013460
vt 0.962534 0.013427
vt 0.963621 0.019497
vt 0.964883 0.019503
vt 0.964277 0.013390
vt 0.963406 0.013460
vt 0.964883 0.019503
vt 0.966247 0.019441
vt 0.965142 0.013247
vt 0.964277 0.013390
vt 0.965975 0.020341
vt 0.967061 0.020411
vt 0.967926 0.019372
vt 0.966247 0.019441
vt 0.962746 0.012234
vt 0.963265 0.012242
vt 0.963463 0.011950
vt 0.962591 0.011917
vt 0.960354 0.020461
vt 0.961442 0.020324
vt 0.961006 0.019531
vt 0.959387 0.019644
vt 0.962479 0.012680
vt 0.962746 0.012234
vt 0.962591 0.011917
vt 0.962127 0.012656
vt 0.961442 0.020324
vt 0.962568 0.020280
vt 0.962359 0.019507
vt 0.961006 0.019531
vt 0.962732 0.013135
vt 0.962479 0.012680
vt 0.962127 0.012656
vt 0.962534 0.013427
vt 0.962568 0.020280
vt 0.963710 0.020278
vt 0.963621 0.019497
vt 0.962359 0.019507
vt 0.963251 0.013143
vt 0.962732 0.013135
vt 0.962534 0.013427
vt 0.963406 0.013460
vt 0.963710 0.020278
vt 0.964849 0.020306
vt 0.964883 0.019503
vt 0.963621 0.019497
vt 0.963517 0.012697
vt 0.963251 0.013143
vt 0.963406 0.013460
vt 0.963869 0.012721
vt 0.964849 0.020306
vt 0.965975 0.020341
vt 0.966247 0.019441
vt 0.964883 0.019503
vt 0.963265 0.012242
vt 0.963517 0.012697
vt 0.963869 0.012721
vt 0.963463 0.011950
vt 0.960780 0.072189
vt 0.959291 0.072076
vt 0.968235 0.072074
vt 0.966740 0.072105
vt 0.966740 0.072105
vt 0.965251 0.072206
vt 0.965251 0.072206
vt 0.963762 0.072294
vt 0.963762 0.072294
vt 0.962269 0.072289
vt 0.962269 0.072289
vt 0.960780 0.072189
vt 0.961442 0.020324
vt 0.960354 0.020461
vt 0.967061 0.020411
vt 0.965975 0.020341
vt 0.965975 0.020341
vt 0.964849 0.020306
vt 0.015883 0.824056
vt 0.011650 0.832264
vt 0.030824 0.826552
vt 0.031810 0.820774
vt 0.009029 0.829900
vt 0.012290 0.780872
vt 0.005199 0.780962
vt 0.015450 0.738124
vt 0.008575 0.732099
vt 0.069010 0.830508
vt 0.063348 0.823641
vt 0.010997 0.729872
vt 0.031919 0.741729
vt 0.031061 0.735956
vt 0.063456 0.738937
vt 0.069124 0.732066
vt 0.070326 0.781302
vt 0.063414 0.781366
vt 0.070802 0.828456
vt 0.070860 0.734093
vt 0.030375 0.781255
vt 0.000000 0.780815
vt 0.004056 0.832922
vt 0.009513 0.837689
vt 0.033873 0.845679
vt 0.003696 0.728972
vt 0.034022 0.716838
vt 0.008805 0.724504
vt 0.093013 0.781248
vt 0.093555 0.730038
vt 0.083372 0.713970
vt 0.083369 0.848559
vt 0.093555 0.832398
vt 0.050229 0.909030
vt 0.051537 0.909243
vt 0.051596 0.903956
vt 0.050299 0.903933
vt 0.051356 0.898181
vt 0.050053 0.898557
vt 0.052760 0.909674
vt 0.052774 0.904076
vt 0.052598 0.897547
vt 0.054054 0.909853
vt 0.054026 0.904107
vt 0.053992 0.897247
vt 0.055346 0.909661
vt 0.055277 0.904064
vt 0.055388 0.897534
vt 0.056565 0.909218
vt 0.056453 0.903932
vt 0.056637 0.898154
vt 0.057871 0.908992
vt 0.057750 0.903896
vt 0.057943 0.898518
vt 0.050053 0.922510
vt 0.051395 0.922503
vt 0.052752 0.922496
vt 0.054116 0.922489
vt 0.055481 0.922483
vt 0.056838 0.922476
vt 0.058180 0.922469
vt 0.050362 0.935987
vt 0.050483 0.941083
vt 0.051780 0.941047
vt 0.051668 0.935761
vt 0.050290 0.946461
vt 0.051596 0.946824
vt 0.052956 0.940915
vt 0.052887 0.935318
vt 0.052845 0.947445
vt 0.054207 0.940872
vt 0.054179 0.935126
vt 0.054241 0.947732
vt 0.055459 0.940902
vt 0.055473 0.935305
vt 0.055635 0.947431
vt 0.056637 0.941022
vt 0.056696 0.935736
vt 0.056877 0.946798
vt 0.057934 0.941046
vt 0.058004 0.935949
vt 0.058180 0.946422
vt 0.562775 0.447509
vt 0.644185 0.526933
vt 0.607530 0.519629
vt 0.662018 0.530487
vt 0.721394 0.535959
vt 0.780776 0.530522
vt 0.802599 0.526190
vt 0.880076 0.447667
vt 0.835155 0.564603
vt 0.834971 0.556758
vt 0.834903 0.529195
vt 0.835271 0.519705
vt 0.829006 0.496019
vt 0.835271 0.519705
vt 0.823322 0.474531
vt 0.821126 0.471043
vt 0.818260 0.465344
vt 0.818260 0.465344
vt 0.810258 0.447566
vt 0.808164 0.444904
vn -0.009865 -0.837299 0.546656
vn -0.890230 -0.380693 0.250128
vn -0.907073 -0.095013 0.410111
vn 0.010623 -0.257179 0.966305
vn -0.905478 0.031529 0.423221
vn 0.017678 0.025942 0.999507
vn -0.834779 0.468154 -0.289784
vn -0.781723 0.201044 -0.590330
vn -0.756446 0.009567 -0.653987
vn 0.010663 0.853206 -0.521465
vn -0.009173 0.309023 -0.951010
vn -0.017358 -0.011291 -0.999786
vn 0.844985 0.429605 -0.318498
vn 0.769497 0.165442 -0.616850
vn 0.733306 -0.024627 -0.679452
vn 0.879855 -0.421320 0.219873
vn 0.915239 -0.136842 0.378962
vn 0.919897 -0.010370 0.392024
vn -0.009865 -0.837299 0.546656
vn 0.010623 -0.257179 0.966305
vn 0.017678 0.025942 0.999507
vn -0.016167 -0.945953 0.323901
vn -0.883479 -0.436081 0.171167
vn -0.846671 0.509599 -0.153156
vn 0.016171 0.945952 -0.323902
vn 0.863427 0.470350 -0.182386
vn 0.867878 -0.476278 0.141232
vn -0.016167 -0.945953 0.323901
vn -0.021467 -0.996463 0.081238
vn -0.028593 -0.794901 -0.606065
vn -0.922918 -0.312273 -0.225185
vn -0.894592 -0.440507 0.075224
vn -0.027350 -0.591463 -0.805868
vn -0.923841 -0.220265 -0.313053
vn -0.757572 0.532186 0.377972
vn -0.828062 0.560264 -0.020442
vn -0.726562 0.419355 0.544288
vn 0.028565 0.826512 0.562194
vn 0.020903 0.993612 -0.110900
vn 0.027454 0.603214 0.797107
vn 0.793646 0.496589 0.351463
vn 0.851701 0.521717 -0.049154
vn 0.763192 0.385164 0.518832
vn 0.899394 -0.354100 -0.256328
vn 0.875493 -0.481134 0.044968
vn 0.901533 -0.262163 -0.344251
vn -0.028593 -0.794901 -0.606065
vn -0.021467 -0.996463 0.081238
vn -0.027350 -0.591463 -0.805868
vn 0.000000 -0.999441 0.033421
vn 0.000474 -0.999441 0.033421
vn 0.000474 -0.999441 0.033421
vn 0.000474 -0.999441 0.033421
vn 0.000570 -0.999454 0.033036
vn 0.000000 -0.999456 0.032991
vn 0.000707 -0.999459 0.032894
vn 0.000000 -0.999457 0.032954
vn 0.624011 -0.584131 -0.519039
vn 0.623942 -0.584265 -0.518972
vn 0.588304 -0.785245 -0.193103
vn 0.853623 -0.482736 -0.195688
vn 0.740665 -0.166089 -0.651022
vn 0.740665 -0.166089 -0.651022
vn 0.964590 -0.105240 -0.241850
vn -0.000000 -0.761939 -0.647649
vn 0.301515 -0.799821 -0.519014
vn 0.379075 -0.524841 -0.762131
vn -0.000000 -0.488556 -0.872533
vn 0.443430 -0.179755 -0.878099
vn -0.000000 -0.171208 -0.985235
vn 0.853623 -0.482736 -0.195688
vn 0.899551 -0.428835 0.083121
vn 0.995091 -0.041754 0.089719
vn 0.964590 -0.105240 -0.241850
vn 0.700406 -0.711212 0.060074
vn 0.588304 -0.785245 -0.193103
vn 0.022568 -0.987630 0.155172
vn 0.889686 -0.185859 0.417032
vn 0.765462 -0.509602 0.392904
vn 0.181785 -0.474286 0.861398
vn 0.803917 0.127078 0.581006
vn 0.268613 0.236504 0.933763
vn 0.000000 -0.979097 0.203391
vn 0.000000 -0.445398 0.895332
vn 0.886539 -0.438516 0.147486
vn 0.988711 -0.036023 0.145439
vn 0.964979 -0.166575 0.202654
vn 0.841013 -0.522717 0.139517
vn 0.000000 0.998658 -0.051793
vn 0.041066 0.997956 -0.048962
vn 0.037267 0.993769 -0.105040
vn -0.005018 0.995697 -0.092531
vn 0.011207 0.991874 -0.126733
vn 0.000000 0.992435 -0.122768
vn 0.000000 0.998919 0.046487
vn 0.043824 0.998199 0.040973
vn 0.000000 0.973741 0.227658
vn 0.000000 0.583670 0.811990
vn 0.189416 0.493307 0.848981
vn 0.047937 0.974699 0.218322
vn 0.000000 0.378723 -0.925510
vn 0.000000 0.915744 -0.401763
vn 0.136540 0.915841 -0.377613
vn 0.410869 0.390827 -0.823675
vn 0.794922 0.319849 0.515553
vn 0.247619 0.939758 0.235668
vn 0.487808 0.691697 -0.532540
vn 0.487809 0.691695 -0.532542
vn 0.305958 0.935562 -0.176389
vn 0.921090 0.314493 -0.229537
vn 0.960135 0.273110 0.059592
vn 0.313681 0.949281 -0.021655
vn 0.316004 0.945364 0.080175
vn 0.948388 0.233549 0.214509
vn 0.921090 0.314493 -0.229537
vn 0.305958 0.935562 -0.176389
vn 0.680695 0.328463 -0.654803
vn 0.681124 0.327068 -0.655054
vn 0.911138 0.276506 -0.305568
vn 0.436394 0.343567 -0.831578
vn -0.000000 0.324777 -0.945791
vn 0.978540 0.196540 0.061903
vn 0.911138 0.276506 -0.305568
vn 0.973324 0.166431 0.157924
vn 0.972716 0.185899 0.138796
vn 0.154883 0.953294 -0.259310
vn 0.154879 0.953295 -0.259307
vn 0.068398 -0.456300 0.887193
vn -0.000000 -0.452532 0.891748
vn 0.143318 0.333864 0.931662
vn 0.114062 0.461676 0.879684
vn -0.000000 0.453486 0.891263
vn 0.794922 0.319849 0.515553
vn 0.803917 0.127078 0.581006
vn 0.765462 -0.509602 0.392904
vn 0.889686 -0.185859 0.417032
vn 0.000557 -0.999400 0.034638
vn 0.022568 -0.987630 0.155172
vn 0.000000 -0.979097 0.203391
vn 0.046500 -0.998910 -0.004009
vn 0.029167 -0.999538 0.008526
vn 0.029167 -0.999538 0.008526
vn 0.074582 -0.996781 -0.029395
vn 0.087671 -0.995207 -0.043318
vn 0.090457 -0.994850 -0.045722
vn 0.074582 -0.996781 -0.029395
vn -0.000000 -0.995769 -0.091890
vn 0.041291 -0.996408 -0.073931
vn -0.000570 -0.999454 0.033036
vn -0.000474 -0.999441 0.033421
vn -0.000474 -0.999441 0.033421
vn -0.000474 -0.999441 0.033421
vn -0.000707 -0.999459 0.032894
vn -0.301515 -0.799821 -0.519013
vn -0.379075 -0.524841 -0.762131
vn -0.624010 -0.584134 -0.519037
vn -0.623942 -0.584265 -0.518971
vn -0.443429 -0.179755 -0.878099
vn -0.740665 -0.166092 -0.651022
vn -0.740665 -0.166084 -0.651023
vn -0.853623 -0.482736 -0.195688
vn -0.964590 -0.105240 -0.241850
vn -0.995091 -0.041754 0.089719
vn -0.899551 -0.428835 0.083121
vn -0.700406 -0.711211 0.060074
vn -0.588304 -0.785245 -0.193102
vn -0.022568 -0.987630 0.155173
vn -0.181785 -0.474286 0.861398
vn -0.765462 -0.509602 0.392904
vn -0.889686 -0.185859 0.417032
vn -0.268614 0.236504 0.933763
vn -0.803917 0.127078 0.581006
vn -0.886539 -0.438516 0.147486
vn -0.988711 -0.036023 0.145439
vn -0.964979 -0.166575 0.202654
vn -0.841013 -0.522716 0.139517
vn -0.011207 0.991874 -0.126733
vn 0.005018 0.995697 -0.092531
vn -0.037267 0.993769 -0.105040
vn -0.041066 0.997956 -0.048962
vn -0.043824 0.998199 0.040973
vn -0.047937 0.974699 0.218322
vn -0.189416 0.493307 0.848981
vn -0.410869 0.390827 -0.823675
vn -0.136540 0.915841 -0.377613
vn -0.247619 0.939758 0.235668
vn -0.794922 0.319849 0.515553
vn -0.487810 0.691699 -0.532536
vn -0.487811 0.691697 -0.532537
vn -0.960135 0.273110 0.059592
vn -0.948388 0.233550 0.214509
vn -0.316004 0.945364 0.080176
vn -0.313681 0.949281 -0.021655
vn -0.305958 0.935562 -0.176390
vn -0.921090 0.314493 -0.229537
vn -0.436394 0.343567 -0.831578
vn -0.680683 0.328499 -0.654797
vn -0.681144 0.327002 -0.655067
vn -0.911138 0.276506 -0.305568
vn -0.978540 0.196540 0.061903
vn -0.972716 0.185899 0.138797
vn -0.973325 0.166431 0.157923
vn -0.154882 0.953294 -0.259309
vn -0.154880 0.953295 -0.259307
vn -0.068398 -0.456300 0.887193
vn -0.143319 0.333864 0.931662
vn -0.114063 0.461677 0.879684
vn -0.794922 0.319849 0.515553
vn -0.803917 0.127078 0.581006
vn -0.765462 -0.509602 0.392904
vn -0.889686 -0.185859 0.417032
vn -0.022568 -0.987630 0.155173
vn -0.000557 -0.999400 0.034638
vn -0.029167 -0.999538 0.008526
vn -0.029167 -0.999538 0.008526
vn -0.046500 -0.998910 -0.004009
vn -0.074582 -0.996781 -0.029395
vn -0.087706 -0.995203 -0.043350
vn -0.090324 -0.994867 -0.045609
vn -0.041291 -0.996408 -0.073931
vn 0.962804 0.215501 0.162998
vn 0.285441 0.921087 0.264804
vn 0.184693 0.480008 0.857602
vn 0.963022 0.198515 0.182155
vn 0.967530 0.244599 0.063689
vn 0.308739 0.951127 0.006074
vn 0.928256 0.304778 -0.213191
vn 0.301865 0.945045 -0.125567
vn 0.200537 0.343117 0.917636
vn 0.961135 0.197348 0.193065
vn 0.301865 0.945045 -0.125567
vn 0.928256 0.304778 -0.213191
vn 0.398958 0.815634 -0.419016
vn 0.399007 0.815588 -0.419058
vn 0.103803 0.959846 -0.260617
vn 0.416910 0.393955 -0.819137
vn -0.000000 0.379634 -0.925137
vn -0.000000 0.972572 -0.232600
vn -0.416910 0.393955 -0.819137
vn -0.103803 0.959846 -0.260616
vn -0.285441 0.921087 0.264804
vn -0.962804 0.215501 0.162998
vn -0.963022 0.198515 0.182155
vn -0.184692 0.480008 0.857602
vn -0.308739 0.951127 0.006074
vn -0.967530 0.244599 0.063689
vn -0.301865 0.945045 -0.125567
vn -0.928256 0.304778 -0.213191
vn -0.961135 0.197347 0.193065
vn -0.200537 0.343117 0.917636
vn -0.398989 0.815605 -0.419042
vn -0.398981 0.815613 -0.419035
vn 0.977016 0.202609 0.066247
vn 0.969950 0.186000 0.156844
vn 0.977214 0.212031 0.009829
vn 0.977221 0.211972 0.010382
vn 0.695075 0.345510 -0.630471
vn 0.688684 0.345239 -0.637593
vn 0.697131 0.337444 -0.632566
vn 0.276515 0.361071 -0.890599
vn 0.135650 0.343406 -0.929339
vn 0.036441 0.999025 -0.024923
vn 0.041364 0.977132 0.208573
vn -0.040487 0.514479 0.856547
vn -0.066634 0.315754 0.946499
vn 0.005088 0.998678 -0.051146
vn -0.043134 0.998442 -0.035390
vn -0.036953 0.998475 -0.041010
vn 0.005088 0.998678 -0.051146
vn -0.000000 0.999998 -0.001926
vn -0.019665 0.999590 -0.020784
vn -0.969950 0.186000 0.156844
vn -0.977016 0.202609 0.066247
vn -0.977221 0.211972 0.010382
vn -0.977214 0.212031 0.009829
vn -0.299972 0.362787 -0.882271
vn -0.695028 0.345510 -0.630522
vn -0.688697 0.345195 -0.637602
vn -0.135650 0.343406 -0.929339
vn -0.036441 0.999025 -0.024923
vn -0.041364 0.977132 0.208573
vn 0.040487 0.514479 0.856546
vn 0.066634 0.315754 0.946498
vn -0.005088 0.998678 -0.051146
vn 0.019665 0.999590 -0.020783
vn 0.042893 0.998445 -0.035609
vn 0.036899 0.998475 -0.041057
vn 0.951057 -0.009452 -0.308871
vn 0.809017 -0.017979 -0.587510
vn 0.809017 -0.017979 -0.587510
vn 0.951057 -0.009452 -0.308871
vn 0.587785 -0.024746 -0.808638
vn 0.587785 -0.024746 -0.808638
vn 0.309017 -0.029091 -0.950611
vn 0.309017 -0.029091 -0.950611
vn 0.000000 -0.030588 -0.999532
vn 0.000000 -0.030588 -0.999532
vn -0.309017 -0.029091 -0.950611
vn -0.309017 -0.029091 -0.950611
vn -0.587786 -0.024746 -0.808638
vn -0.587786 -0.024746 -0.808638
vn -0.809017 -0.017979 -0.587510
vn -0.809017 -0.017979 -0.587510
vn -0.951056 -0.009452 -0.308872
vn -0.951056 -0.009452 -0.308872
vn -1.000000 0.000000 0.000000
vn -1.000000 0.000000 0.000000
vn -0.951056 0.009452 0.308872
vn -0.951056 0.009452 0.308873
vn -0.809017 0.017979 0.587511
vn -0.809017 0.017979 0.587511
vn -0.587785 0.024746 0.808638
vn -0.587785 0.024746 0.808638
vn -0.309017 0.029091 0.950611
vn -0.309017 0.029091 0.950611
vn 0.000000 0.030588 0.999532
vn 0.000000 0.030588 0.999532
vn 0.309017 0.029091 0.950611
vn 0.309017 0.029091 0.950611
vn 0.587785 0.024746 0.808638
vn 0.587785 0.024746 0.808638
vn 0.809017 0.017979 0.587510
vn 0.809017 0.017979 0.587510
vn 0.951057 0.009452 0.308872
vn 0.951056 0.009452 0.308872
vn 1.000000 -0.000000 0.000001
vn 1.000000 -0.000000 0.000001
vn -0.000000 0.999532 -0.030587
vn -0.000000 0.999532 -0.030587
vn -0.000000 0.999532 -0.030587
vn -0.000000 0.999532 -0.030587
vn -0.000000 0.999532 -0.030587
vn -0.000000 0.999532 -0.030587
vn -0.000000 0.999532 -0.030587
vn -0.000000 0.999532 -0.030587
vn -0.000000 0.999532 -0.030587
vn -0.000000 0.999532 -0.030587
vn -0.000000 0.999532 -0.030587
vn -0.000000 0.999532 -0.030587
vn -0.000000 0.999532 -0.030587
vn -0.000000 0.999532 -0.030587
vn -0.000000 0.999532 -0.030587
vn -0.000000 0.999532 -0.030587
vn -0.000000 0.999532 -0.030587
vn -0.000000 0.999532 -0.030587
vn -0.000000 0.999532 -0.030587
vn -0.000000 0.999532 -0.030587
vn 0.345034 0.928006 -0.140559
vn 0.293503 0.924913 -0.241646
vn 0.223922 0.955507 -0.192006
vn 0.263235 0.957867 -0.114883
vn 0.213242 0.922458 -0.321869
vn 0.162688 0.953634 -0.253209
vn 0.112108 0.920881 -0.373376
vn 0.085530 0.952431 -0.292504
vn 0.000000 0.920338 -0.391125
vn 0.000000 0.952017 -0.306045
vn -0.112108 0.920881 -0.373376
vn -0.085530 0.952431 -0.292505
vn -0.213242 0.922458 -0.321869
vn -0.162689 0.953634 -0.253209
vn -0.293503 0.924912 -0.241647
vn -0.223922 0.955507 -0.192005
vn -0.345034 0.928006 -0.140560
vn -0.263235 0.957867 -0.114883
vn -0.362790 0.931435 -0.028503
vn -0.276782 0.960483 -0.029392
vn -0.345033 0.934864 0.083551
vn -0.263236 0.963099 0.056096
vn -0.293502 0.937958 0.184636
vn -0.223921 0.965459 0.133219
vn -0.213241 0.940413 0.264862
vn -0.162688 0.967332 0.194425
vn -0.112108 0.941988 0.316369
vn -0.085530 0.968535 0.233720
vn 0.000000 0.942531 0.334118
vn 0.000000 0.968949 0.247261
vn 0.112108 0.941988 0.316370
vn 0.085530 0.968535 0.233720
vn 0.213241 0.940413 0.264862
vn 0.162688 0.967332 0.194425
vn 0.293502 0.937958 0.184637
vn 0.223921 0.965459 0.133218
vn 0.345033 0.934864 0.083552
vn 0.263236 0.963099 0.056096
vn 0.362790 0.931435 -0.028502
vn 0.276782 0.960483 -0.029390
vn 0.039320 0.995109 0.090616
vn -0.000000 0.995300 0.096841
vn -0.039320 0.995109 0.090617
vn -0.074790 0.994556 0.072556
vn -0.102941 0.993695 0.044418
vn -0.121015 0.992610 0.008959
vn -0.127240 0.991408 -0.030337
vn -0.121012 0.990205 -0.069638
vn -0.102940 0.989120 -0.105094
vn -0.074791 0.988259 -0.133229
vn -0.039319 0.987706 -0.151294
vn 0.000000 0.987516 -0.157518
vn 0.039319 0.987706 -0.151294
vn 0.074790 0.988259 -0.133231
vn 0.102940 0.989120 -0.105098
vn 0.121012 0.990205 -0.069640
vn 0.127241 0.991408 -0.030336
vn 0.121015 0.992610 0.008959
vn 0.102941 0.993695 0.044415
vn 0.074790 0.994556 0.072555
vn 0.951058 -0.009452 -0.308869
vn 0.809017 -0.017979 -0.587510
vn 0.809017 -0.017979 -0.587510
vn 0.951057 -0.009452 -0.308870
vn 0.587789 -0.024746 -0.808636
vn 0.587789 -0.024746 -0.808636
vn 0.309018 -0.029091 -0.950611
vn 0.309018 -0.029091 -0.950611
vn 0.000001 -0.030588 -0.999532
vn 0.000001 -0.030588 -0.999532
vn -0.309019 -0.029091 -0.950611
vn -0.309019 -0.029091 -0.950611
vn -0.587789 -0.024746 -0.808636
vn -0.587789 -0.024746 -0.808636
vn -0.809017 -0.017979 -0.587510
vn -0.809018 -0.017979 -0.587509
vn -0.951057 -0.009452 -0.308872
vn -0.951056 -0.009452 -0.308873
vn -1.000000 -0.000000 0.000000
vn -1.000000 -0.000000 -0.000000
vn -0.951056 0.009452 0.308872
vn -0.951056 0.009452 0.308874
vn -0.809016 0.017978 0.587511
vn -0.809016 0.017978 0.587511
vn -0.587789 0.024746 0.808636
vn -0.587790 0.024746 0.808635
vn -0.309022 0.029092 0.950610
vn -0.309022 0.029092 0.950610
vn 0.000000 0.030589 0.999532
vn 0.000000 0.030589 0.999532
vn 0.309018 0.029091 0.950611
vn 0.309018 0.029091 0.950611
vn 0.587788 0.024746 0.808637
vn 0.587789 0.024746 0.808636
vn 0.809018 0.017979 0.587509
vn 0.809018 0.017979 0.587509
vn 0.951057 0.009452 0.308871
vn 0.951056 0.009452 0.308873
vn 1.000000 0.000000 0.000002
vn 1.000000 0.000000 0.000001
vn 0.246009 -0.952843 -0.177678
vn 0.092450 -0.610113 0.786902
vn 0.335802 -0.400449 0.852571
vn 0.831118 -0.546671 -0.101943
vn 0.389177 -0.287205 0.875246
vn 0.954279 -0.293852 -0.054791
vn -0.142368 0.360329 0.921897
vn -0.511822 0.220264 0.830374
vn -0.633382 0.068513 0.770801
vn -0.217015 0.959627 0.178941
vn -0.799845 0.590035 0.110030
vn -0.949796 0.307568 0.057360
vn -0.142369 0.668366 -0.730081
vn -0.511827 0.504727 -0.695186
vn -0.633385 0.341700 -0.694309
vn 0.092450 -0.285518 -0.953904
vn 0.335800 -0.066280 -0.939598
vn 0.389178 0.047525 -0.919936
vn 0.246009 -0.952843 -0.177678
vn 0.831118 -0.546671 -0.101943
vn 0.954279 -0.293852 -0.054791
vn -0.000000 -0.983055 -0.183311
vn -0.000000 -0.634652 0.772798
vn 0.000000 0.352396 0.935851
vn 0.000000 0.983056 0.183307
vn -0.000000 0.665991 -0.745960
vn 0.000000 -0.313493 -0.949591
vn -0.000000 -0.983055 -0.183311
vn -0.246010 -0.952842 -0.177684
vn -0.831119 -0.546671 -0.101945
vn -0.335803 -0.400450 0.852570
vn -0.092450 -0.610113 0.786902
vn -0.954279 -0.293852 -0.054792
vn -0.389178 -0.287206 0.875244
vn 0.511822 0.220265 0.830374
vn 0.142368 0.360329 0.921897
vn 0.633378 0.068513 0.770803
vn 0.799845 0.590035 0.110033
vn 0.217015 0.959627 0.178941
vn 0.949795 0.307568 0.057365
vn 0.511829 0.504728 -0.695184
vn 0.142369 0.668367 -0.730080
vn 0.633385 0.341699 -0.694308
vn -0.335799 -0.066281 -0.939599
vn -0.092450 -0.285518 -0.953904
vn -0.389178 0.047525 -0.919936
vn -0.831119 -0.546671 -0.101945
vn -0.246010 -0.952842 -0.177684
vn -0.954279 -0.293852 -0.054792
vn 0.000000 0.029421 -0.999567
vn 0.000000 0.029421 -0.999567
vn 0.000000 0.029421 -0.999567
vn 0.000000 0.029421 -0.999567
vn -0.859711 0.055857 -0.507718
vn -0.859711 0.055857 -0.507718
vn -0.859711 0.055857 -0.507718
vn -0.859711 0.055857 -0.507718
vn -0.860698 0.095181 0.500139
vn -0.860698 0.095181 0.500139
vn -0.860698 0.095181 0.500139
vn -0.860698 0.095181 0.500139
vn 0.000000 0.107643 0.994190
vn 0.000000 0.107643 0.994190
vn 0.000000 0.107643 0.994190
vn 0.000000 0.107643 0.994190
vn 0.860698 0.095181 0.500140
vn 0.860698 0.095181 0.500140
vn 0.860698 0.095181 0.500140
vn 0.860698 0.095181 0.500140
vn 0.859711 0.055858 -0.507717
vn 0.859711 0.055858 -0.507717
vn 0.859711 0.055858 -0.507717
vn 0.859711 0.055858 -0.507717
vn 0.000000 0.869532 -0.493877
vn 0.000000 0.869532 -0.493877
vn 0.000000 0.869532 -0.493877
vn 0.000000 0.869532 -0.493877
vn 0.000000 0.869532 -0.493877
vn 0.000000 0.869532 -0.493877
vn 0.865996 0.132643 0.482137
vn 0.865996 0.132643 0.482137
vn 0.866023 0.142515 0.479264
vn 0.866023 0.142599 0.479239
vn 0.000000 0.258713 0.965954
vn 0.000000 0.258713 0.965954
vn 0.000000 0.278639 0.960396
vn 0.000000 0.278639 0.960396
vn -0.865996 0.132643 0.482137
vn -0.865996 0.132643 0.482137
vn -0.866023 0.142599 0.479239
vn -0.866023 0.142515 0.479264
vn -0.865823 -0.119593 -0.485848
vn -0.865823 -0.119593 -0.485848
vn -0.865971 -0.129644 -0.482998
vn -0.865970 -0.129559 -0.483022
vn 0.000000 -0.245591 -0.969373
vn 0.000000 -0.245591 -0.969373
vn 0.000000 -0.265660 -0.964067
vn 0.000000 -0.265660 -0.964067
vn 0.865823 -0.119592 -0.485847
vn 0.865823 -0.119592 -0.485847
vn 0.865970 -0.129559 -0.483022
vn 0.865971 -0.129643 -0.482998
vn 0.864359 0.201465 0.460755
vn 0.864359 0.201465 0.460755
vn 0.864586 0.212839 0.455182
vn 0.864577 0.212237 0.455480
vn 0.000000 0.394132 0.919053
vn 0.000000 0.394132 0.919053
vn 0.000000 0.416440 0.909163
vn 0.000000 0.416440 0.909163
vn -0.864359 0.201465 0.460755
vn -0.864359 0.201465 0.460755
vn -0.864577 0.212237 0.455480
vn -0.864586 0.212839 0.455182
vn -0.864793 -0.188025 -0.465595
vn -0.864793 -0.188025 -0.465595
vn -0.864842 -0.198984 -0.460927
vn -0.864841 -0.199600 -0.460662
vn 0.000000 -0.381030 -0.924563
vn 0.000000 -0.381030 -0.924563
vn 0.000000 -0.403577 -0.914946
vn 0.000000 -0.403577 -0.914946
vn 0.864794 -0.188024 -0.465595
vn 0.864794 -0.188024 -0.465595
vn 0.864841 -0.199599 -0.460662
vn 0.864842 -0.198983 -0.460927
vn 0.000002 -0.143303 -0.989679
vn 0.000002 -0.143302 -0.989679
vn 0.000002 -0.143302 -0.989679
vn 0.000002 -0.143302 -0.989679
vn 0.864838 -0.068488 -0.497358
vn 0.864838 -0.068488 -0.497358
vn 0.864838 -0.068488 -0.497358
vn 0.864838 -0.068488 -0.497358
vn 0.865308 0.082964 0.494326
vn 0.865308 0.082964 0.494326
vn 0.865309 0.082964 0.494326
vn 0.865309 0.082964 0.494326
vn 0.000000 0.158626 0.987339
vn 0.000000 0.158626 0.987339
vn 0.000000 0.158626 0.987339
vn 0.000000 0.158626 0.987339
vn -0.865308 0.082964 0.494326
vn -0.865308 0.082964 0.494326
vn -0.865308 0.082964 0.494326
vn -0.865308 0.082964 0.494326
vn -0.864838 -0.068487 -0.497358
vn -0.864838 -0.068487 -0.497358
vn -0.864838 -0.068487 -0.497358
vn -0.864838 -0.068487 -0.497358
vn -0.290711 0.751293 -0.592490
vn 0.290710 0.751294 -0.592490
vn 0.303029 0.751956 -0.585436
vn -0.303030 0.751956 -0.585436
vn -0.578255 0.810581 -0.092627
vn -0.290711 0.751293 -0.592490
vn -0.303030 0.751956 -0.585436
vn -0.578280 0.813123 -0.066511
vn -0.287251 0.869763 0.401248
vn -0.276628 0.870372 0.407344
vn 0.287250 0.869761 0.401251
vn 0.276627 0.870371 0.407348
vn 0.578255 0.810582 -0.092621
vn 0.578279 0.813124 -0.066506
vn 0.000000 -0.334263 -0.942480
vn 0.000000 -0.334263 -0.942480
vn 0.000000 -0.334263 -0.942480
vn 0.000000 -0.334263 -0.942480
vn -0.855109 -0.106213 -0.507452
vn -0.855109 -0.106213 -0.507452
vn -0.855109 -0.106213 -0.507452
vn -0.855109 -0.106213 -0.507452
vn -0.859261 0.353489 0.369751
vn -0.859261 0.353489 0.369751
vn -0.859261 0.353489 0.369751
vn -0.859261 0.353489 0.369751
vn 0.000000 0.584761 0.811205
vn 0.000000 0.584761 0.811205
vn 0.000000 0.584761 0.811205
vn 0.000000 0.584761 0.811205
vn 0.859260 0.353488 0.369754
vn 0.859260 0.353488 0.369754
vn 0.859260 0.353488 0.369754
vn 0.859260 0.353488 0.369754
vn 0.855114 -0.106213 -0.507444
vn 0.855114 -0.106213 -0.507444
vn 0.855114 -0.106213 -0.507444
vn 0.855114 -0.106213 -0.507444
vn 0.000000 -0.992737 -0.120307
vn 0.000000 -0.992737 -0.120307
vn 0.000000 -0.992737 -0.120307
vn 0.000000 -0.992737 -0.120307
vn 0.000000 0.153787 -0.988104
vn 0.000000 0.153787 -0.988104
vn 0.000000 0.153787 -0.988104
vn 0.000000 0.153787 -0.988104
vn -0.515189 -0.845839 0.138335
vn -0.515189 -0.845839 0.138335
vn -0.515189 -0.845839 0.138335
vn -0.515189 -0.845839 0.138335
vn -0.678362 0.347235 -0.647497
vn -0.678362 0.347235 -0.647497
vn -0.678362 0.347235 -0.647497
vn -0.678362 0.347235 -0.647497
vn -0.863219 0.191648 0.467037
vn -0.863064 0.189192 0.468323
vn -0.515209 -0.552026 0.655612
vn -0.515209 -0.552026 0.655612
vn -0.678293 0.734029 0.033469
vn -0.678293 0.734029 0.033469
vn -0.678293 0.734029 0.033469
vn -0.678293 0.734029 0.033469
vn 0.000000 0.407385 0.913257
vn 0.000000 0.407385 0.913257
vn 0.000000 -0.405096 0.914274
vn 0.000000 -0.405096 0.914274
vn 0.000000 0.927465 0.373910
vn 0.000000 0.927465 0.373910
vn 0.000000 0.927465 0.373910
vn 0.000000 0.927465 0.373910
vn 0.863064 0.189194 0.468322
vn 0.863219 0.191649 0.467037
vn 0.515208 -0.552015 0.655622
vn 0.515207 -0.552015 0.655622
vn 0.678291 0.734030 0.033485
vn 0.678291 0.734030 0.033485
vn 0.678291 0.734030 0.033485
vn 0.678291 0.734030 0.033485
vn 0.515193 -0.845836 0.138335
vn 0.515193 -0.845836 0.138335
vn 0.515193 -0.845836 0.138335
vn 0.515194 -0.845836 0.138335
vn 0.678333 0.347232 -0.647530
vn 0.678333 0.347232 -0.647530
vn 0.678333 0.347232 -0.647530
vn 0.678333 0.347232 -0.647530
vn -0.866024 -0.141317 -0.479617
vn -0.866024 -0.141317 -0.479617
vn 0.000000 -0.289052 -0.957313
vn 0.000000 -0.289052 -0.957313
vn 0.866024 -0.141317 -0.479617
vn 0.866024 -0.141317 -0.479617
vn 0.865936 0.154157 0.475805
vn 0.865936 0.154157 0.475805
vn 0.000000 0.301845 0.953357
vn 0.000000 0.301845 0.953357
vn -0.865936 0.154156 0.475805
vn -0.865936 0.154156 0.475805
vn -0.864734 -0.212349 -0.455129
vn -0.864734 -0.212349 -0.455129
vn 0.000000 -0.429481 -0.903076
vn 0.000000 -0.429481 -0.903076
vn 0.864735 -0.212347 -0.455128
vn 0.864735 -0.212347 -0.455128
vn 0.129085 -0.435372 0.890948
vn 0.487798 -0.265320 0.831660
vn 0.487798 -0.265320 0.831660
vn 0.111238 -0.323141 0.939790
vn 0.487798 -0.265320 0.831660
vn -0.001210 -0.432092 0.901828
vn 0.006589 -0.754936 0.655765
vn -0.130790 -0.437549 0.889632
vn -0.070667 -0.801123 0.594314
vn 0.559188 0.360502 0.746557
vn 0.559188 0.360502 0.746557
vn -0.070667 -0.801123 0.594314
vn -0.114442 -0.325797 0.938488
vn -0.488371 -0.272204 0.829095
vn -0.560144 0.357967 0.747059
vn -0.560144 0.357967 0.747059
vn -0.000075 0.890905 0.454190
vn -0.000595 0.477022 0.878891
vn 0.559188 0.360502 0.746557
vn -0.560144 0.357967 0.747059
vn -0.001510 -0.328288 0.944576
vn 0.006911 -0.872587 0.488410
vn 0.081382 -0.868827 0.488382
vn 0.081382 -0.868827 0.488382
vn 0.922935 0.176893 0.341905
vn -0.065857 -0.871577 0.485816
vn -0.923427 0.171020 0.343563
vn -0.065857 -0.871577 0.485816
vn -0.000000 0.927806 0.373063
vn -0.029952 0.927389 0.372896
vn -0.029952 0.927389 0.372896
vn 0.919810 0.229394 0.318321
vn 0.919810 0.229394 0.318321
vn -0.009865 -0.837299 0.546656
vn -0.890230 -0.380693 0.250128
vn -0.907073 -0.095013 0.410111
vn 0.010623 -0.257179 0.966305
vn -0.905478 0.031529 0.423221
vn 0.017678 0.025942 0.999507
vn -0.834779 0.468154 -0.289784
vn -0.781723 0.201044 -0.590330
vn -0.756446 0.009567 -0.653987
vn 0.010663 0.853206 -0.521465
vn -0.009173 0.309023 -0.951010
vn -0.017358 -0.011291 -0.999786
vn 0.844985 0.429605 -0.318498
vn 0.769497 0.165442 -0.616850
vn 0.733306 -0.024627 -0.679452
vn 0.879855 -0.421320 0.219873
vn 0.915239 -0.136842 0.378962
vn 0.919897 -0.010370 0.392024
vn -0.009865 -0.837299 0.546656
vn 0.010623 -0.257179 0.966305
vn 0.017678 0.025942 0.999507
vn -0.016167 -0.945953 0.323901
vn -0.883479 -0.436081 0.171167
vn -0.846671 0.509599 -0.153156
vn 0.016171 0.945952 -0.323902
vn 0.863427 0.470350 -0.182386
vn 0.867878 -0.476278 0.141232
vn -0.016167 -0.945953 0.323901
vn -0.021467 -0.996463 0.081238
vn -0.028593 -0.794901 -0.606065
vn -0.922918 -0.312273 -0.225185
vn -0.894592 -0.440507 0.075224
vn -0.027350 -0.591463 -0.805868
vn -0.923841 -0.220265 -0.313053
vn -0.757572 0.532186 0.377972
vn -0.828062 0.560264 -0.020442
vn -0.726562 0.419355 0.544288
vn 0.028565 0.826512 0.562194
vn 0.020903 0.993612 -0.110900
vn 0.027454 0.603214 0.797107
vn 0.793646 0.496589 0.351463
vn 0.851701 0.521717 -0.049154
vn 0.763192 0.385164 0.518832
vn 0.899394 -0.354100 -0.256328
vn 0.875493 -0.481134 0.044968
vn 0.901533 -0.262163 -0.344251
vn -0.028593 -0.794901 -0.606065
vn -0.021467 -0.996463 0.081238
vn -0.027350 -0.591463 -0.805868
vn 0.917990 0.285952 -0.274820
vn 0.700565 0.345740 -0.624238
vn 0.917990 0.285952 -0.274820
vn 0.442895 0.363231 -0.819699
vn -0.000000 0.346586 -0.938018
vn -0.442895 0.363231 -0.819699
vn -0.700557 0.345764 -0.624232
vn -0.917990 0.285952 -0.274820
vn -0.964590 -0.105240 -0.241850
vn -0.853623 -0.482736 -0.195688
vn -0.588304 -0.785245 -0.193102
vn -0.074582 -0.996781 -0.029395
vn -0.697659 0.335638 -0.632945
vn -0.917990 0.285952 -0.274820
vn -0.928256 0.304778 -0.213191
vn -0.301865 0.945045 -0.125567
vn -0.005088 0.998678 -0.051146
vn -0.911138 0.276506 -0.305568
vn -0.921090 0.314493 -0.229537
vn -0.305958 0.935562 -0.176390
f 1/1/1 2/2/2 3/3/3
f 1/1/1 3/3/3 4/4/4
f 4/4/4 3/3/3 5/5/5
f 4/4/4 5/5/5 6/6/6
f 2/2/2 7/7/7 8/8/8
f 2/2/2 8/8/8 3/3/3
f 3/3/3 8/8/8 9/9/9
f 3/3/3 9/9/9 5/5/5
f 7/7/7 10/10/10 11/11/11
f 7/7/7 11/11/11 8/8/8
f 8/8/8 11/11/11 12/12/12
f 8/8/8 12/12/12 9/9/9
f 10/10/10 13/13/13 14/14/14
f 10/10/10 14/14/14 11/11/11
f 11/11/11 14/14/14 15/15/15
f 11/11/11 15/15/15 12/12/12
f 13/13/13 16/16/16 17/17/17
f 13/13/13 17/17/17 14/14/14
f 14/14/14 17/17/17 18/18/18
f 14/14/14 18/18/18 15/15/15
f 16/16/16 19/19/19 20/20/20
f 16/16/16 20/20/20 17/17/17
f 17/17/17 20/20/20 21/21/21
f 17/17/17 21/21/21 18/18/18
f 1/1/1 22/22/22 23/23/23
f 1/1/1 23/23/23 2/2/2
f 2/2/2 23/23/23 24/24/24
f 2/2/2 24/24/24 7/7/7
f 7/7/7 24/24/24 25/25/25
f 7/7/7 25/25/25 10/10/10
f 10/10/10 25/25/25 26/26/26
f 10/10/10 26/26/26 13/13/13
f 13/13/13 26/26/26 27/27/27
f 13/13/13 27/27/27 16/16/16
f 16/16/16 27/27/27 28/28/28
f 16/16/16 28/28/28 19/19/19
f 29/29/29 30/30/30 31/31/31
f 29/29/29 31/31/31 32/32/32
f 30/30/30 33/33/33 34/34/34
f 30/30/30 34/34/34 31/31/31
f 32/32/32 31/31/31 35/35/35
f 32/32/32 35/35/35 36/36/36
f 31/31/31 34/34/34 37/37/37
f 31/31/31 37/37/37 35/35/35
f 36/36/36 35/35/35 38/38/38
f 36/36/36 38/38/38 39/39/39
f 35/35/35 37/37/37 40/40/40
f 35/35/35 40/40/40 38/38/38
f 39/39/39 38/38/38 41/41/41
f 39/39/39 41/41/41 42/42/42
f 38/38/38 40/40/40 43/43/43
f 38/38/38 43/43/43 41/41/41
f 42/42/42 41/41/41 44/44/44
f 42/42/42 44/44/44 45/45/45
f 41/41/41 43/43/43 46/46/46
f 41/41/41 46/46/46 44/44/44
f 45/45/45 44/44/44 47/47/47
f 45/45/45 47/47/47 48/48/48
f 44/44/44 46/46/46 49/49/49
f 44/44/44 49/49/49 47/47/47
f 29/29/29 32/32/32 23/23/23
f 29/29/29 23/23/23 22/22/22
f 32/32/32 36/36/36 24/24/24
f 32/32/32 24/24/24 23/23/23
f 36/36/36 39/39/39 25/25/25
f 36/36/36 25/25/25 24/24/24
f 39/39/39 42/42/42 26/26/26
f 39/39/39 26/26/26 25/25/25
f 42/42/42 45/45/45 27/27/27
f 42/42/42 27/27/27 26/26/26
f 45/45/45 48/48/48 28/28/28
f 45/45/45 28/28/28 27/27/27
f 54/54/54 55/55/55 50/50/50
f 50/50/50 51/51/51 52/52/52
f 52/52/52 53/53/53 54/54/54
f 54/54/54 50/50/50 52/52/52
f 55/55/55 54/54/54 56/56/56
f 55/55/55 56/56/56 57/57/57
f 58/58/58 59/59/59 60/60/60
f 58/58/58 60/60/60 61/61/61
f 62/62/62 63/63/63 61/61/61
f 62/62/62 61/61/61 64/64/64
f 65/65/65 66/66/66 67/67/67
f 65/65/65 67/67/67 68/68/68
f 68/68/68 67/67/67 69/69/69
f 68/68/68 69/69/69 70/70/70
f 71/71/71 72/72/72 73/73/73
f 71/71/71 73/73/73 74/74/74
f 75/75/75 72/72/72 71/71/71
f 75/75/75 71/71/71 76/76/76
f 77/77/77 78/78/78 79/79/79
f 77/77/77 79/79/79 80/80/80
f 80/80/80 79/79/79 81/81/81
f 80/80/80 81/81/81 82/82/82
f 83/83/83 77/77/77 80/80/80
f 83/83/83 80/80/80 84/84/84
f 85/85/85 86/86/86 73/73/73
f 85/85/85 73/73/73 72/72/72
f 75/75/75 88/88/88 87/87/87
f 87/87/87 85/85/85 72/72/72
f 72/72/72 75/75/75 87/87/87
f 93/93/93 94/94/94 89/89/89
f 89/89/89 90/90/90 91/91/91
f 92/92/92 93/93/93 89/89/89
f 89/89/89 91/91/91 92/92/92
f 95/95/95 96/96/96 90/90/90
f 95/95/95 90/90/90 89/89/89
f 97/97/97 98/98/98 99/99/99
f 97/97/97 99/99/99 100/100/100
f 101/101/101 102/102/102 103/103/103
f 101/101/101 103/103/103 104/104/104
f 100/100/100 99/99/99 105/105/105
f 100/100/100 105/105/105 106/106/106
f 107/107/107 108/108/108 109/109/109
f 107/107/107 109/109/109 110/110/110
f 111/111/111 112/112/112 113/113/113
f 111/111/111 113/113/113 114/114/114
f 112/112/112 111/111/111 115/115/115
f 112/112/112 115/115/115 116/116/116
f 117/117/117 118/118/118 110/110/110
f 117/117/117 110/110/110 119/119/119
f 101/101/101 104/104/104 120/120/120
f 101/101/101 120/120/120 121/121/121
f 111/111/111 122/122/122 123/123/123
f 111/111/111 123/123/123 115/115/115
f 82/82/82 81/81/81 105/105/105
f 82/82/82 105/105/105 99/99/99
f 114/114/114 124/124/124 125/125/125
f 96/96/96 95/95/95 97/97/97
f 96/96/96 97/97/97 100/100/100
f 96/96/96 100/100/100 106/106/106
f 96/96/96 106/106/106 113/113/113
f 96/96/96 113/113/113 112/112/112
f 96/96/96 112/112/112 90/90/90
f 112/112/112 116/116/116 91/91/91
f 112/112/112 91/91/91 90/90/90
f 109/109/109 126/126/126 127/127/127
f 109/109/109 127/127/127 91/91/91
f 103/103/103 102/102/102 94/94/94
f 103/103/103 94/94/94 93/93/93
f 84/84/84 80/80/80 128/128/128
f 84/84/84 128/128/128 129/129/129
f 80/80/80 82/82/82 130/130/130
f 80/80/80 130/130/130 128/128/128
f 82/82/82 99/99/99 131/131/131
f 82/82/82 131/131/131 130/130/130
f 99/99/99 98/98/98 132/132/132
f 99/99/99 132/132/132 131/131/131
f 114/114/114 113/113/113 106/106/106
f 114/114/114 106/106/106 133/133/133
f 134/134/134 87/87/87 114/114/114
f 134/134/134 114/114/114 133/133/133
f 135/135/135 85/85/85 87/87/87
f 135/135/135 87/87/87 134/134/134
f 135/135/135 136/136/136 86/86/86
f 135/135/135 86/86/86 85/85/85
f 138/138/138 139/139/139 57/57/57
f 57/57/57 56/56/56 137/137/137
f 137/137/137 138/138/138 57/57/57
f 114/114/114 125/125/125 122/122/122
f 114/114/114 122/122/122 111/111/111
f 114/114/114 87/87/87 88/88/88
f 114/114/114 88/88/88 124/124/124
f 141/141/141 142/142/142 88/88/88
f 88/88/88 75/75/75 140/140/140
f 140/140/140 141/141/141 88/88/88
f 75/75/75 76/76/76 143/143/143
f 75/75/75 143/143/143 140/140/140
f 60/60/60 144/144/144 145/145/145
f 60/60/60 145/145/145 146/146/146
f 66/66/66 65/65/65 147/147/147
f 66/66/66 147/147/147 148/148/148
f 151/151/151 152/152/152 50/50/50
f 50/50/50 55/55/55 149/149/149
f 149/149/149 150/150/150 151/151/151
f 151/151/151 50/50/50 149/149/149
f 55/55/55 57/57/57 153/153/153
f 55/55/55 153/153/153 149/149/149
f 154/154/154 155/155/155 156/156/156
f 154/154/154 156/156/156 157/157/157
f 155/155/155 158/158/158 159/159/159
f 155/155/155 159/159/159 160/160/160
f 65/65/65 68/68/68 155/155/155
f 65/65/65 155/155/155 154/154/154
f 68/68/68 70/70/70 158/158/158
f 68/68/68 158/158/158 155/155/155
f 161/161/161 162/162/162 163/163/163
f 161/161/161 163/163/163 164/164/164
f 165/165/165 166/166/166 161/161/161
f 165/165/165 161/161/161 164/164/164
f 167/167/167 168/168/168 169/169/169
f 167/167/167 169/169/169 170/170/170
f 168/168/168 171/171/171 172/172/172
f 168/168/168 172/172/172 169/169/169
f 83/83/83 84/84/84 168/168/168
f 83/83/83 168/168/168 167/167/167
f 173/173/173 164/164/164 163/163/163
f 173/173/173 163/163/163 174/174/174
f 164/164/164 173/173/173 175/175/175
f 175/175/175 176/176/176 165/165/165
f 165/165/165 164/164/164 175/175/175
f 179/179/179 180/180/180 89/89/89
f 89/89/89 94/94/94 177/177/177
f 178/178/178 179/179/179 89/89/89
f 89/89/89 177/177/177 178/178/178
f 95/95/95 89/89/89 180/180/180
f 95/95/95 180/180/180 181/181/181
f 97/97/97 182/182/182 183/183/183
f 97/97/97 183/183/183 98/98/98
f 101/101/101 184/184/184 185/185/185
f 101/101/101 185/185/185 102/102/102
f 182/182/182 186/186/186 187/187/187
f 182/182/182 187/187/187 183/183/183
f 184/184/184 188/188/188 189/189/189
f 184/184/184 189/189/189 185/185/185
f 190/190/190 191/191/191 192/192/192
f 190/190/190 192/192/192 193/193/193
f 193/193/193 194/194/194 195/195/195
f 193/193/193 195/195/195 190/190/190
f 184/184/184 196/196/196 197/197/197
f 184/184/184 197/197/197 198/198/198
f 101/101/101 121/121/121 196/196/196
f 101/101/101 196/196/196 184/184/184
f 190/190/190 195/195/195 199/199/199
f 190/190/190 199/199/199 200/200/200
f 171/171/171 183/183/183 187/187/187
f 171/171/171 187/187/187 172/172/172
f 191/191/191 201/201/201 202/202/202
f 181/181/181 182/182/182 97/97/97
f 181/181/181 97/97/97 95/95/95
f 181/181/181 192/192/192 186/186/186
f 181/181/181 186/186/186 182/182/182
f 181/181/181 180/180/180 193/193/193
f 181/181/181 193/193/193 192/192/192
f 193/193/193 180/180/180 179/179/179
f 193/193/193 179/179/179 194/194/194
f 203/203/203 204/204/204 177/177/177
f 203/203/203 177/177/177 185/185/185
f 185/185/185 177/177/177 94/94/94
f 185/185/185 94/94/94 102/102/102
f 84/84/84 129/129/129 205/205/205
f 84/84/84 205/205/205 168/168/168
f 168/168/168 205/205/205 206/206/206
f 168/168/168 206/206/206 171/171/171
f 171/171/171 206/206/206 207/207/207
f 171/171/171 207/207/207 183/183/183
f 183/183/183 207/207/207 132/132/132
f 183/183/183 132/132/132 98/98/98
f 191/191/191 208/208/208 186/186/186
f 191/191/191 186/186/186 192/192/192
f 209/209/209 208/208/208 191/191/191
f 209/209/209 191/191/191 175/175/175
f 210/210/210 209/209/209 175/175/175
f 210/210/210 175/175/175 173/173/173
f 210/210/210 173/173/173 174/174/174
f 210/210/210 174/174/174 211/211/211
f 213/213/213 153/153/153 57/57/57
f 57/57/57 139/139/139 212/212/212
f 212/212/212 213/213/213 57/57/57
f 191/191/191 190/190/190 200/200/200
f 191/191/191 200/200/200 201/201/201
f 191/191/191 202/202/202 176/176/176
f 191/191/191 176/176/176 175/175/175
f 216/216/216 165/165/165 176/176/176
f 176/176/176 214/214/214 215/215/215
f 215/215/215 216/216/216 176/176/176
f 165/165/165 216/216/216 217/217/217
f 165/165/165 217/217/217 166/166/166
f 218/218/218 219/219/219 220/220/220
f 218/218/218 220/220/220 154/154/154
f 154/154/154 220/220/220 147/147/147
f 154/154/154 147/147/147 65/65/65
f 221/221/221 222/222/222 223/223/223
f 221/221/221 223/223/223 224/224/224
f 222/222/222 221/221/221 225/225/225
f 222/222/222 225/225/225 226/226/226
f 226/226/226 225/225/225 227/227/227
f 226/226/226 227/227/227 228/228/228
f 224/224/224 223/223/223 229/229/229
f 224/224/224 229/229/229 230/230/230
f 231/231/231 232/232/232 233/233/233
f 231/231/231 233/233/233 234/234/234
f 235/235/235 236/236/236 237/237/237
f 235/235/235 237/237/237 238/238/238
f 238/238/238 237/237/237 239/239/239
f 238/238/238 239/239/239 240/240/240
f 241/241/241 242/242/242 243/243/243
f 241/241/241 243/243/243 244/244/244
f 242/242/242 241/241/241 245/245/245
f 242/242/242 245/245/245 246/246/246
f 246/246/246 245/245/245 247/247/247
f 246/246/246 247/247/247 248/248/248
f 244/244/244 243/243/243 249/249/249
f 244/244/244 249/249/249 250/250/250
f 251/251/251 252/252/252 240/240/240
f 251/251/251 240/240/240 239/239/239
f 254/254/254 225/225/225 221/221/221
f 221/221/221 224/224/224 230/230/230
f 230/230/230 253/253/253 254/254/254
f 254/254/254 221/221/221 230/230/230
f 227/227/227 225/225/225 255/255/255
f 227/227/227 255/255/255 256/256/256
f 257/257/257 258/258/258 232/232/232
f 257/257/257 232/232/232 259/259/259
f 237/237/237 236/236/236 260/260/260
f 237/237/237 260/260/260 261/261/261
f 262/262/262 263/263/263 222/222/222
f 262/262/262 222/222/222 226/226/226
f 263/263/263 264/264/264 223/223/223
f 263/263/263 223/223/223 222/222/222
f 264/264/264 265/265/265 229/229/229
f 264/264/264 229/229/229 223/223/223
f 228/228/228 266/266/266 262/262/262
f 228/228/228 262/262/262 226/226/226
f 267/267/267 268/268/268 269/269/269
f 267/267/267 269/269/269 231/231/231
f 270/270/270 271/271/271 235/235/235
f 270/270/270 235/235/235 238/238/238
f 243/243/243 242/242/242 246/246/246
f 246/246/246 272/272/272 273/273/273
f 273/273/273 249/249/249 243/243/243
f 243/243/243 246/246/246 273/273/273
f 248/248/248 274/274/274 275/275/275
f 248/248/248 275/275/275 246/246/246
f 239/239/239 276/276/276 277/277/277
f 239/239/239 277/277/277 278/278/278
f 237/237/237 279/279/279 276/276/276
f 237/237/237 276/276/276 239/239/239
f 280/280/280 245/245/245 241/241/241
f 280/280/280 241/241/241 281/281/281
f 281/281/281 241/241/241 244/244/244
f 281/281/281 244/244/244 282/282/282
f 282/282/282 244/244/244 250/250/250
f 282/282/282 250/250/250 283/283/283
f 247/247/247 245/245/245 280/280/280
f 247/247/247 280/280/280 284/284/284
f 285/285/285 240/240/240 286/286/286
f 285/285/285 286/286/286 287/287/287
f 270/270/270 238/238/238 240/240/240
f 270/270/270 240/240/240 285/285/285
f 288/288/288 289/289/289 290/290/290
f 288/288/288 290/290/290 291/291/291
f 289/289/289 292/292/292 293/293/293
f 289/289/289 293/293/293 290/290/290
f 292/292/292 294/294/294 295/295/295
f 292/292/292 295/295/295 293/293/293
f 294/294/294 296/296/296 297/297/297
f 294/294/294 297/297/297 295/295/295
f 296/296/296 298/298/298 299/299/299
f 296/296/296 299/299/299 297/297/297
f 298/298/298 300/300/300 301/301/301
f 298/298/298 301/301/301 299/299/299
f 300/300/300 302/302/302 303/303/303
f 300/300/300 303/303/303 301/301/301
f 302/302/302 304/304/304 305/305/305
f 302/302/302 305/305/305 303/303/303
f 304/304/304 306/306/306 307/307/307
f 304/304/304 307/307/307 305/305/305
f 306/306/306 308/308/308 309/309/309
f 306/306/306 309/309/309 307/307/307
f 308/308/308 310/310/310 311/311/311
f 308/308/308 311/311/311 309/309/309
f 310/310/310 312/312/312 313/313/313
f 310/310/310 313/313/313 311/311/311
f 312/312/312 314/314/314 315/315/315
f 312/312/312 315/315/315 313/313/313
f 314/314/314 316/316/316 317/317/317
f 314/314/314 317/317/317 315/315/315
f 316/316/316 318/318/318 319/319/319
f 316/316/316 319/319/319 317/317/317
f 318/318/318 320/320/320 321/321/321
f 318/318/318 321/321/321 319/319/319
f 320/320/320 322/322/322 323/323/323
f 320/320/320 323/323/323 321/321/321
f 322/322/322 324/324/324 325/325/325
f 322/322/322 325/325/325 323/323/323
f 324/324/324 326/326/326 327/327/327
f 324/324/324 327/327/327 325/325/325
f 326/326/326 288/288/288 291/291/291
f 326/326/326 291/291/291 327/327/327
f 346/346/346 347/347/347 328/328/328
f 328/328/328 329/329/329 330/330/330
f 330/330/330 331/331/331 332/332/332
f 332/332/332 333/333/333 334/334/334
f 334/334/334 335/335/335 336/336/336
f 336/336/336 337/337/337 338/338/338
f 338/338/338 339/339/339 340/340/340
f 340/340/340 341/341/341 342/342/342
f 342/342/342 343/343/343 344/344/344
f 344/344/344 345/345/345 346/346/346
f 346/346/346 328/328/328 330/330/330
f 330/330/330 332/332/332 334/334/334
f 334/334/334 336/336/336 338/338/338
f 338/338/338 340/340/340 342/342/342
f 342/342/342 344/344/344 346/346/346
f 346/346/346 330/330/330 334/334/334
f 334/334/334 338/338/338 342/342/342
f 342/342/342 346/346/346 334/334/334
f 348/348/348 349/349/349 350/350/350
f 348/348/348 350/350/350 351/351/351
f 349/349/349 352/352/352 353/353/353
f 349/349/349 353/353/353 350/350/350
f 352/352/352 354/354/354 355/355/355
f 352/352/352 355/355/355 353/353/353
f 354/354/354 356/356/356 357/357/357
f 354/354/354 357/357/357 355/355/355
f 356/356/356 358/358/358 359/359/359
f 356/356/356 359/359/359 357/357/357
f 358/358/358 360/360/360 361/361/361
f 358/358/358 361/361/361 359/359/359
f 360/360/360 362/362/362 363/363/363
f 360/360/360 363/363/363 361/361/361
f 362/362/362 364/364/364 365/365/365
f 362/362/362 365/365/365 363/363/363
f 364/364/364 366/366/366 367/367/367
f 364/364/364 367/367/367 365/365/365
f 366/366/366 368/368/368 369/369/369
f 366/366/366 369/369/369 367/367/367
f 368/368/368 370/370/370 371/371/371
f 368/368/368 371/371/371 369/369/369
f 370/370/370 372/372/372 373/373/373
f 370/370/370 373/373/373 371/371/371
f 372/372/372 374/374/374 375/375/375
f 372/372/372 375/375/375 373/373/373
f 374/374/374 376/376/376 377/377/377
f 374/374/374 377/377/377 375/375/375
f 376/376/376 378/378/378 379/379/379
f 376/376/376 379/379/379 377/377/377
f 378/378/378 380/380/380 381/381/381
f 378/378/378 381/381/381 379/379/379
f 380/380/380 382/382/382 383/383/383
f 380/380/380 383/383/383 381/381/381
f 382/382/382 384/384/384 385/385/385
f 382/382/382 385/385/385 383/383/383
f 384/384/384 386/386/386 387/387/387
f 384/384/384 387/387/387 385/385/385
f 386/386/386 348/348/348 351/351/351
f 386/386/386 351/351/351 387/387/387
f 377/377/377 379/379/379 388/388/388
f 377/377/377 388/388/388 389/389/389
f 375/375/375 377/377/377 389/389/389
f 375/375/375 389/389/389 390/390/390
f 373/373/373 375/375/375 390/390/390
f 373/373/373 390/390/390 391/391/391
f 371/371/371 373/373/373 391/391/391
f 371/371/371 391/391/391 392/392/392
f 369/369/369 371/371/371 392/392/392
f 369/369/369 392/392/392 393/393/393
f 367/367/367 369/369/369 393/393/393
f 367/367/367 393/393/393 394/394/394
f 365/365/365 367/367/367 394/394/394
f 365/365/365 394/394/394 395/395/395
f 363/363/363 365/365/365 395/395/395
f 363/363/363 395/395/395 396/396/396
f 361/361/361 363/363/363 396/396/396
f 361/361/361 396/396/396 397/397/397
f 359/359/359 361/361/361 397/397/397
f 359/359/359 397/397/397 398/398/398
f 357/357/357 359/359/359 398/398/398
f 357/357/357 398/398/398 399/399/399
f 355/355/355 357/357/357 399/399/399
f 355/355/355 399/399/399 400/400/400
f 353/353/353 355/355/355 400/400/400
f 353/353/353 400/400/400 401/401/401
f 350/350/350 353/353/353 401/401/401
f 350/350/350 401/401/401 402/402/402
f 351/351/351 350/350/350 402/402/402
f 351/351/351 402/402/402 403/403/403
f 387/387/387 351/351/351 403/403/403
f 387/387/387 403/403/403 404/404/404
f 385/385/385 387/387/387 404/404/404
f 385/385/385 404/404/404 405/405/405
f 383/383/383 385/385/385 405/405/405
f 383/383/383 405/405/405 406/406/406
f 381/381/381 383/383/383 406/406/406
f 381/381/381 406/406/406 407/407/407
f 379/379/379 381/381/381 407/407/407
f 379/379/379 407/407/407 388/388/388
f 408/408/408 409/409/409 410/410/410
f 408/408/408 410/410/410 411/411/411
f 409/409/409 412/412/412 413/413/413
f 409/409/409 413/413/413 410/410/410
f 412/412/412 414/414/414 415/415/415
f 412/412/412 415/415/415 413/413/413
f 414/414/414 416/416/416 417/417/417
f 414/414/414 417/417/417 415/415/415
f 416/416/416 418/418/418 419/419/419
f 416/416/416 419/419/419 417/417/417
f 418/418/418 420/420/420 421/421/421
f 418/418/418 421/421/421 419/419/419
f 420/420/420 422/422/422 423/423/423
f 420/420/420 423/423/423 421/421/421
f 422/422/422 424/424/424 425/425/425
f 422/422/422 425/425/425 423/423/423
f 424/424/424 426/426/426 427/427/427
f 424/424/424 427/427/427 425/425/425
f 426/426/426 428/428/428 429/429/429
f 426/426/426 429/429/429 427/427/427
f 428/428/428 430/430/430 431/431/431
f 428/428/428 431/431/431 429/429/429
f 430/430/430 432/432/432 433/433/433
f 430/430/430 433/433/433 431/431/431
f 432/432/432 434/434/434 435/435/435
f 432/432/432 435/435/435 433/433/433
f 434/434/434 436/436/436 437/437/437
f 434/434/434 437/437/437 435/435/435
f 436/436/436 438/438/438 439/439/439
f 436/436/436 439/439/439 437/437/437
f 438/438/438 440/440/440 441/441/441
f 438/438/438 441/441/441 439/439/439
f 440/440/440 442/442/442 443/443/443
f 440/440/440 443/443/443 441/441/441
f 442/442/442 444/444/444 445/445/445
f 442/442/442 445/445/445 443/443/443
f 444/444/444 446/446/446 447/447/447
f 444/444/444 447/447/447 445/445/445
f 446/446/446 408/408/408 411/411/411
f 446/446/446 411/411/411 447/447/447
f 448/448/448 449/449/449 450/450/450
f 448/448/448 450/450/450 451/451/451
f 451/451/451 450/450/450 452/452/452
f 451/451/451 452/452/452 453/453/453
f 449/449/449 454/454/454 455/455/455
f 449/449/449 455/455/455 450/450/450
f 450/450/450 455/455/455 456/456/456
f 450/450/450 456/456/456 452/452/452
f 454/454/454 457/457/457 458/458/458
f 454/454/454 458/458/458 455/455/455
f 455/455/455 458/458/458 459/459/459
f 455/455/455 459/459/459 456/456/456
f 457/457/457 460/460/460 461/461/461
f 457/457/457 461/461/461 458/458/458
f 458/458/458 461/461/461 462/462/462
f 458/458/458 462/462/462 459/459/459
f 460/460/460 463/463/463 464/464/464
f 460/460/460 464/464/464 461/461/461
f 461/461/461 464/464/464 465/465/465
f 461/461/461 465/465/465 462/462/462
f 463/463/463 466/466/466 467/467/467
f 463/463/463 467/467/467 464/464/464
f 464/464/464 467/467/467 468/468/468
f 464/464/464 468/468/468 465/465/465
f 448/448/448 469/469/469 470/470/470
f 448/448/448 470/470/470 449/449/449
f 449/449/449 470/470/470 471/471/471
f 449/449/449 471/471/471 454/454/454
f 454/454/454 471/471/471 472/472/472
f 454/454/454 472/472/472 457/457/457
f 457/457/457 472/472/472 473/473/473
f 457/457/457 473/473/473 460/460/460
f 460/460/460 473/473/473 474/474/474
f 460/460/460 474/474/474 463/463/463
f 463/463/463 474/474/474 475/475/475
f 463/463/463 475/475/475 466/466/466
f 476/476/476 477/477/477 478/478/478
f 476/476/476 478/478/478 479/479/479
f 477/477/477 480/480/480 481/481/481
f 477/477/477 481/481/481 478/478/478
f 479/479/479 478/478/478 482/482/482
f 479/479/479 482/482/482 483/483/483
f 478/478/478 481/481/481 484/484/484
f 478/478/478 484/484/484 482/482/482
f 483/483/483 482/482/482 485/485/485
f 483/483/483 485/485/485 486/486/486
f 482/482/482 484/484/484 487/487/487
f 482/482/482 487/487/487 485/485/485
f 486/486/486 485/485/485 488/488/488
f 486/486/486 488/488/488 489/489/489
f 485/485/485 487/487/487 490/490/490
f 485/485/485 490/490/490 488/488/488
f 489/489/489 488/488/488 491/491/491
f 489/489/489 491/491/491 492/492/492
f 488/488/488 490/490/490 493/493/493
f 488/488/488 493/493/493 491/491/491
f 492/492/492 491/491/491 494/494/494
f 492/492/492 494/494/494 495/495/495
f 491/491/491 493/493/493 496/496/496
f 491/491/491 496/496/496 494/494/494
f 476/476/476 479/479/479 470/470/470
f 476/476/476 470/470/470 469/469/469
f 479/479/479 483/483/483 471/471/471
f 479/479/479 471/471/471 470/470/470
f 483/483/483 486/486/486 472/472/472
f 483/483/483 472/472/472 471/471/471
f 486/486/486 489/489/489 473/473/473
f 486/486/486 473/473/473 472/472/472
f 489/489/489 492/492/492 474/474/474
f 489/489/489 474/474/474 473/473/473
f 492/492/492 495/495/495 475/475/475
f 492/492/492 475/475/475 474/474/474
f 497/497/497 498/498/498 499/499/499
f 497/497/497 499/499/499 500/500/500
f 501/501/501 502/502/502 503/503/503
f 501/501/501 503/503/503 504/504/504
f 505/505/505 506/506/506 507/507/507
f 505/505/505 507/507/507 508/508/508
f 509/509/509 510/510/510 511/511/511
f 509/509/509 511/511/511 512/512/512
f 513/513/513 514/514/514 515/515/515
f 513/513/513 515/515/515 516/516/516
f 517/517/517 518/518/518 519/519/519
f 517/517/517 519/519/519 520/520/520
f 525/525/525 526/526/526 521/521/521
f 521/521/521 522/522/522 523/523/523
f 523/523/523 524/524/524 525/525/525
f 525/525/525 521/521/521 523/523/523
f 527/527/527 528/528/528 529/529/529
f 527/527/527 529/529/529 530/530/530
f 531/531/531 532/532/532 533/533/533
f 531/531/531 533/533/533 534/534/534
f 535/535/535 536/536/536 537/537/537
f 535/535/535 537/537/537 538/538/538
f 539/539/539 540/540/540 541/541/541
f 539/539/539 541/541/541 542/542/542
f 543/543/543 544/544/544 545/545/545
f 543/543/543 545/545/545 546/546/546
f 547/547/547 548/548/548 549/549/549
f 547/547/547 549/549/549 550/550/550
f 551/551/551 552/552/552 553/553/553
f 551/551/551 553/553/553 554/554/554
f 555/555/555 556/556/556 557/557/557
f 555/555/555 557/557/557 558/558/558
f 559/559/559 560/560/560 561/561/561
f 559/559/559 561/561/561 562/562/562
f 563/563/563 564/564/564 565/565/565
f 563/563/563 565/565/565 566/566/566
f 567/567/567 568/568/568 569/569/569
f 567/567/567 569/569/569 570/570/570
f 571/571/571 572/572/572 573/573/573
f 571/571/571 573/573/573 574/574/574
f 575/575/575 576/576/576 577/577/577
f 575/575/575 577/577/577 578/578/578
f 579/579/579 580/580/580 581/581/581
f 579/579/579 581/581/581 582/582/582
f 583/583/583 584/584/584 585/585/585
f 583/583/583 585/585/585 586/586/586
f 587/587/587 588/588/588 589/589/589
f 587/587/587 589/589/589 590/590/590
f 591/591/591 592/592/592 593/593/593
f 591/591/591 593/593/593 594/594/594
f 595/595/595 596/596/596 597/597/597
f 595/595/595 597/597/597 598/598/598
f 599/599/599 600/600/600 601/601/601
f 599/599/599 601/601/601 602/602/602
f 603/603/603 604/604/604 605/605/605
f 603/603/603 605/605/605 606/606/606
f 607/607/607 603/603/603 606/606/606
f 607/607/607 606/606/606 608/608/608
f 609/609/609 607/607/607 608/608/608
f 609/609/609 608/608/608 610/610/610
f 611/611/611 609/609/609 610/610/610
f 611/611/611 610/610/610 612/612/612
f 600/600/600 611/611/611 612/612/612
f 600/600/600 612/612/612 601/601/601
f 613/613/613 614/614/614 615/615/615
f 613/613/613 615/615/615 616/616/616
f 617/617/617 618/618/618 619/619/619
f 617/617/617 619/619/619 620/620/620
f 621/621/621 622/622/622 623/623/623
f 621/621/621 623/623/623 624/624/624
f 625/625/625 626/626/626 627/627/627
f 625/625/625 627/627/627 628/628/628
f 629/629/629 630/630/630 631/631/631
f 629/629/629 631/631/631 632/632/632
f 633/633/633 634/634/634 635/635/635
f 633/633/633 635/635/635 636/636/636
f 637/637/637 638/638/638 639/639/639
f 637/637/637 639/639/639 640/640/640
f 641/641/641 642/642/642 643/643/643
f 641/641/641 643/643/643 644/644/644
f 645/645/645 646/646/646 647/647/647
f 645/645/645 647/647/647 648/648/648
f 649/649/649 650/650/650 651/651/651
f 649/649/649 651/651/651 652/652/652
f 653/653/653 654/654/654 655/655/655
f 653/653/653 655/655/655 656/656/656
f 657/657/657 658/658/658 659/659/659
f 657/657/657 659/659/659 660/660/660
f 661/661/661 662/662/662 663/663/663
f 661/661/661 663/663/663 664/664/664
f 665/665/665 666/666/666 667/667/667
f 665/665/665 667/667/667 668/668/668
f 669/669/669 670/670/670 671/671/671
f 669/669/669 671/671/671 672/672/672
f 673/673/673 674/674/674 675/675/675
f 673/673/673 675/675/675 676/676/676
f 677/677/677 678/678/678 679/679/679
f 677/677/677 679/679/679 680/680/680
f 681/681/681 682/682/682 683/683/683
f 681/681/681 683/683/683 684/684/684
f 542/542/542 541/541/541 685/685/685
f 542/542/542 685/685/685 686/686/686
f 546/546/546 545/545/545 687/687/687
f 546/546/546 687/687/687 688/688/688
f 550/550/550 549/549/549 689/689/689
f 550/550/550 689/689/689 690/690/690
f 530/530/530 529/529/529 691/691/691
f 530/530/530 691/691/691 692/692/692
f 534/534/534 533/533/533 693/693/693
f 534/534/534 693/693/693 694/694/694
f 538/538/538 537/537/537 695/695/695
f 538/538/538 695/695/695 696/696/696
f 566/566/566 565/565/565 697/697/697
f 566/566/566 697/697/697 698/698/698
f 570/570/570 569/569/569 699/699/699
f 570/570/570 699/699/699 700/700/700
f 574/574/574 573/573/573 701/701/701
f 574/574/574 701/701/701 702/702/702
f 554/554/554 553/553/553 670/670/670
f 554/554/554 670/670/670 669/669/669
f 558/558/558 557/557/557 662/662/662
f 558/558/558 662/662/662 661/661/661
f 562/562/562 561/561/561 654/654/654
f 562/562/562 654/654/654 653/653/653
f 703/703/703 704/704/704 705/705/705
f 703/703/703 705/705/705 706/706/706
f 707/707/707 703/703/703 708/708/708
f 707/707/707 708/708/708 709/709/709
f 709/709/709 708/708/708 710/710/710
f 709/709/709 710/710/710 711/711/711
f 706/706/706 705/705/705 712/712/712
f 706/706/706 712/712/712 713/713/713
f 714/714/714 710/710/710 715/715/715
f 714/714/714 715/715/715 716/716/716
f 716/716/716 715/715/715 717/717/717
f 716/716/716 717/717/717 718/718/718
f 719/719/719 720/720/720 713/713/713
f 719/719/719 713/713/713 721/721/721
f 720/720/720 719/719/719 722/722/722
f 720/720/720 722/722/722 717/717/717
f 708/708/708 703/703/703 706/706/706
f 708/708/708 706/706/706 723/723/723
f 710/710/710 708/708/708 723/723/723
f 710/710/710 723/723/723 715/715/715
f 723/723/723 720/720/720 717/717/717
f 723/723/723 717/717/717 715/715/715
f 723/723/723 706/706/706 713/713/713
f 723/723/723 713/713/713 720/720/720
f 724/724/724 725/725/725 707/707/707
f 724/724/724 707/707/707 709/709/709
f 726/726/726 727/727/727 705/705/705
f 726/726/726 705/705/705 704/704/704
f 728/728/728 724/724/724 709/709/709
f 728/728/728 709/709/709 711/711/711
f 729/729/729 730/730/730 714/714/714
f 729/729/729 714/714/714 716/716/716
f 731/731/731 732/732/732 722/722/722
f 731/731/731 722/722/722 719/719/719
f 733/733/733 729/729/729 716/716/716
f 733/733/733 716/716/716 718/718/718
f 727/727/727 734/734/734 712/712/712
f 727/727/727 712/712/712 705/705/705
f 735/735/735 731/731/731 719/719/719
f 735/735/735 719/719/719 721/721/721
f 736/736/736 737/737/737 738/738/738
f 736/736/736 738/738/738 739/739/739
f 739/739/739 738/738/738 740/740/740
f 739/739/739 740/740/740 741/741/741
f 737/737/737 742/742/742 743/743/743
f 737/737/737 743/743/743 738/738/738
f 738/738/738 743/743/743 744/744/744
f 738/738/738 744/744/744 740/740/740
f 742/742/742 745/745/745 746/746/746
f 742/742/742 746/746/746 743/743/743
f 743/743/743 746/746/746 747/747/747
f 743/743/743 747/747/747 744/744/744
f 745/745/745 748/748/748 749/749/749
f 745/745/745 749/749/749 746/746/746
f 746/746/746 749/749/749 750/750/750
f 746/746/746 750/750/750 747/747/747
f 748/748/748 751/751/751 752/752/752
f 748/748/748 752/752/752 749/749/749
f 749/749/749 752/752/752 753/753/753
f 749/749/749 753/753/753 750/750/750
f 751/751/751 754/754/754 755/755/755
f 751/751/751 755/755/755 752/752/752
f 752/752/752 755/755/755 756/756/756
f 752/752/752 756/756/756 753/753/753
f 736/736/736 757/757/757 758/758/758
f 736/736/736 758/758/758 737/737/737
f 737/737/737 758/758/758 759/759/759
f 737/737/737 759/759/759 742/742/742
f 742/742/742 759/759/759 760/760/760
f 742/742/742 760/760/760 745/745/745
f 745/745/745 760/760/760 761/761/761
f 745/745/745 761/761/761 748/748/748
f 748/748/748 761/761/761 762/762/762
f 748/748/748 762/762/762 751/751/751
f 751/751/751 762/762/762 763/763/763
f 751/751/751 763/763/763 754/754/754
f 764/764/764 765/765/765 766/766/766
f 764/764/764 766/766/766 767/767/767
f 765/765/765 768/768/768 769/769/769
f 765/765/765 769/769/769 766/766/766
f 767/767/767 766/766/766 770/770/770
f 767/767/767 770/770/770 771/771/771
f 766/766/766 769/769/769 772/772/772
f 766/766/766 772/772/772 770/770/770
f 771/771/771 770/770/770 773/773/773
f 771/771/771 773/773/773 774/774/774
f 770/770/770 772/772/772 775/775/775
f 770/770/770 775/775/775 773/773/773
f 774/774/774 773/773/773 776/776/776
f 774/774/774 776/776/776 777/777/777
f 773/773/773 775/775/775 778/778/778
f 773/773/773 778/778/778 776/776/776
f 777/777/777 776/776/776 779/779/779
f 777/777/777 779/779/779 780/780/780
f 776/776/776 778/778/778 781/781/781
f 776/776/776 781/781/781 779/779/779
f 780/780/780 779/779/779 782/782/782
f 780/780/780 782/782/782 783/783/783
f 779/779/779 781/781/781 784/784/784
f 779/779/779 784/784/784 782/782/782
f 764/764/764 767/767/767 758/758/758
f 764/764/764 758/758/758 757/757/757
f 767/767/767 771/771/771 759/759/759
f 767/767/767 759/759/759 758/758/758
f 771/771/771 774/774/774 760/760/760
f 771/771/771 760/760/760 759/759/759
f 774/774/774 777/777/777 761/761/761
f 774/774/774 761/761/761 760/760/760
f 777/777/777 780/780/780 762/762/762
f 777/777/777 762/762/762 761/761/761
f 780/780/780 783/783/783 763/763/763
f 780/780/780 763/763/763 762/762/762
f 256/256/256 255/255/255 253/253/253
f 256/256/256 253/253/253 785/785/785
f 786/786/786 257/257/257 259/259/259
f 786/786/786 259/259/259 787/787/787
f 261/261/261 260/260/260 788/788/788
f 261/261/261 788/788/788 789/789/789
f 276/276/276 279/279/279 789/789/789
f 276/276/276 789/789/789 790/790/790
f 791/791/791 277/277/277 276/276/276
f 791/791/791 276/276/276 790/790/790
f 275/275/275 274/274/274 792/792/792
f 275/275/275 792/792/792 273/273/273
f 67/67/67 63/63/63 62/62/62
f 67/67/67 62/62/62 69/69/69
f 66/66/66 59/59/59 58/58/58
f 66/66/66 58/58/58 67/67/67
f 145/145/145 144/144/144 66/66/66
f 145/145/145 66/66/66 148/148/148
f 260/260/260 257/257/257 786/786/786
f 260/260/260 786/786/786 788/788/788
f 236/236/236 258/258/258 257/257/257
f 236/236/236 257/257/257 260/260/260
f 234/234/234 233/233/233 236/236/236
f 234/234/234 236/236/236 235/235/235
f 271/271/271 268/268/268 267/267/267
f 271/271/271 267/267/267 235/235/235
f 104/104/104 118/118/118 117/117/117
f 104/104/104 117/117/117 120/120/120
f 104/104/104 103/103/103 108/108/108
f 104/104/104 108/108/108 107/107/107
f 127/127/127 126/126/126 103/103/103
f 127/127/127 103/103/103 93/93/93
f 160/160/160 159/159/159 793/793/793
f 160/160/160 793/793/793 794/794/794
f 157/157/157 156/156/156 794/794/794
f 157/157/157 794/794/794 795/795/795
f 795/795/795 796/796/796 219/219/219
f 795/795/795 219/219/219 218/218/218
f 797/797/797 277/277/277 791/791/791
f 797/797/797 791/791/791 798/798/798
f 278/278/278 277/277/277 797/797/797
f 278/278/278 797/797/797 799/799/799
f 799/799/799 800/800/800 252/252/252
f 799/799/799 252/252/252 251/251/251
f 287/287/287 286/286/286 800/800/800
f 287/287/287 800/800/800 801/801/801
f 198/198/198 197/197/197 802/802/802
f 198/198/198 802/802/802 803/803/803
f 189/189/189 188/188/188 803/803/803
f 189/189/189 803/803/803 804/804/804
f 804/804/804 179/179/179 204/204/204
f 804/804/804 204/204/204 203/203/203
